<svg width="1930" height="350" viewBox="0 0 1930 350" fill="none" xmlns="http://www.w3.org/2000/svg">
<rect width="1930" height="350" fill="black"/>
<path d="M31.266 304V281.226H78.744V86.296H33.968V63.522H153.242V86.296H105.764V281.612H155.558V304H31.266ZM220.792 304V127.598H247.812V158.864C252.444 151.659 257.848 145.483 264.024 140.336C270.2 134.932 277.019 130.815 284.482 127.984C291.945 124.896 299.665 123.352 307.642 123.352C317.421 123.352 326.17 125.797 333.89 130.686C341.61 135.575 347.786 143.424 352.418 154.232C357.05 165.04 359.366 179.322 359.366 197.078V304H332.346V197.85C332.346 185.498 330.931 175.719 328.1 168.514C325.269 161.051 321.409 155.776 316.52 152.688C311.631 149.343 306.098 147.67 299.922 147.67C294.003 147.67 287.956 148.957 281.78 151.53C275.861 154.103 270.329 157.835 265.182 162.724C260.035 167.356 255.789 173.017 252.444 179.708C249.356 186.399 247.812 193.99 247.812 202.482V304H220.792ZM476.324 307.86C467.317 307.86 458.439 305.93 449.69 302.07C441.198 298.21 433.349 292.42 426.144 284.7C419.196 276.98 413.663 267.201 409.546 255.364C405.429 243.527 403.37 229.759 403.37 214.062C403.37 197.85 405.557 184.083 409.932 172.76C414.307 161.18 420.097 151.787 427.302 144.582C434.507 137.119 442.485 131.715 451.234 128.37C459.983 124.767 468.861 122.966 477.868 122.966C486.103 122.966 493.437 124.253 499.87 126.826C506.561 129.399 512.351 133.002 517.24 137.634C522.387 142.009 526.375 147.284 529.206 153.46V47.31H554.682H558.542V50.012C556.998 51.556 555.969 53.2287 555.454 55.03C555.197 56.8313 555.068 59.9193 555.068 64.294L555.454 276.594C555.454 281.226 555.583 285.858 555.84 290.49C556.355 294.865 557.513 299.368 559.314 304H531.908C530.621 300.912 529.721 297.824 529.206 294.736C528.691 291.648 528.305 288.689 528.048 285.858C528.048 282.77 528.048 279.682 528.048 276.594C524.445 282.77 520.071 288.303 514.924 293.192C509.777 297.824 503.987 301.427 497.554 304C491.121 306.573 484.044 307.86 476.324 307.86ZM480.57 283.542C489.062 283.542 496.267 281.869 502.186 278.524C508.105 274.921 512.865 270.032 516.468 263.856C520.071 257.423 522.644 250.089 524.188 241.854C525.989 233.362 526.89 224.355 526.89 214.834C526.89 201.71 525.217 190.001 521.872 179.708C518.527 169.157 513.251 160.923 506.046 155.004C498.841 148.828 489.577 145.74 478.254 145.74C470.534 145.74 463.586 147.284 457.41 150.372C451.491 153.203 446.473 157.449 442.356 163.11C438.496 168.771 435.537 175.591 433.478 183.568C431.419 191.288 430.39 200.037 430.39 209.816C430.39 224.484 432.32 237.351 436.18 248.416C440.04 259.481 445.701 268.102 453.164 274.278C460.627 280.454 469.762 283.542 480.57 283.542ZM617.6 304V281.612H662.762V149.986H619.916V127.598H690.554V281.612H731.856V304H617.6ZM675.114 90.542C669.71 90.542 665.078 88.612 661.218 84.752C657.358 80.892 655.428 76.26 655.428 70.856C655.428 65.1947 657.229 60.434 660.832 56.574C664.692 52.714 669.453 50.784 675.114 50.784C680.518 50.784 685.15 52.8427 689.01 56.96C693.127 60.82 695.186 65.452 695.186 70.856C695.186 76.26 693.127 80.892 689.01 84.752C685.15 88.612 680.518 90.542 675.114 90.542ZM876.992 307.86C864.125 307.86 852.417 305.93 841.866 302.07C831.315 297.953 822.18 292.034 814.46 284.314C806.997 276.594 801.207 267.073 797.09 255.75C792.973 244.17 790.914 231.046 790.914 216.378C790.914 201.453 792.973 188.2 797.09 176.62C801.465 165.04 807.255 155.39 814.46 147.67C821.923 139.693 830.543 133.645 840.322 129.528C850.358 125.411 860.909 123.352 871.974 123.352C882.01 123.352 891.403 125.025 900.152 128.37C908.901 131.715 916.493 136.862 922.926 143.81C929.359 150.501 934.377 159.121 937.98 169.672C941.84 180.223 943.77 192.703 943.77 207.114C943.77 209.173 943.641 211.36 943.384 213.676C943.384 215.735 943.255 217.793 942.998 219.852H817.548C818.063 231.175 819.993 241.082 823.338 249.574C826.683 257.809 831.058 264.628 836.462 270.032C841.866 275.179 848.042 279.039 854.99 281.612C862.195 284.185 869.787 285.472 877.764 285.472C883.94 285.472 889.73 284.829 895.134 283.542C900.538 281.998 905.556 279.811 910.188 276.98C915.077 273.892 919.452 270.161 923.312 265.786L938.752 280.84C933.863 286.759 928.201 291.777 921.768 295.894C915.592 300.011 908.773 302.971 901.31 304.772C893.847 306.831 885.741 307.86 876.992 307.86ZM818.706 198.236H915.592C915.592 190.001 914.434 182.667 912.118 176.234C910.059 169.543 906.971 163.882 902.854 159.25C898.994 154.361 894.233 150.758 888.572 148.442C883.168 145.869 876.992 144.582 870.044 144.582C863.868 144.582 857.949 145.611 852.288 147.67C846.884 149.729 841.866 153.074 837.234 157.706C832.602 162.081 828.613 167.613 825.268 174.304C822.18 180.995 819.993 188.972 818.706 198.236ZM1060.34 307.86C1044.64 307.86 1030.49 305.287 1017.88 300.14C1005.53 294.993 994.593 287.402 985.072 277.366L998.968 253.048L1000.51 249.574L1003.21 251.118C1003.73 252.919 1004.37 254.978 1005.14 257.294C1005.92 259.353 1007.72 261.926 1010.55 265.014C1017.24 270.675 1024.96 275.179 1033.71 278.524C1042.71 281.869 1052.88 283.542 1064.2 283.542C1071.41 283.542 1077.97 282.513 1083.89 280.454C1090.06 278.138 1095.34 275.179 1099.71 271.576C1104.35 267.716 1107.82 263.341 1110.14 258.452C1112.71 253.305 1114 247.901 1114 242.24C1114 237.865 1113.48 233.877 1112.45 230.274C1111.68 226.671 1110.01 223.455 1107.43 220.624C1105.12 217.536 1101.9 214.577 1097.78 211.746C1093.67 208.658 1088.39 205.441 1081.96 202.096C1075.52 198.751 1067.8 195.148 1058.8 191.288C1042.07 184.855 1028.82 177.907 1019.04 170.444C1009.52 162.724 1002.7 154.618 998.582 146.126C994.722 137.634 992.792 128.885 992.792 119.878C992.792 108.041 995.751 97.7473 1001.67 88.998C1007.59 79.9913 1015.95 73.0433 1026.76 68.154C1037.83 63.0073 1050.95 60.434 1066.13 60.434C1074.88 60.434 1083.24 61.7206 1091.22 64.294C1099.46 66.61 1107.05 69.9553 1114 74.33C1121.2 78.7047 1127.51 84.1087 1132.91 90.542L1117.86 110.614L1115.54 113.702L1113.22 112.158C1112.97 110.099 1112.45 108.041 1111.68 105.982C1110.91 103.923 1109.11 101.35 1106.28 98.262C1100.1 92.3433 1093.54 88.3547 1086.59 86.296C1079.64 83.98 1071.41 82.822 1061.89 82.822C1055.45 82.822 1049.66 83.7227 1044.52 85.524C1039.63 87.3253 1035.38 89.8987 1031.78 93.244C1028.18 96.5893 1025.34 100.449 1023.29 104.824C1021.48 108.941 1020.58 113.316 1020.58 117.948C1020.58 122.323 1021.1 126.311 1022.13 129.914C1023.16 133.517 1024.96 136.991 1027.53 140.336C1030.11 143.681 1033.58 147.027 1037.95 150.372C1042.59 153.717 1048.25 157.063 1054.94 160.408C1061.89 163.753 1070.25 167.356 1080.03 171.216C1091.87 176.105 1101.64 180.995 1109.36 185.884C1117.34 190.516 1123.52 195.534 1127.89 200.938C1132.52 206.085 1135.74 211.746 1137.54 217.922C1139.6 224.098 1140.63 230.917 1140.63 238.38C1140.63 249.445 1137.8 260.382 1132.14 271.19C1126.73 281.741 1118.11 290.49 1106.28 297.438C1094.44 304.386 1079.13 307.86 1060.34 307.86ZM1243.31 308.246C1236.36 308.246 1229.8 307.217 1223.62 305.158C1217.44 303.099 1211.78 300.011 1206.64 295.894C1201.75 291.519 1197.5 286.115 1193.9 279.682C1190.3 273.249 1187.46 265.529 1185.41 256.522C1183.6 247.515 1182.7 237.351 1182.7 226.028L1183.09 127.598H1210.11V226.028C1210.11 237.093 1211.14 246.486 1213.2 254.206C1215.26 261.926 1218.09 268.102 1221.69 272.734C1225.55 277.366 1229.92 280.711 1234.81 282.77C1239.7 284.829 1244.85 285.858 1250.25 285.858C1256.43 285.858 1262.35 284.7 1268.01 282.384C1273.67 279.811 1278.69 276.079 1283.06 271.19C1287.7 266.301 1291.3 259.996 1293.87 252.276C1296.45 244.556 1297.73 235.421 1297.73 224.87V127.598H1324.75V276.594C1324.75 281.226 1324.88 285.858 1325.14 290.49C1325.65 294.865 1326.81 299.368 1328.61 304H1301.98C1300.69 300.912 1299.79 297.953 1299.28 295.122C1298.76 292.034 1298.38 288.946 1298.12 285.858C1298.12 282.77 1298.12 279.811 1298.12 276.98C1295.29 281.869 1291.94 286.244 1288.08 290.104C1284.22 293.964 1279.85 297.309 1274.96 300.14C1270.33 302.713 1265.31 304.643 1259.9 305.93C1254.76 307.474 1249.22 308.246 1243.31 308.246ZM1389.6 304V281.612H1434.76V149.986H1391.92V127.598H1462.55V281.612H1503.86V304H1389.6ZM1447.11 90.542C1441.71 90.542 1437.08 88.612 1433.22 84.752C1429.36 80.892 1427.43 76.26 1427.43 70.856C1427.43 65.1947 1429.23 60.434 1432.83 56.574C1436.69 52.714 1441.45 50.784 1447.11 50.784C1452.52 50.784 1457.15 52.8427 1461.01 56.96C1465.13 60.82 1467.19 65.452 1467.19 70.856C1467.19 76.26 1465.13 80.892 1461.01 84.752C1457.15 88.612 1452.52 90.542 1447.11 90.542ZM1659.41 306.702C1648.09 306.702 1638.83 304.772 1631.62 300.912C1624.42 297.052 1618.88 291.133 1615.02 283.156C1611.16 274.921 1608.59 264.628 1607.3 252.276C1606.27 239.924 1606.02 225.256 1606.53 208.272L1611.16 82.436L1640.11 78.962L1643.97 78.576L1644.36 81.278C1643.07 83.0793 1641.92 84.8807 1640.89 86.682C1640.11 88.4833 1639.47 91.5713 1638.96 95.946L1635.48 139.564L1636.64 146.512L1633.94 210.202C1633.17 229.759 1633.68 244.942 1635.48 255.75C1637.28 266.301 1640.5 273.635 1645.13 277.752C1649.76 281.612 1655.94 283.542 1663.66 283.542C1672.15 283.542 1679.61 281.869 1686.05 278.524C1692.74 275.179 1699.69 270.933 1706.89 265.786L1715.38 287.788C1706.63 294.221 1697.63 298.982 1688.36 302.07C1679.1 305.158 1669.45 306.702 1659.41 306.702ZM1571.02 127.598H1698.01V150.372H1571.02V127.598ZM1841.99 307.86C1829.13 307.86 1817.42 305.93 1806.87 302.07C1796.32 297.953 1787.18 292.034 1779.46 284.314C1772 276.594 1766.21 267.073 1762.09 255.75C1757.97 244.17 1755.91 231.046 1755.91 216.378C1755.91 201.453 1757.97 188.2 1762.09 176.62C1766.46 165.04 1772.25 155.39 1779.46 147.67C1786.92 139.693 1795.54 133.645 1805.32 129.528C1815.36 125.411 1825.91 123.352 1836.97 123.352C1847.01 123.352 1856.4 125.025 1865.15 128.37C1873.9 131.715 1881.49 136.862 1887.93 143.81C1894.36 150.501 1899.38 159.121 1902.98 169.672C1906.84 180.223 1908.77 192.703 1908.77 207.114C1908.77 209.173 1908.64 211.36 1908.38 213.676C1908.38 215.735 1908.26 217.793 1908 219.852H1782.55C1783.06 231.175 1784.99 241.082 1788.34 249.574C1791.68 257.809 1796.06 264.628 1801.46 270.032C1806.87 275.179 1813.04 279.039 1819.99 281.612C1827.2 284.185 1834.79 285.472 1842.76 285.472C1848.94 285.472 1854.73 284.829 1860.13 283.542C1865.54 281.998 1870.56 279.811 1875.19 276.98C1880.08 273.892 1884.45 270.161 1888.31 265.786L1903.75 280.84C1898.86 286.759 1893.2 291.777 1886.77 295.894C1880.59 300.011 1873.77 302.971 1866.31 304.772C1858.85 306.831 1850.74 307.86 1841.99 307.86ZM1783.71 198.236H1880.59C1880.59 190.001 1879.43 182.667 1877.12 176.234C1875.06 169.543 1871.97 163.882 1867.85 159.25C1863.99 154.361 1859.23 150.758 1853.57 148.442C1848.17 145.869 1841.99 144.582 1835.04 144.582C1828.87 144.582 1822.95 145.611 1817.29 147.67C1811.88 149.729 1806.87 153.074 1802.23 157.706C1797.6 162.081 1793.61 167.613 1790.27 174.304C1787.18 180.995 1784.99 188.972 1783.71 198.236Z" fill="#FCF400"/>
</svg>
