<svg width="3121" height="1250" viewBox="0 0 3121 1250" fill="none" xmlns="http://www.w3.org/2000/svg">
<rect width="3121" height="1250" fill="#FCF400"/>
<path d="M626.266 754V731.226H673.744V536.296H628.968V513.522H748.242V536.296H700.764V731.612H750.558V754H626.266ZM815.792 754V577.598H842.812V608.864C847.444 601.659 852.848 595.483 859.024 590.336C865.2 584.932 872.019 580.815 879.482 577.984C886.945 574.896 894.665 573.352 902.642 573.352C912.421 573.352 921.17 575.797 928.89 580.686C936.61 585.575 942.786 593.424 947.418 604.232C952.05 615.04 954.366 629.322 954.366 647.078V754H927.346V647.85C927.346 635.498 925.931 625.719 923.1 618.514C920.269 611.051 916.409 605.776 911.52 602.688C906.631 599.343 901.098 597.67 894.922 597.67C889.003 597.67 882.956 598.957 876.78 601.53C870.861 604.103 865.329 607.835 860.182 612.724C855.035 617.356 850.789 623.017 847.444 629.708C844.356 636.399 842.812 643.99 842.812 652.482V754H815.792ZM1071.32 757.86C1062.32 757.86 1053.44 755.93 1044.69 752.07C1036.2 748.21 1028.35 742.42 1021.14 734.7C1014.2 726.98 1008.66 717.201 1004.55 705.364C1000.43 693.527 998.37 679.759 998.37 664.062C998.37 647.85 1000.56 634.083 1004.93 622.76C1009.31 611.18 1015.1 601.787 1022.3 594.582C1029.51 587.119 1037.48 581.715 1046.23 578.37C1054.98 574.767 1063.86 572.966 1072.87 572.966C1081.1 572.966 1088.44 574.253 1094.87 576.826C1101.56 579.399 1107.35 583.002 1112.24 587.634C1117.39 592.009 1121.38 597.284 1124.21 603.46V497.31H1149.68H1153.54V500.012C1152 501.556 1150.97 503.229 1150.45 505.03C1150.2 506.831 1150.07 509.919 1150.07 514.294L1150.45 726.594C1150.45 731.226 1150.58 735.858 1150.84 740.49C1151.35 744.865 1152.51 749.368 1154.31 754H1126.91C1125.62 750.912 1124.72 747.824 1124.21 744.736C1123.69 741.648 1123.31 738.689 1123.05 735.858C1123.05 732.77 1123.05 729.682 1123.05 726.594C1119.45 732.77 1115.07 738.303 1109.92 743.192C1104.78 747.824 1098.99 751.427 1092.55 754C1086.12 756.573 1079.04 757.86 1071.32 757.86ZM1075.57 733.542C1084.06 733.542 1091.27 731.869 1097.19 728.524C1103.1 724.921 1107.87 720.032 1111.47 713.856C1115.07 707.423 1117.64 700.089 1119.19 691.854C1120.99 683.362 1121.89 674.355 1121.89 664.834C1121.89 651.71 1120.22 640.001 1116.87 629.708C1113.53 619.157 1108.25 610.923 1101.05 605.004C1093.84 598.828 1084.58 595.74 1073.25 595.74C1065.53 595.74 1058.59 597.284 1052.41 600.372C1046.49 603.203 1041.47 607.449 1037.36 613.11C1033.5 618.771 1030.54 625.591 1028.48 633.568C1026.42 641.288 1025.39 650.037 1025.39 659.816C1025.39 674.484 1027.32 687.351 1031.18 698.416C1035.04 709.481 1040.7 718.102 1048.16 724.278C1055.63 730.454 1064.76 733.542 1075.57 733.542ZM1212.6 754V731.612H1257.76V599.986H1214.92V577.598H1285.55V731.612H1326.86V754H1212.6ZM1270.11 540.542C1264.71 540.542 1260.08 538.612 1256.22 534.752C1252.36 530.892 1250.43 526.26 1250.43 520.856C1250.43 515.195 1252.23 510.434 1255.83 506.574C1259.69 502.714 1264.45 500.784 1270.11 500.784C1275.52 500.784 1280.15 502.843 1284.01 506.96C1288.13 510.82 1290.19 515.452 1290.19 520.856C1290.19 526.26 1288.13 530.892 1284.01 534.752C1280.15 538.612 1275.52 540.542 1270.11 540.542ZM1471.99 757.86C1459.13 757.86 1447.42 755.93 1436.87 752.07C1426.32 747.953 1417.18 742.034 1409.46 734.314C1402 726.594 1396.21 717.073 1392.09 705.75C1387.97 694.17 1385.91 681.046 1385.91 666.378C1385.91 651.453 1387.97 638.2 1392.09 626.62C1396.46 615.04 1402.25 605.39 1409.46 597.67C1416.92 589.693 1425.54 583.645 1435.32 579.528C1445.36 575.411 1455.91 573.352 1466.97 573.352C1477.01 573.352 1486.4 575.025 1495.15 578.37C1503.9 581.715 1511.49 586.862 1517.93 593.81C1524.36 600.501 1529.38 609.121 1532.98 619.672C1536.84 630.223 1538.77 642.703 1538.77 657.114C1538.77 659.173 1538.64 661.36 1538.38 663.676C1538.38 665.735 1538.26 667.793 1538 669.852H1412.55C1413.06 681.175 1414.99 691.082 1418.34 699.574C1421.68 707.809 1426.06 714.628 1431.46 720.032C1436.87 725.179 1443.04 729.039 1449.99 731.612C1457.2 734.185 1464.79 735.472 1472.76 735.472C1478.94 735.472 1484.73 734.829 1490.13 733.542C1495.54 731.998 1500.56 729.811 1505.19 726.98C1510.08 723.892 1514.45 720.161 1518.31 715.786L1533.75 730.84C1528.86 736.759 1523.2 741.777 1516.77 745.894C1510.59 750.011 1503.77 752.971 1496.31 754.772C1488.85 756.831 1480.74 757.86 1471.99 757.86ZM1413.71 648.236H1510.59C1510.59 640.001 1509.43 632.667 1507.12 626.234C1505.06 619.543 1501.97 613.882 1497.85 609.25C1493.99 604.361 1489.23 600.758 1483.57 598.442C1478.17 595.869 1471.99 594.582 1465.04 594.582C1458.87 594.582 1452.95 595.611 1447.29 597.67C1441.88 599.729 1436.87 603.074 1432.23 607.706C1427.6 612.081 1423.61 617.613 1420.27 624.304C1417.18 630.995 1414.99 638.972 1413.71 648.236ZM1655.34 757.86C1639.64 757.86 1625.49 755.287 1612.88 750.14C1600.53 744.993 1589.59 737.402 1580.07 727.366L1593.97 703.048L1595.51 699.574L1598.21 701.118C1598.73 702.919 1599.37 704.978 1600.14 707.294C1600.92 709.353 1602.72 711.926 1605.55 715.014C1612.24 720.675 1619.96 725.179 1628.71 728.524C1637.71 731.869 1647.88 733.542 1659.2 733.542C1666.41 733.542 1672.97 732.513 1678.89 730.454C1685.06 728.138 1690.34 725.179 1694.71 721.576C1699.35 717.716 1702.82 713.341 1705.14 708.452C1707.71 703.305 1709 697.901 1709 692.24C1709 687.865 1708.48 683.877 1707.45 680.274C1706.68 676.671 1705.01 673.455 1702.43 670.624C1700.12 667.536 1696.9 664.577 1692.78 661.746C1688.67 658.658 1683.39 655.441 1676.96 652.096C1670.52 648.751 1662.8 645.148 1653.8 641.288C1637.07 634.855 1623.82 627.907 1614.04 620.444C1604.52 612.724 1597.7 604.618 1593.58 596.126C1589.72 587.634 1587.79 578.885 1587.79 569.878C1587.79 558.041 1590.75 547.747 1596.67 538.998C1602.59 529.991 1610.95 523.043 1621.76 518.154C1632.83 513.007 1645.95 510.434 1661.13 510.434C1669.88 510.434 1678.24 511.721 1686.22 514.294C1694.46 516.61 1702.05 519.955 1709 524.33C1716.2 528.705 1722.51 534.109 1727.91 540.542L1712.86 560.614L1710.54 563.702L1708.22 562.158C1707.97 560.099 1707.45 558.041 1706.68 555.982C1705.91 553.923 1704.11 551.35 1701.28 548.262C1695.1 542.343 1688.54 538.355 1681.59 536.296C1674.64 533.98 1666.41 532.822 1656.89 532.822C1650.45 532.822 1644.66 533.723 1639.52 535.524C1634.63 537.325 1630.38 539.899 1626.78 543.244C1623.18 546.589 1620.34 550.449 1618.29 554.824C1616.48 558.941 1615.58 563.316 1615.58 567.948C1615.58 572.323 1616.1 576.311 1617.13 579.914C1618.16 583.517 1619.96 586.991 1622.53 590.336C1625.11 593.681 1628.58 597.027 1632.95 600.372C1637.59 603.717 1643.25 607.063 1649.94 610.408C1656.89 613.753 1665.25 617.356 1675.03 621.216C1686.87 626.105 1696.64 630.995 1704.36 635.884C1712.34 640.516 1718.52 645.534 1722.89 650.938C1727.52 656.085 1730.74 661.746 1732.54 667.922C1734.6 674.098 1735.63 680.917 1735.63 688.38C1735.63 699.445 1732.8 710.382 1727.14 721.19C1721.73 731.741 1713.11 740.49 1701.28 747.438C1689.44 754.386 1674.13 757.86 1655.34 757.86ZM1838.31 758.246C1831.36 758.246 1824.8 757.217 1818.62 755.158C1812.44 753.099 1806.78 750.011 1801.64 745.894C1796.75 741.519 1792.5 736.115 1788.9 729.682C1785.3 723.249 1782.46 715.529 1780.41 706.522C1778.6 697.515 1777.7 687.351 1777.7 676.028L1778.09 577.598H1805.11V676.028C1805.11 687.093 1806.14 696.486 1808.2 704.206C1810.26 711.926 1813.09 718.102 1816.69 722.734C1820.55 727.366 1824.92 730.711 1829.81 732.77C1834.7 734.829 1839.85 735.858 1845.25 735.858C1851.43 735.858 1857.35 734.7 1863.01 732.384C1868.67 729.811 1873.69 726.079 1878.06 721.19C1882.7 716.301 1886.3 709.996 1888.87 702.276C1891.45 694.556 1892.73 685.421 1892.73 674.87V577.598H1919.75V726.594C1919.75 731.226 1919.88 735.858 1920.14 740.49C1920.65 744.865 1921.81 749.368 1923.61 754H1896.98C1895.69 750.912 1894.79 747.953 1894.28 745.122C1893.76 742.034 1893.38 738.946 1893.12 735.858C1893.12 732.77 1893.12 729.811 1893.12 726.98C1890.29 731.869 1886.94 736.244 1883.08 740.104C1879.22 743.964 1874.85 747.309 1869.96 750.14C1865.33 752.713 1860.31 754.643 1854.9 755.93C1849.76 757.474 1844.22 758.246 1838.31 758.246ZM1984.6 754V731.612H2029.76V599.986H1986.92V577.598H2057.55V731.612H2098.86V754H1984.6ZM2042.11 540.542C2036.71 540.542 2032.08 538.612 2028.22 534.752C2024.36 530.892 2022.43 526.26 2022.43 520.856C2022.43 515.195 2024.23 510.434 2027.83 506.574C2031.69 502.714 2036.45 500.784 2042.11 500.784C2047.52 500.784 2052.15 502.843 2056.01 506.96C2060.13 510.82 2062.19 515.452 2062.19 520.856C2062.19 526.26 2060.13 530.892 2056.01 534.752C2052.15 538.612 2047.52 540.542 2042.11 540.542ZM2254.41 756.702C2243.09 756.702 2233.83 754.772 2226.62 750.912C2219.42 747.052 2213.88 741.133 2210.02 733.156C2206.16 724.921 2203.59 714.628 2202.3 702.276C2201.27 689.924 2201.02 675.256 2201.53 658.272L2206.16 532.436L2235.11 528.962L2238.97 528.576L2239.36 531.278C2238.07 533.079 2236.92 534.881 2235.89 536.682C2235.11 538.483 2234.47 541.571 2233.96 545.946L2230.48 589.564L2231.64 596.512L2228.94 660.202C2228.17 679.759 2228.68 694.942 2230.48 705.75C2232.28 716.301 2235.5 723.635 2240.13 727.752C2244.76 731.612 2250.94 733.542 2258.66 733.542C2267.15 733.542 2274.61 731.869 2281.05 728.524C2287.74 725.179 2294.69 720.933 2301.89 715.786L2310.38 737.788C2301.63 744.221 2292.63 748.982 2283.36 752.07C2274.1 755.158 2264.45 756.702 2254.41 756.702ZM2166.02 577.598H2293.01V600.372H2166.02V577.598ZM2436.99 757.86C2424.13 757.86 2412.42 755.93 2401.87 752.07C2391.32 747.953 2382.18 742.034 2374.46 734.314C2367 726.594 2361.21 717.073 2357.09 705.75C2352.97 694.17 2350.91 681.046 2350.91 666.378C2350.91 651.453 2352.97 638.2 2357.09 626.62C2361.46 615.04 2367.25 605.39 2374.46 597.67C2381.92 589.693 2390.54 583.645 2400.32 579.528C2410.36 575.411 2420.91 573.352 2431.97 573.352C2442.01 573.352 2451.4 575.025 2460.15 578.37C2468.9 581.715 2476.49 586.862 2482.93 593.81C2489.36 600.501 2494.38 609.121 2497.98 619.672C2501.84 630.223 2503.77 642.703 2503.77 657.114C2503.77 659.173 2503.64 661.36 2503.38 663.676C2503.38 665.735 2503.26 667.793 2503 669.852H2377.55C2378.06 681.175 2379.99 691.082 2383.34 699.574C2386.68 707.809 2391.06 714.628 2396.46 720.032C2401.87 725.179 2408.04 729.039 2414.99 731.612C2422.2 734.185 2429.79 735.472 2437.76 735.472C2443.94 735.472 2449.73 734.829 2455.13 733.542C2460.54 731.998 2465.56 729.811 2470.19 726.98C2475.08 723.892 2479.45 720.161 2483.31 715.786L2498.75 730.84C2493.86 736.759 2488.2 741.777 2481.77 745.894C2475.59 750.011 2468.77 752.971 2461.31 754.772C2453.85 756.831 2445.74 757.86 2436.99 757.86ZM2378.71 648.236H2475.59C2475.59 640.001 2474.43 632.667 2472.12 626.234C2470.06 619.543 2466.97 613.882 2462.85 609.25C2458.99 604.361 2454.23 600.758 2448.57 598.442C2443.17 595.869 2436.99 594.582 2430.04 594.582C2423.87 594.582 2417.95 595.611 2412.29 597.67C2406.88 599.729 2401.87 603.074 2397.23 607.706C2392.6 612.081 2388.61 617.613 2385.27 624.304C2382.18 630.995 2379.99 638.972 2378.71 648.236Z" fill="black"/>
</svg>
