<svg width="1250" height="1250" viewBox="0 0 1250 1250" fill="none" xmlns="http://www.w3.org/2000/svg">
<rect width="1250" height="1250" fill="#FCF400"/>
<path d="M250.92 562V543.12H290.28V381.52H253.16V362.64H352.04V381.52H312.68V543.44H353.96V562H250.92ZM408.04 562V415.76H430.44V441.68C434.28 435.707 438.76 430.587 443.88 426.32C449 421.84 454.653 418.427 460.84 416.08C467.027 413.52 473.427 412.24 480.04 412.24C488.147 412.24 495.4 414.267 501.8 418.32C508.2 422.373 513.32 428.88 517.16 437.84C521 446.8 522.92 458.64 522.92 473.36V562H500.52V474C500.52 463.76 499.347 455.653 497 449.68C494.653 443.493 491.453 439.12 487.4 436.56C483.347 433.787 478.76 432.4 473.64 432.4C468.733 432.4 463.72 433.467 458.6 435.6C453.693 437.733 449.107 440.827 444.84 444.88C440.573 448.72 437.053 453.413 434.28 458.96C431.72 464.507 430.44 470.8 430.44 477.84V562H408.04ZM619.88 565.2C612.413 565.2 605.053 563.6 597.8 560.4C590.76 557.2 584.253 552.4 578.28 546C572.52 539.6 567.933 531.493 564.52 521.68C561.107 511.867 559.4 500.453 559.4 487.44C559.4 474 561.213 462.587 564.84 453.2C568.467 443.6 573.267 435.813 579.24 429.84C585.213 423.653 591.827 419.173 599.08 416.4C606.333 413.413 613.693 411.92 621.16 411.92C627.987 411.92 634.067 412.987 639.4 415.12C644.947 417.253 649.747 420.24 653.8 424.08C658.067 427.707 661.373 432.08 663.72 437.2V349.2H684.84H688.04V351.44C686.76 352.72 685.907 354.107 685.48 355.6C685.267 357.093 685.16 359.653 685.16 363.28L685.48 539.28C685.48 543.12 685.587 546.96 685.8 550.8C686.227 554.427 687.187 558.16 688.68 562H665.96C664.893 559.44 664.147 556.88 663.72 554.32C663.293 551.76 662.973 549.307 662.76 546.96C662.76 544.4 662.76 541.84 662.76 539.28C659.773 544.4 656.147 548.987 651.88 553.04C647.613 556.88 642.813 559.867 637.48 562C632.147 564.133 626.28 565.2 619.88 565.2ZM623.4 545.04C630.44 545.04 636.413 543.653 641.32 540.88C646.227 537.893 650.173 533.84 653.16 528.72C656.147 523.387 658.28 517.307 659.56 510.48C661.053 503.44 661.8 495.973 661.8 488.08C661.8 477.2 660.413 467.493 657.64 458.96C654.867 450.213 650.493 443.387 644.52 438.48C638.547 433.36 630.867 430.8 621.48 430.8C615.08 430.8 609.32 432.08 604.2 434.64C599.293 436.987 595.133 440.507 591.72 445.2C588.52 449.893 586.067 455.547 584.36 462.16C582.653 468.56 581.8 475.813 581.8 483.92C581.8 496.08 583.4 506.747 586.6 515.92C589.8 525.093 594.493 532.24 600.68 537.36C606.867 542.48 614.44 545.04 623.4 545.04ZM737 562V543.44H774.44V434.32H738.92V415.76H797.48V543.44H831.72V562H737ZM784.68 385.04C780.2 385.04 776.36 383.44 773.16 380.24C769.96 377.04 768.36 373.2 768.36 368.72C768.36 364.027 769.853 360.08 772.84 356.88C776.04 353.68 779.987 352.08 784.68 352.08C789.16 352.08 793 353.787 796.2 357.2C799.613 360.4 801.32 364.24 801.32 368.72C801.32 373.2 799.613 377.04 796.2 380.24C793 383.44 789.16 385.04 784.68 385.04ZM952.04 565.2C941.373 565.2 931.667 563.6 922.92 560.4C914.173 556.987 906.6 552.08 900.2 545.68C894.013 539.28 889.213 531.387 885.8 522C882.387 512.4 880.68 501.52 880.68 489.36C880.68 476.987 882.387 466 885.8 456.4C889.427 446.8 894.227 438.8 900.2 432.4C906.387 425.787 913.533 420.773 921.64 417.36C929.96 413.947 938.707 412.24 947.88 412.24C956.2 412.24 963.987 413.627 971.24 416.4C978.493 419.173 984.787 423.44 990.12 429.2C995.453 434.747 999.613 441.893 1002.6 450.64C1005.8 459.387 1007.4 469.733 1007.4 481.68C1007.4 483.387 1007.29 485.2 1007.08 487.12C1007.08 488.827 1006.97 490.533 1006.76 492.24H902.76C903.187 501.627 904.787 509.84 907.56 516.88C910.333 523.707 913.96 529.36 918.44 533.84C922.92 538.107 928.04 541.307 933.8 543.44C939.773 545.573 946.067 546.64 952.68 546.64C957.8 546.64 962.6 546.107 967.08 545.04C971.56 543.76 975.72 541.947 979.56 539.6C983.613 537.04 987.24 533.947 990.44 530.32L1003.24 542.8C999.187 547.707 994.493 551.867 989.16 555.28C984.04 558.693 978.387 561.147 972.2 562.64C966.013 564.347 959.293 565.2 952.04 565.2ZM903.72 474.32H984.04C984.04 467.493 983.08 461.413 981.16 456.08C979.453 450.533 976.893 445.84 973.48 442C970.28 437.947 966.333 434.96 961.64 433.04C957.16 430.907 952.04 429.84 946.28 429.84C941.16 429.84 936.253 430.693 931.56 432.4C927.08 434.107 922.92 436.88 919.08 440.72C915.24 444.347 911.933 448.933 909.16 454.48C906.6 460.027 904.787 466.64 903.72 474.32ZM304.04 905.2C291.027 905.2 279.293 903.067 268.84 898.8C258.6 894.533 249.533 888.24 241.64 879.92L253.16 859.76L254.44 856.88L256.68 858.16C257.107 859.653 257.64 861.36 258.28 863.28C258.92 864.987 260.413 867.12 262.76 869.68C268.307 874.373 274.707 878.107 281.96 880.88C289.427 883.653 297.853 885.04 307.24 885.04C313.213 885.04 318.653 884.187 323.56 882.48C328.68 880.56 333.053 878.107 336.68 875.12C340.52 871.92 343.4 868.293 345.32 864.24C347.453 859.973 348.52 855.493 348.52 850.8C348.52 847.173 348.093 843.867 347.24 840.88C346.6 837.893 345.213 835.227 343.08 832.88C341.16 830.32 338.493 827.867 335.08 825.52C331.667 822.96 327.293 820.293 321.96 817.52C316.627 814.747 310.227 811.76 302.76 808.56C288.893 803.227 277.907 797.467 269.8 791.28C261.907 784.88 256.253 778.16 252.84 771.12C249.64 764.08 248.04 756.827 248.04 749.36C248.04 739.547 250.493 731.013 255.4 723.76C260.307 716.293 267.24 710.533 276.2 706.48C285.373 702.213 296.253 700.08 308.84 700.08C316.093 700.08 323.027 701.147 329.64 703.28C336.467 705.2 342.76 707.973 348.52 711.6C354.493 715.227 359.72 719.707 364.2 725.04L351.72 741.68L349.8 744.24L347.88 742.96C347.667 741.253 347.24 739.547 346.6 737.84C345.96 736.133 344.467 734 342.12 731.44C337 726.533 331.56 723.227 325.8 721.52C320.04 719.6 313.213 718.64 305.32 718.64C299.987 718.64 295.187 719.387 290.92 720.88C286.867 722.373 283.347 724.507 280.36 727.28C277.373 730.053 275.027 733.253 273.32 736.88C271.827 740.293 271.08 743.92 271.08 747.76C271.08 751.387 271.507 754.693 272.36 757.68C273.213 760.667 274.707 763.547 276.84 766.32C278.973 769.093 281.853 771.867 285.48 774.64C289.32 777.413 294.013 780.187 299.56 782.96C305.32 785.733 312.253 788.72 320.36 791.92C330.173 795.973 338.28 800.027 344.68 804.08C351.293 807.92 356.413 812.08 360.04 816.56C363.88 820.827 366.547 825.52 368.04 830.64C369.747 835.76 370.6 841.413 370.6 847.6C370.6 856.773 368.253 865.84 363.56 874.8C359.08 883.547 351.933 890.8 342.12 896.56C332.307 902.32 319.613 905.2 304.04 905.2ZM455.72 905.52C449.96 905.52 444.52 904.667 439.4 902.96C434.28 901.253 429.587 898.693 425.32 895.28C421.267 891.653 417.747 887.173 414.76 881.84C411.773 876.507 409.427 870.107 407.72 862.64C406.227 855.173 405.48 846.747 405.48 837.36L405.8 755.76H428.2V837.36C428.2 846.533 429.053 854.32 430.76 860.72C432.467 867.12 434.813 872.24 437.8 876.08C441 879.92 444.627 882.693 448.68 884.4C452.733 886.107 457 886.96 461.48 886.96C466.6 886.96 471.507 886 476.2 884.08C480.893 881.947 485.053 878.853 488.68 874.8C492.52 870.747 495.507 865.52 497.64 859.12C499.773 852.72 500.84 845.147 500.84 836.4V755.76H523.24V879.28C523.24 883.12 523.347 886.96 523.56 890.8C523.987 894.427 524.947 898.16 526.44 902H504.36C503.293 899.44 502.547 896.987 502.12 894.64C501.693 892.08 501.373 889.52 501.16 886.96C501.16 884.4 501.16 881.947 501.16 879.6C498.813 883.653 496.04 887.28 492.84 890.48C489.64 893.68 486.013 896.453 481.96 898.8C478.12 900.933 473.96 902.533 469.48 903.6C465.213 904.88 460.627 905.52 455.72 905.52ZM577 902V883.44H614.44V774.32H578.92V755.76H637.48V883.44H671.72V902H577ZM624.68 725.04C620.2 725.04 616.36 723.44 613.16 720.24C609.96 717.04 608.36 713.2 608.36 708.72C608.36 704.027 609.853 700.08 612.84 696.88C616.04 693.68 619.987 692.08 624.68 692.08C629.16 692.08 633 693.787 636.2 697.2C639.613 700.4 641.32 704.24 641.32 708.72C641.32 713.2 639.613 717.04 636.2 720.24C633 723.44 629.16 725.04 624.68 725.04ZM800.68 904.24C791.293 904.24 783.613 902.64 777.64 899.44C771.667 896.24 767.08 891.333 763.88 884.72C760.68 877.893 758.547 869.36 757.48 859.12C756.627 848.88 756.413 836.72 756.84 822.64L760.68 718.32L784.68 715.44L787.88 715.12L788.2 717.36C787.133 718.853 786.173 720.347 785.32 721.84C784.68 723.333 784.147 725.893 783.72 729.52L780.84 765.68L781.8 771.44L779.56 824.24C778.92 840.453 779.347 853.04 780.84 862C782.333 870.747 785 876.827 788.84 880.24C792.68 883.44 797.8 885.04 804.2 885.04C811.24 885.04 817.427 883.653 822.76 880.88C828.307 878.107 834.067 874.587 840.04 870.32L847.08 888.56C839.827 893.893 832.36 897.84 824.68 900.4C817 902.96 809 904.24 800.68 904.24ZM727.4 755.76H832.68V774.64H727.4V755.76ZM952.04 905.2C941.373 905.2 931.667 903.6 922.92 900.4C914.173 896.987 906.6 892.08 900.2 885.68C894.013 879.28 889.213 871.387 885.8 862C882.387 852.4 880.68 841.52 880.68 829.36C880.68 816.987 882.387 806 885.8 796.4C889.427 786.8 894.227 778.8 900.2 772.4C906.387 765.787 913.533 760.773 921.64 757.36C929.96 753.947 938.707 752.24 947.88 752.24C956.2 752.24 963.987 753.627 971.24 756.4C978.493 759.173 984.787 763.44 990.12 769.2C995.453 774.747 999.613 781.893 1002.6 790.64C1005.8 799.387 1007.4 809.733 1007.4 821.68C1007.4 823.387 1007.29 825.2 1007.08 827.12C1007.08 828.827 1006.97 830.533 1006.76 832.24H902.76C903.187 841.627 904.787 849.84 907.56 856.88C910.333 863.707 913.96 869.36 918.44 873.84C922.92 878.107 928.04 881.307 933.8 883.44C939.773 885.573 946.067 886.64 952.68 886.64C957.8 886.64 962.6 886.107 967.08 885.04C971.56 883.76 975.72 881.947 979.56 879.6C983.613 877.04 987.24 873.947 990.44 870.32L1003.24 882.8C999.187 887.707 994.493 891.867 989.16 895.28C984.04 898.693 978.387 901.147 972.2 902.64C966.013 904.347 959.293 905.2 952.04 905.2ZM903.72 814.32H984.04C984.04 807.493 983.08 801.413 981.16 796.08C979.453 790.533 976.893 785.84 973.48 782C970.28 777.947 966.333 774.96 961.64 773.04C957.16 770.907 952.04 769.84 946.28 769.84C941.16 769.84 936.253 770.693 931.56 772.4C927.08 774.107 922.92 776.88 919.08 780.72C915.24 784.347 911.933 788.933 909.16 794.48C906.6 800.027 904.787 806.64 903.72 814.32Z" fill="black"/>
</svg>
