<svg xmlns="http://www.w3.org/2000/svg" viewBox="0 0 500 500"><g id="freepik--background-complete--inject-239"><path d="M386.13,92.63H319.71s6.58-18,16.72-18,13.31,12.42,13.31,12.42,6.83-6.75,12.45-6.75,10.5,8.92,10.5,8.92S380.63,84.43,386.13,92.63Z" style="fill:#ebebeb"></path><path d="M319.39,137.43h-31s6.94-10.05,12.4-10.05,7.08,6.7,7.08,6.7,3.86-3.12,7.43-2.56S319.39,137.43,319.39,137.43Z" style="fill:#ebebeb;opacity:0.5"></path><path d="M435.63,109.35h-31s6.94-10,12.4-10,7.08,6.7,7.08,6.7,3.86-3.13,7.43-2.57S435.63,109.35,435.63,109.35Z" style="fill:#ebebeb;opacity:0.5"></path><path d="M124.83,160.68H64.37S72.65,142.2,81.5,141s13.1,13.74,13.1,13.74,5.71-5.27,10.2-5.27,8,6.94,8,6.94S121.75,151.7,124.83,160.68Z" style="fill:#ebebeb"></path><path d="M133.67,87.75H92.83s7-13.39,14.63-13.59S119.07,84.3,119.07,84.3,130.91,74.8,133.67,87.75Z" style="fill:#ebebeb;opacity:0.5"></path><path d="M146.12,360.6s133.77-70.73,176.52-70.73c37.93,0,131,70.73,131,70.73H146.12" style="fill:#dbdbdb"></path><path d="M276.26,300.72c0,1.86,15.72.75,18.85,1.29s4.41,11.34,10.63,11,9.44-6.46,13.47-6,3,1.71,7,1.78,5.27-3.66,9.47-4.29,6.53,2.42,11.57,2.51,5.16-4.49,7.28-4.79,8.49,2.76,10.55,1.63-25.13-13.72-42.43-13.95S276.22,298.91,276.26,300.72Z" style="fill:#fff"></path><path d="M276.26,300.72c0,.28.3.4.52.5a3.7,3.7,0,0,0,.72.21c.5.1,1,.16,1.5.21,1,.09,2,.13,3,.16,2,0,4,0,6.05,0s4-.07,6.06,0a3.73,3.73,0,0,1,1.5.28,3.52,3.52,0,0,1,1.13,1,21.63,21.63,0,0,1,1.54,2.62,24.47,24.47,0,0,0,3.15,5.11,6.12,6.12,0,0,0,2.38,1.72,4.44,4.44,0,0,0,1.44.28,10.53,10.53,0,0,0,1.48-.11,13.34,13.34,0,0,0,5.41-2.45c1.66-1.11,3.16-2.53,5.12-3.27a5.67,5.67,0,0,1,3.08-.12,7.94,7.94,0,0,1,1.5.41c.48.19.93.46,1.37.66a7.25,7.25,0,0,0,2.87.53,5.56,5.56,0,0,0,2.8-.66c1.72-.91,3.14-2.5,5.13-3.24a7.8,7.8,0,0,1,3.06-.52,10,10,0,0,1,3,.64,25.79,25.79,0,0,0,5.7,1.8,8.54,8.54,0,0,0,2.9,0,4.6,4.6,0,0,0,2.44-1.37,27.64,27.64,0,0,0,1.84-2.36,2.42,2.42,0,0,1,1.45-.93,5.35,5.35,0,0,1,1.62.11c2,.41,3.92,1.1,5.87,1.49a11.94,11.94,0,0,0,1.44.22,3.09,3.09,0,0,0,1.34-.11l.14-.05s0,0,0,0,0,0,0,.07,0,.08-.07,0a2.7,2.7,0,0,0-.49-.44,13,13,0,0,0-1.22-.82,57.29,57.29,0,0,0-5.35-2.74c-3.66-1.67-7.41-3.14-11.22-4.46a116.42,116.42,0,0,0-11.59-3.38,62.39,62.39,0,0,0-11.92-1.7,75.73,75.73,0,0,0-12,.85c-4,.56-8,1.32-11.89,2.2s-7.84,1.9-11.71,3.06c-1.93.58-3.85,1.2-5.75,1.88-.94.35-1.89.71-2.81,1.11-.47.2-.93.4-1.37.64a6.24,6.24,0,0,0-.66.38C276.56,300.33,276.31,300.47,276.26,300.72Zm0,0c.05-.25.3-.4.49-.54s.43-.27.65-.39c.45-.24.9-.45,1.37-.66.92-.4,1.86-.77,2.81-1.12,1.89-.7,3.81-1.33,5.73-1.93,3.86-1.19,7.76-2.23,11.69-3.15s7.9-1.71,11.89-2.3a76.39,76.39,0,0,1,12.09-.94,62.38,62.38,0,0,1,12,1.61,118.13,118.13,0,0,1,11.66,3.31c3.84,1.29,7.61,2.74,11.31,4.39a58.79,58.79,0,0,1,5.44,2.73,15.37,15.37,0,0,1,1.3.86,3.24,3.24,0,0,1,.62.57.7.7,0,0,1,.17.7.45.45,0,0,1-.16.21.31.31,0,0,1-.15.09l-.21.09a3.79,3.79,0,0,1-1.65.17,11,11,0,0,1-1.54-.23c-2-.42-3.92-1.13-5.85-1.53a4.52,4.52,0,0,0-1.39-.12,1.75,1.75,0,0,0-1,.69c-.61.72-1.14,1.64-1.89,2.38a5.36,5.36,0,0,1-2.78,1.53,9,9,0,0,1-3.11,0,25.79,25.79,0,0,1-5.81-1.87,9.18,9.18,0,0,0-2.86-.63,7.16,7.16,0,0,0-2.86.46c-1.86.67-3.25,2.21-5.1,3.17a5.89,5.89,0,0,1-3,.69,7.45,7.45,0,0,1-3-.59c-.47-.22-.89-.48-1.35-.66a6.88,6.88,0,0,0-1.41-.4,5.25,5.25,0,0,0-2.89.09c-1.85.67-3.38,2.07-5.06,3.18a13.48,13.48,0,0,1-5.55,2.45,9.76,9.76,0,0,1-1.53.11,4.63,4.63,0,0,1-1.52-.31,6.39,6.39,0,0,1-2.46-1.8,24.57,24.57,0,0,1-3.15-5.18,19.26,19.26,0,0,0-1.51-2.61,3.29,3.29,0,0,0-1.06-1,3.62,3.62,0,0,0-1.44-.27c-2-.11-4-.08-6.05-.08s-4,0-6.05-.06c-1,0-2-.08-3-.18a12.61,12.61,0,0,1-1.5-.22,3.73,3.73,0,0,1-.72-.22C276.56,301.13,276.28,301,276.26,300.72Z" style="fill:#ebebeb"></path><path d="M47.08,360.6s61-38.7,94.67-38.7c25,0,172.44,38.7,172.44,38.7H47.08" style="fill:#ebebeb"></path><path d="M109.2,329.22c.33,2.36,4.76.07,8,.33s2.73,6.05,7.07,6.79c2.78.48,8.15-5,10.32-5.16s2.34,2,5.25,2.07,5.47-2.72,7-2.88,8.27,2.84,11.58,1.59,1.45-4.06,3.79-4.39,12.5.9,13.19,0-23.67-7.2-36.18-6.27S109,327.9,109.2,329.22Z" style="fill:#fff"></path><path d="M109.2,329.22a1.13,1.13,0,0,0,.6.89,2.39,2.39,0,0,0,1.09.18,14,14,0,0,0,2.22-.31,13.1,13.1,0,0,1,4.45-.39,3,3,0,0,1,1.73,1.37,20.9,20.9,0,0,1,1.1,2,6.05,6.05,0,0,0,3,3.14,4.46,4.46,0,0,0,1.08.25,3.08,3.08,0,0,0,1.08-.16,9.43,9.43,0,0,0,2-.94c1.29-.75,2.49-1.64,3.72-2.49a21.93,21.93,0,0,1,1.91-1.2,4.81,4.81,0,0,1,1.07-.44,2.76,2.76,0,0,1,1.18,0,6.19,6.19,0,0,1,2,1.17,3.93,3.93,0,0,0,2,.76,6.6,6.6,0,0,0,4.1-1.19c.64-.37,1.25-.79,1.91-1.18a4.6,4.6,0,0,1,1.08-.48,2.49,2.49,0,0,1,1.22,0c2.94.66,5.79,1.71,8.71,1.72a4.88,4.88,0,0,0,2.06-.39,2.91,2.91,0,0,0,1.49-1.31c.33-.59.34-1.32.73-2.12a1.69,1.69,0,0,1,1.07-.82,5.21,5.21,0,0,1,1.2-.14c3,0,6,.29,9,.35.74,0,1.48,0,2.2,0a3,3,0,0,0,.91-.17h0l0,0a.22.22,0,0,0-.05.16.27.27,0,0,0,0,.15h0l-.17-.11-.47-.22a41.52,41.52,0,0,0-4.22-1.35c-2.87-.79-5.78-1.47-8.71-2.07a117.48,117.48,0,0,0-17.7-2.5,46.74,46.74,0,0,0-8.92.46c-3,.39-5.9.93-8.82,1.58s-5.81,1.42-8.67,2.28c-1.43.44-2.86.9-4.26,1.41-.7.26-1.4.53-2.08.84-.34.15-.68.31-1,.49a3.88,3.88,0,0,0-.48.3C109.4,328.9,109.21,329,109.2,329.22Zm0,0c0-.2.19-.32.33-.43a3.38,3.38,0,0,1,.47-.3c.33-.19.66-.35,1-.51q1-.45,2.07-.84c1.4-.53,2.82-1,4.25-1.44,2.86-.89,5.75-1.66,8.66-2.33s5.85-1.28,8.82-1.72a47.09,47.09,0,0,1,9-.59,113.64,113.64,0,0,1,17.82,2.24c2.94.59,5.86,1.25,8.76,2a43.13,43.13,0,0,1,4.32,1.36c.18.08.36.16.55.26a1.72,1.72,0,0,1,.3.2l.1.11a.59.59,0,0,1,.09.29.63.63,0,0,1-.07.22l-.06.08a.47.47,0,0,1-.12.09,2.86,2.86,0,0,1-1.26.3,21.75,21.75,0,0,1-2.28,0c-3-.08-6-.4-8.94-.4-.75,0-1.43.06-1.69.59s-.35,1.38-.74,2.1a4.47,4.47,0,0,1-4.13,2c-3.1-.05-6-1.19-8.82-1.86a2.17,2.17,0,0,0-1-.06,4,4,0,0,0-1,.42c-.64.35-1.27.77-1.93,1.14a7,7,0,0,1-4.37,1.18,4.4,4.4,0,0,1-2.14-.85,5.72,5.72,0,0,0-1.83-1.15,2.49,2.49,0,0,0-1.05,0,4.27,4.27,0,0,0-1,.4,18.6,18.6,0,0,0-1.91,1.15c-1.24.83-2.46,1.7-3.77,2.44a9.53,9.53,0,0,1-2.06.92,3,3,0,0,1-1.12.15,3.68,3.68,0,0,1-1.1-.26,6.13,6.13,0,0,1-3-3.2,21.78,21.78,0,0,0-1.08-2,3,3,0,0,0-1.69-1.36,13.07,13.07,0,0,0-4.44.37,15,15,0,0,1-2.22.29,2.31,2.31,0,0,1-1.1-.19A1.11,1.11,0,0,1,109.2,329.22Z" style="fill:#ebebeb"></path></g><g id="freepik--Shadow--inject-239"><ellipse cx="250" cy="443.79" rx="153.5" ry="18.45" style="fill:#ebebeb"></ellipse></g><g id="freepik--Floor--inject-239"><polygon points="43.4 360.6 95.05 360.36 146.7 360.27 250 360.1 353.3 360.27 404.95 360.36 456.6 360.6 404.95 360.85 353.3 360.93 250 361.1 146.7 360.93 95.05 360.85 43.4 360.6" style="fill:#263238"></polygon></g><g id="freepik--Snow--inject-239"><path d="M382.48,270.05a4.09,4.09,0,0,1-1.2,7.19,2.83,2.83,0,0,1-1.65,0h0a4,4,0,0,1-3.89-5.2A4.33,4.33,0,0,1,382.48,270.05Z" style="fill:#fff"></path><path d="M382.48,270.05a4.26,4.26,0,0,1,1.52,2.14,4.25,4.25,0,0,1-1.7,4.83,3.13,3.13,0,0,1-.62.34,2.59,2.59,0,0,1-.67.26,3,3,0,0,1-1.47,0h.12a4,4,0,0,1-3.72-1.84,4.34,4.34,0,0,1-.35-4.1,4.21,4.21,0,0,1,3.1-2.47A4.65,4.65,0,0,1,382.48,270.05Zm0,0a4.32,4.32,0,0,0-3.75-.7,3.94,3.94,0,0,0-2.69,2.51,4,4,0,0,0,.5,3.51,3.53,3.53,0,0,0,3.06,1.57h.12a2.38,2.38,0,0,0,1.75-.09,2.66,2.66,0,0,0,.57-.25,3.88,3.88,0,0,0,1.89-4.4A4,4,0,0,0,382.48,270.05Z" style="fill:#c7c7c7"></path><path d="M294.63,196.21a4.09,4.09,0,0,1-1.2,7.19,2.75,2.75,0,0,1-1.65,0h0a4,4,0,0,1-3.89-5.19A4.34,4.34,0,0,1,294.63,196.21Z" style="fill:#fff"></path><path d="M294.63,196.21a4.33,4.33,0,0,1,1.52,2.15,4.21,4.21,0,0,1-1.7,4.83,3.74,3.74,0,0,1-.62.34,3.58,3.58,0,0,1-.67.26,2.93,2.93,0,0,1-1.47,0l.11,0a4,4,0,0,1-3.71-1.85,4.35,4.35,0,0,1-.35-4.09,4.24,4.24,0,0,1,3.1-2.48A4.72,4.72,0,0,1,294.63,196.21Zm0,0a4.27,4.27,0,0,0-3.75-.69,3.92,3.92,0,0,0-2.69,2.51,4,4,0,0,0,.5,3.51,3.53,3.53,0,0,0,3.07,1.57h.11a2.58,2.58,0,0,0,1.17.08,2.19,2.19,0,0,0,.59-.17,3.18,3.18,0,0,0,.57-.25,3.93,3.93,0,0,0,1.89-4.4A4.1,4.1,0,0,0,294.63,196.21Z" style="fill:#c7c7c7"></path><path d="M65.56,365.34c0,3.23-5,3.23-5,0S65.56,362.11,65.56,365.34Z" style="fill:#fff"></path><path d="M65.56,365.34a2.55,2.55,0,0,1-.69,1.79,2.8,2.8,0,0,1-1.82.82,2.87,2.87,0,0,1-2-.62,2.7,2.7,0,0,1,0-4,2.79,2.79,0,0,1,2-.62,2.74,2.74,0,0,1,1.81.81A2.55,2.55,0,0,1,65.56,365.34Zm0,0a2.24,2.24,0,0,0-.76-1.71,2.46,2.46,0,0,0-1.74-.52,2.43,2.43,0,0,0-1.57.72,2.16,2.16,0,0,0-.56,1.51,2.2,2.2,0,0,0,.56,1.52,2.43,2.43,0,0,0,1.56.72,2.48,2.48,0,0,0,1.75-.53A2.23,2.23,0,0,0,65.56,365.34Z" style="fill:#c7c7c7"></path><path d="M394.36,53.33a4.1,4.1,0,0,1,7.24.89,2.79,2.79,0,0,1,.12,1.65v0a4,4,0,0,1-5,4.11A4.34,4.34,0,0,1,394.36,53.33Z" style="fill:#fff"></path><path d="M394.36,53.33a4.48,4.48,0,0,1,2.08-1.61,4.27,4.27,0,0,1,2.67-.09,4.14,4.14,0,0,1,2.23,1.59,3.34,3.34,0,0,1,.37.6,3.29,3.29,0,0,1,.29.66,3,3,0,0,1,.05,1.47v-.11a4,4,0,0,1-1.68,3.78,4.31,4.31,0,0,1-4.07.53,4.24,4.24,0,0,1-2.61-3A4.7,4.7,0,0,1,394.36,53.33Zm0,0a4.28,4.28,0,0,0-.52,3.78,3.9,3.9,0,0,0,2.61,2.58,4,4,0,0,0,3.49-.65,3.54,3.54,0,0,0,1.44-3.14v-.11a2.57,2.57,0,0,0,0-1.17,3.23,3.23,0,0,0-.2-.57,2.93,2.93,0,0,0-.28-.56,3.87,3.87,0,0,0-4.47-1.7A4.07,4.07,0,0,0,394.36,53.33Z" style="fill:#c7c7c7"></path><path d="M413.69,154.9a4.1,4.1,0,0,1,7.24.88,2.78,2.78,0,0,1,.11,1.65.08.08,0,0,1,0,0,4,4,0,0,1-5,4.12A4.34,4.34,0,0,1,413.69,154.9Z" style="fill:#fff"></path><path d="M413.69,154.9a4.44,4.44,0,0,1,2.08-1.62,4.2,4.2,0,0,1,2.67-.08,4.13,4.13,0,0,1,2.23,1.58,3.34,3.34,0,0,1,.37.6,2.79,2.79,0,0,1,.28.66,2.82,2.82,0,0,1,.05,1.47v-.11a4,4,0,0,1-1.68,3.79,4.33,4.33,0,0,1-4.07.52,4.2,4.2,0,0,1-2.61-3A4.67,4.67,0,0,1,413.69,154.9Zm0,0a4.31,4.31,0,0,0-.53,3.78,3.92,3.92,0,0,0,2.62,2.57,4,4,0,0,0,3.49-.65,3.53,3.53,0,0,0,1.44-3.14v-.1a2.57,2.57,0,0,0,0-1.17,3.06,3.06,0,0,0-.2-.58,2.93,2.93,0,0,0-.28-.56,3.93,3.93,0,0,0-4.48-1.7A4.16,4.16,0,0,0,413.69,154.9Z" style="fill:#c7c7c7"></path><path d="M86.18,122.14a4.1,4.1,0,0,1,7.24.89,2.78,2.78,0,0,1,.11,1.65s0,0,0,0a4,4,0,0,1-5,4.11A4.34,4.34,0,0,1,86.18,122.14Z" style="fill:#fff"></path><path d="M86.18,122.14a4.37,4.37,0,0,1,2.08-1.61,4.27,4.27,0,0,1,2.67-.09A4.22,4.22,0,0,1,93.16,122a3.73,3.73,0,0,1,.37.6,3.06,3.06,0,0,1,.28.67,2.93,2.93,0,0,1,0,1.47v-.12a4,4,0,0,1-1.68,3.79,4.34,4.34,0,0,1-4.07.53,4.22,4.22,0,0,1-2.61-3A4.7,4.7,0,0,1,86.18,122.14Zm0,0a4.31,4.31,0,0,0-.53,3.78,4,4,0,0,0,2.62,2.58,4,4,0,0,0,3.49-.65,3.5,3.5,0,0,0,1.43-3.13v-.12a2.57,2.57,0,0,0,0-1.17,2.8,2.8,0,0,0-.19-.58,2.85,2.85,0,0,0-.28-.55,3.76,3.76,0,0,0-1.92-1.61,3.81,3.81,0,0,0-2.56-.09A4.08,4.08,0,0,0,86.18,122.14Z" style="fill:#c7c7c7"></path><path d="M435.48,69.19c3.22-.14,3.45,4.86.22,5S432.26,69.33,435.48,69.19Z" style="fill:#fff"></path><path d="M435.48,69.19a2.54,2.54,0,0,1,1.82.61,2.79,2.79,0,0,1,.9,1.78,2.82,2.82,0,0,1-.54,2,2.69,2.69,0,0,1-4,.17,2.81,2.81,0,0,1-.7-2,2.71,2.71,0,0,1,.74-1.85A2.49,2.49,0,0,1,435.48,69.19Zm0,0a2.23,2.23,0,0,0-1.67.83,2.44,2.44,0,0,0-.45,1.76,2.4,2.4,0,0,0,.79,1.53,2.18,2.18,0,0,0,1.54.51,2.14,2.14,0,0,0,1.48-.64,2.34,2.34,0,0,0,.65-1.59,2.44,2.44,0,0,0-.59-1.72A2.26,2.26,0,0,0,435.48,69.19Z" style="fill:#c7c7c7"></path><path d="M339,142.93c3.22-.14,3.45,4.87.22,5S335.78,143.07,339,142.93Z" style="fill:#fff"></path><path d="M339,142.93a2.58,2.58,0,0,1,1.82.61,2.88,2.88,0,0,1,.36,3.81,2.69,2.69,0,0,1-4,.17,2.81,2.81,0,0,1-.7-2,2.71,2.71,0,0,1,.74-1.85A2.54,2.54,0,0,1,339,142.93Zm0,0a2.26,2.26,0,0,0-1.67.83,2.46,2.46,0,0,0-.45,1.77,2.4,2.4,0,0,0,.79,1.53,2.3,2.3,0,0,0,3-.13,2.34,2.34,0,0,0,.65-1.59,2.43,2.43,0,0,0-.59-1.72A2.3,2.3,0,0,0,339,142.93Z" style="fill:#c7c7c7"></path><path d="M211.18,46.64c3.22-.14,3.44,4.87.21,5S208,46.78,211.18,46.64Z" style="fill:#fff"></path><path d="M211.18,46.64a2.53,2.53,0,0,1,1.81.61,2.76,2.76,0,0,1,.9,1.78,2.89,2.89,0,0,1-.53,2,2.65,2.65,0,0,1-2,1,2.6,2.6,0,0,1-2-.79,2.82,2.82,0,0,1-.71-2,2.76,2.76,0,0,1,.74-1.85A2.57,2.57,0,0,1,211.18,46.64Zm0,0a2.26,2.26,0,0,0-1.68.83,2.46,2.46,0,0,0-.44,1.77,2.39,2.39,0,0,0,.78,1.53,2.17,2.17,0,0,0,1.54.5,2.2,2.2,0,0,0,1.49-.63,2.39,2.39,0,0,0,.65-1.59,2.48,2.48,0,0,0-.6-1.72A2.28,2.28,0,0,0,211.18,46.64Z" style="fill:#c7c7c7"></path><path d="M155.68,163.23c3.22-.14,3.44,4.87.21,5S152.45,163.37,155.68,163.23Z" style="fill:#fff"></path><path d="M155.68,163.23a2.53,2.53,0,0,1,1.81.61,2.76,2.76,0,0,1,.9,1.78,2.9,2.9,0,0,1-.53,2,2.69,2.69,0,0,1-4,.17,2.84,2.84,0,0,1-.71-2,2.72,2.72,0,0,1,.74-1.86A2.56,2.56,0,0,1,155.68,163.23Zm0,0a2.26,2.26,0,0,0-1.68.83,2.46,2.46,0,0,0-.44,1.77,2.39,2.39,0,0,0,.78,1.53,2.17,2.17,0,0,0,1.54.5,2.2,2.2,0,0,0,1.49-.63,2.39,2.39,0,0,0,.65-1.59,2.52,2.52,0,0,0-.6-1.73A2.25,2.25,0,0,0,155.68,163.23Z" style="fill:#c7c7c7"></path><path d="M366.86,291.93c0,3.23-5,3.23-5,0S366.86,288.71,366.86,291.93Z" style="fill:#fff"></path><path d="M366.86,291.93a2.57,2.57,0,0,1-.68,1.79,2.73,2.73,0,0,1-1.82.82,2.85,2.85,0,0,1-2-.62,2.68,2.68,0,0,1,0-4,2.75,2.75,0,0,1,2-.62,2.73,2.73,0,0,1,1.82.82A2.52,2.52,0,0,1,366.86,291.93Zm0,0a2.28,2.28,0,0,0-.75-1.71,2.55,2.55,0,0,0-1.75-.52,2.38,2.38,0,0,0-1.56.72,2.14,2.14,0,0,0-.57,1.51,2.18,2.18,0,0,0,.56,1.52,2.43,2.43,0,0,0,1.57.72,2.46,2.46,0,0,0,1.74-.52A2.26,2.26,0,0,0,366.86,291.93Z" style="fill:#c7c7c7"></path><path d="M421.43,383.13c0,3.22-5,3.23-5,0S421.43,379.9,421.43,383.13Z" style="fill:#fff"></path><path d="M421.43,383.13a2.55,2.55,0,0,1-.69,1.79,2.9,2.9,0,0,1-3.82.19,2.7,2.7,0,0,1,0-4,2.87,2.87,0,0,1,2-.62,2.75,2.75,0,0,1,1.82.82A2.55,2.55,0,0,1,421.43,383.13Zm0,0a2.23,2.23,0,0,0-.76-1.71,2.53,2.53,0,0,0-3.31.19,2.26,2.26,0,0,0-.57,1.52,2.21,2.21,0,0,0,.57,1.51,2.4,2.4,0,0,0,1.56.72,2.47,2.47,0,0,0,1.75-.52A2.24,2.24,0,0,0,421.43,383.13Z" style="fill:#c7c7c7"></path><path d="M423.93,329.62c0,3.22-5,3.22-5,0S423.93,326.39,423.93,329.62Z" style="fill:#fff"></path><path d="M423.93,329.62a2.52,2.52,0,0,1-.68,1.78,2.73,2.73,0,0,1-1.82.82,2.8,2.8,0,0,1-2-.62,2.65,2.65,0,0,1-.88-2,2.62,2.62,0,0,1,.88-2,2.8,2.8,0,0,1,2-.62,2.73,2.73,0,0,1,1.82.82A2.52,2.52,0,0,1,423.93,329.62Zm0,0a2.29,2.29,0,0,0-.75-1.72,2.55,2.55,0,0,0-1.75-.52,2.38,2.38,0,0,0-1.56.72,2.16,2.16,0,0,0-.57,1.52,2.12,2.12,0,0,0,.57,1.51,2.38,2.38,0,0,0,1.56.72,2.5,2.5,0,0,0,1.75-.52A2.28,2.28,0,0,0,423.93,329.62Z" style="fill:#c7c7c7"></path><path d="M347.23,377.16c-.65-3.16,4.26-4.16,4.9-1S347.87,380.32,347.23,377.16Z" style="fill:#fff"></path><path d="M347.23,377.16a2.56,2.56,0,0,1,.31-1.89,2.8,2.8,0,0,1,1.62-1.16,2.85,2.85,0,0,1,2.08.2,2.7,2.7,0,0,1,.8,3.9,2.87,2.87,0,0,1-1.84,1,2.79,2.79,0,0,1-1.94-.44A2.54,2.54,0,0,1,347.23,377.16Zm0,0a2.26,2.26,0,0,0,1.08,1.53,2.5,2.5,0,0,0,1.82.16,2.41,2.41,0,0,0,1.38-1,2.17,2.17,0,0,0,.26-1.6,2.2,2.2,0,0,0-.86-1.37,2.51,2.51,0,0,0-3.28.47A2.24,2.24,0,0,0,347.23,377.16Z" style="fill:#c7c7c7"></path><path d="M63.11,170.88c-.65-3.16,4.26-4.17,4.9-1S63.75,174,63.11,170.88Z" style="fill:#fff"></path><path d="M63.11,170.88a2.56,2.56,0,0,1,.31-1.89,2.88,2.88,0,0,1,3.7-1,2.69,2.69,0,0,1,.8,3.89,2.82,2.82,0,0,1-1.84,1,2.72,2.72,0,0,1-1.94-.44A2.52,2.52,0,0,1,63.11,170.88Zm0,0a2.24,2.24,0,0,0,1.08,1.52,2.45,2.45,0,0,0,1.82.16,2.39,2.39,0,0,0,1.38-1,2.29,2.29,0,0,0-.6-3,2.36,2.36,0,0,0-1.68-.39,2.45,2.45,0,0,0-1.6.86A2.24,2.24,0,0,0,63.11,170.88Z" style="fill:#c7c7c7"></path><path d="M333.65,355.14a1.44,1.44,0,0,1,2.82-.57A1.44,1.44,0,0,1,333.65,355.14Z" style="fill:#fff"></path><path d="M333.65,355.14a1.57,1.57,0,0,1,1.09-1.83,1.76,1.76,0,0,1,1.29.08,1.64,1.64,0,0,1,.49,2.43,1.71,1.71,0,0,1-1.15.58A1.56,1.56,0,0,1,333.65,355.14Zm0,0a1.22,1.22,0,0,0,.63.86,1.39,1.39,0,0,0,1,0,1.28,1.28,0,0,0,.7-.58,1.18,1.18,0,0,0,.1-.81,1.2,1.2,0,0,0-.41-.7,1.26,1.26,0,0,0-.87-.26,1.31,1.31,0,0,0-.92.43A1.22,1.22,0,0,0,333.65,355.14Z" style="fill:#c7c7c7"></path><path d="M139.76,74.48a1.44,1.44,0,0,1,2.82-.57A1.44,1.44,0,0,1,139.76,74.48Z" style="fill:#fff"></path><path d="M139.76,74.48a1.57,1.57,0,0,1,1.1-1.83,1.73,1.73,0,0,1,1.28.08,1.63,1.63,0,0,1,.5,2.43,1.73,1.73,0,0,1-1.15.58A1.58,1.58,0,0,1,139.76,74.48Zm0,0a1.29,1.29,0,0,0,.64.86,1.36,1.36,0,0,0,1,0,1.26,1.26,0,0,0,.7-.59,1.15,1.15,0,0,0,.1-.8,1.18,1.18,0,0,0-.4-.7,1.23,1.23,0,0,0-.88-.26,1.34,1.34,0,0,0-.92.42A1.28,1.28,0,0,0,139.76,74.48Z" style="fill:#c7c7c7"></path><path d="M352.23,160.06a1.44,1.44,0,0,1,2.81-.58A1.44,1.44,0,0,1,352.23,160.06Z" style="fill:#fff"></path><path d="M352.23,160.06a1.56,1.56,0,0,1,1.09-1.83,1.69,1.69,0,0,1,1.28.08,1.63,1.63,0,0,1,.5,2.43,1.66,1.66,0,0,1-1.15.57A1.55,1.55,0,0,1,352.23,160.06Zm0,0a1.21,1.21,0,0,0,.63.85,1.36,1.36,0,0,0,1,0,1.23,1.23,0,0,0,.7-.59,1.1,1.1,0,0,0,.1-.8,1.13,1.13,0,0,0-.4-.7,1.29,1.29,0,0,0-.88-.27,1.39,1.39,0,0,0-.92.43A1.23,1.23,0,0,0,352.23,160.06Z" style="fill:#c7c7c7"></path><path d="M178.14,390.74a1.44,1.44,0,0,1,2.82-.57A1.44,1.44,0,0,1,178.14,390.74Z" style="fill:#fff"></path><path d="M178.14,390.74a1.57,1.57,0,0,1,1.09-1.83,1.76,1.76,0,0,1,1.29.08,1.64,1.64,0,0,1,.49,2.43,1.71,1.71,0,0,1-1.15.58A1.57,1.57,0,0,1,178.14,390.74Zm0,0a1.25,1.25,0,0,0,.63.86,1.39,1.39,0,0,0,1,0,1.32,1.32,0,0,0,.7-.58,1.18,1.18,0,0,0,.1-.81,1.17,1.17,0,0,0-1.28-1,1.31,1.31,0,0,0-.92.43A1.22,1.22,0,0,0,178.14,390.74Z" style="fill:#c7c7c7"></path><path d="M439.45,215.6a1.44,1.44,0,0,1-2.87,0A1.44,1.44,0,0,1,439.45,215.6Z" style="fill:#fff"></path><path d="M439.45,215.6a1.56,1.56,0,0,1-1.44,1.57,1.55,1.55,0,0,1-1.81-1.57,1.62,1.62,0,0,1,.57-1.24A1.69,1.69,0,0,1,438,214,1.57,1.57,0,0,1,439.45,215.6Zm0,0a1.26,1.26,0,0,0-.45-1,1.32,1.32,0,0,0-1-.23,1.24,1.24,0,0,0-.8.43,1.16,1.16,0,0,0-.26.77,1.18,1.18,0,0,0,.26.77,1.26,1.26,0,0,0,.8.43,1.37,1.37,0,0,0,1-.24A1.23,1.23,0,0,0,439.45,215.6Z" style="fill:#c7c7c7"></path><path d="M330.76,217.53a1.44,1.44,0,0,1-2.87,0A1.44,1.44,0,0,1,330.76,217.53Z" style="fill:#fff"></path><path d="M330.76,217.53a1.56,1.56,0,0,1-1.44,1.57,1.55,1.55,0,0,1-1.81-1.57,1.65,1.65,0,0,1,.57-1.24,1.7,1.7,0,0,1,1.25-.34A1.56,1.56,0,0,1,330.76,217.53Zm0,0a1.25,1.25,0,0,0-.45-1,1.3,1.3,0,0,0-1-.23,1.24,1.24,0,0,0-.81.43,1.14,1.14,0,0,0-.26.77,1.18,1.18,0,0,0,.26.77,1.28,1.28,0,0,0,.8.43,1.37,1.37,0,0,0,1-.24A1.24,1.24,0,0,0,330.76,217.53Z" style="fill:#c7c7c7"></path><path d="M235.67,123.8a1.44,1.44,0,0,1-2.87,0A1.44,1.44,0,0,1,235.67,123.8Z" style="fill:#fff"></path><path d="M235.67,123.8a1.56,1.56,0,0,1-1.43,1.57A1.71,1.71,0,0,1,233,125a1.63,1.63,0,0,1,0-2.48,1.71,1.71,0,0,1,1.25-.34A1.57,1.57,0,0,1,235.67,123.8Zm0,0a1.26,1.26,0,0,0-.45-1,1.4,1.4,0,0,0-1-.23,1.21,1.21,0,0,0,0,2.4,1.35,1.35,0,0,0,1-.24A1.23,1.23,0,0,0,235.67,123.8Z" style="fill:#c7c7c7"></path><path d="M141.24,226.17a4.1,4.1,0,0,1,6.84-2.54,2.72,2.72,0,0,1,.85,1.42l0,0a4,4,0,0,1-2.57,6A4.35,4.35,0,0,1,141.24,226.17Z" style="fill:#fff"></path><path d="M141.24,226.17a4.37,4.37,0,0,1,1.11-2.39,4.21,4.21,0,0,1,2.32-1.3,4.12,4.12,0,0,1,2.71.38,4.37,4.37,0,0,1,1.16.82,2.92,2.92,0,0,1,.72,1.28l0-.1a4,4,0,0,1,.25,4.14,4.39,4.39,0,0,1-3.38,2.34,4.22,4.22,0,0,1-3.69-1.47A4.63,4.63,0,0,1,141.24,226.17Zm0,0a4.27,4.27,0,0,0,1.27,3.6,3.89,3.89,0,0,0,3.5,1.08,4,4,0,0,0,2.8-2.18,3.52,3.52,0,0,0-.16-3.44l0,0v-.05a2.71,2.71,0,0,0-.51-1,3,3,0,0,0-.44-.43,3,3,0,0,0-.51-.36,3.89,3.89,0,0,0-4.75.54A4.08,4.08,0,0,0,141.24,226.17Z" style="fill:#c7c7c7"></path><path d="M100.9,324.93a4.09,4.09,0,0,1,6.83-2.54,2.78,2.78,0,0,1,.86,1.42l0,0a4,4,0,0,1-2.57,6A4.34,4.34,0,0,1,100.9,324.93Z" style="fill:#fff"></path><path d="M100.9,324.93a4.43,4.43,0,0,1,1.1-2.39,4.24,4.24,0,0,1,2.33-1.3,4.13,4.13,0,0,1,2.71.38,3.29,3.29,0,0,1,.6.36,3.51,3.51,0,0,1,.56.46,3,3,0,0,1,.72,1.28l0-.09a4,4,0,0,1,.24,4.13,4.37,4.37,0,0,1-3.37,2.34,4.27,4.27,0,0,1-3.7-1.46A4.69,4.69,0,0,1,100.9,324.93Zm0,0a4.29,4.29,0,0,0,1.26,3.6,3.91,3.91,0,0,0,3.51,1.08,4,4,0,0,0,2.8-2.18,3.49,3.49,0,0,0-.17-3.44l0-.05v-.05a2.45,2.45,0,0,0-.51-1.05,2.57,2.57,0,0,0-.44-.43,2.54,2.54,0,0,0-.5-.36,3.77,3.77,0,0,0-2.44-.55,3.84,3.84,0,0,0-2.32,1.09A4.07,4.07,0,0,0,100.9,324.93Z" style="fill:#c7c7c7"></path><path d="M240.28,256.06c2.8-1.61,5.29,2.74,2.49,4.34S237.48,257.66,240.28,256.06Z" style="fill:#fff"></path><path d="M240.28,256.06a2.5,2.5,0,0,1,1.89-.3,2.84,2.84,0,0,1,1.62,1.17,2.81,2.81,0,0,1,.45,2.05,2.67,2.67,0,0,1-3.44,2,2.86,2.86,0,0,1-1.73-3.41A2.55,2.55,0,0,1,240.28,256.06Zm0,0a2.25,2.25,0,0,0-1.11,1.51,2.52,2.52,0,0,0,1.82,2.77,2.31,2.31,0,0,0,2.63-1.51,2.33,2.33,0,0,0-.16-1.71,2.47,2.47,0,0,0-1.32-1.26A2.22,2.22,0,0,0,240.28,256.06Z" style="fill:#c7c7c7"></path><path d="M287,278.69a1.44,1.44,0,0,1,1.43,2.5A1.44,1.44,0,0,1,287,278.69Z" style="fill:#fff"></path><path d="M287,278.69a1.57,1.57,0,0,1,2.08.47,1.7,1.7,0,0,1,.33,1.24,1.65,1.65,0,0,1-.79,1.11,1.62,1.62,0,0,1-1.36.13,1.71,1.71,0,0,1-.91-.92A1.57,1.57,0,0,1,287,278.69Zm0,0a1.23,1.23,0,0,0-.61.87,1.36,1.36,0,0,0,.28,1,1.34,1.34,0,0,0,.78.48,1.12,1.12,0,0,0,.79-.16,1.16,1.16,0,0,0,.54-.6,1.27,1.27,0,0,0,0-.92,1.4,1.4,0,0,0-.7-.74A1.28,1.28,0,0,0,287,278.69Z" style="fill:#c7c7c7"></path><path d="M165.82,223.78a1.89,1.89,0,0,1,1.88,3.27A1.89,1.89,0,0,1,165.82,223.78Z" style="fill:#fff"></path><path d="M165.82,223.78a2,2,0,0,1,1.43-.23,2.11,2.11,0,0,1,1.25.87,2.15,2.15,0,0,1,.38,1.58,2.06,2.06,0,0,1-2.69,1.54,2.18,2.18,0,0,1-1.17-1.12,2.12,2.12,0,0,1-.12-1.52A2,2,0,0,1,165.82,223.78Zm0,0a1.67,1.67,0,0,0-.82,1.14,1.84,1.84,0,0,0,.35,1.31,1.69,1.69,0,0,0,1,.69,1.56,1.56,0,0,0,1.13-.19,1.66,1.66,0,0,0,.75-.88,1.73,1.73,0,0,0-.08-1.24,1.87,1.87,0,0,0-1-1A1.68,1.68,0,0,0,165.82,223.78Z" style="fill:#c7c7c7"></path><path d="M133.33,315a1.89,1.89,0,0,1,1.88,3.27A1.89,1.89,0,0,1,133.33,315Z" style="fill:#fff"></path><path d="M133.33,315a2,2,0,0,1,1.43-.23,2.08,2.08,0,0,1,1.25.87,2.17,2.17,0,0,1,.38,1.58,2.06,2.06,0,0,1-2.69,1.54,2.18,2.18,0,0,1-1.17-1.12,2.12,2.12,0,0,1-.12-1.52A2,2,0,0,1,133.33,315Zm0,0a1.72,1.72,0,0,0-.82,1.14,1.84,1.84,0,0,0,.35,1.31,1.75,1.75,0,0,0,1,.7A1.61,1.61,0,0,0,135,318a1.66,1.66,0,0,0,.75-.88,1.73,1.73,0,0,0-.08-1.24,1.87,1.87,0,0,0-1-1A1.68,1.68,0,0,0,133.33,315Z" style="fill:#c7c7c7"></path><path d="M313.68,74.19a1.89,1.89,0,0,1-3.77,0A1.89,1.89,0,0,1,313.68,74.19Z" style="fill:#fff"></path><path d="M313.68,74.19a2,2,0,0,1-.51,1.36,2.22,2.22,0,0,1-2.93.2,2,2,0,0,1-.7-1.56,2,2,0,0,1,.7-1.55,2.14,2.14,0,0,1,1.56-.45,2,2,0,0,1,1.37.65A2,2,0,0,1,313.68,74.19Zm0,0a1.64,1.64,0,0,0-.58-1.27,1.82,1.82,0,0,0-1.3-.36,1.79,1.79,0,0,0-1.12.55,1.56,1.56,0,0,0-.39,1.08,1.59,1.59,0,0,0,.38,1.08,1.77,1.77,0,0,0,1.12.56,1.83,1.83,0,0,0,1.31-.36A1.66,1.66,0,0,0,313.68,74.19Z" style="fill:#c7c7c7"></path><path d="M111.1,263.78a1.89,1.89,0,0,1-3.77,0A1.89,1.89,0,0,1,111.1,263.78Z" style="fill:#fff"></path><path d="M111.1,263.78a2,2,0,0,1-.51,1.36,2.14,2.14,0,0,1-1.37.65,2.19,2.19,0,0,1-1.56-.45,2.05,2.05,0,0,1-.7-1.56,2,2,0,0,1,.7-1.55,2.14,2.14,0,0,1,1.56-.45,2,2,0,0,1,1.37.65A2,2,0,0,1,111.1,263.78Zm0,0a1.64,1.64,0,0,0-.58-1.27,1.82,1.82,0,0,0-1.3-.36,1.79,1.79,0,0,0-1.12.55,1.56,1.56,0,0,0-.39,1.08,1.55,1.55,0,0,0,.39,1.08,1.73,1.73,0,0,0,1.12.56,1.82,1.82,0,0,0,1.3-.36A1.66,1.66,0,0,0,111.1,263.78Z" style="fill:#c7c7c7"></path><path d="M322.27,199.14a1.89,1.89,0,0,1-3.77,0A1.89,1.89,0,0,1,322.27,199.14Z" style="fill:#fff"></path><path d="M322.27,199.14a2,2,0,0,1-.51,1.36,2.22,2.22,0,0,1-2.94.19,2.07,2.07,0,0,1,0-3.1,2.22,2.22,0,0,1,1.56-.46,2.13,2.13,0,0,1,1.38.66A2,2,0,0,1,322.27,199.14Zm0,0a1.7,1.7,0,0,0-.58-1.28,1.88,1.88,0,0,0-1.31-.35,1.74,1.74,0,0,0-1.12.55,1.66,1.66,0,0,0-.39,1.08,1.64,1.64,0,0,0,.39,1.08,1.69,1.69,0,0,0,1.12.55,1.79,1.79,0,0,0,1.31-.35A1.7,1.7,0,0,0,322.27,199.14Z" style="fill:#c7c7c7"></path></g><g id="freepik--Plants--inject-239"><path d="M313,405.74c3.47,1,7.34,2.23,10.83.7,3.22-1.41,6.42-3.92,7-7.61.16-1.05.09-1.74-1.12-1.59-1.85.24-3.61,1.75-5.11,2.75a36.5,36.5,0,0,1-6.05,3.37c-1.5.63-3.05,1.11-4.57,1.71-.19.08-.38.15-.56.24l-.22.08-.1,0a.19.19,0,0,0-.17,0l0,0A.19.19,0,0,0,313,405.74Z" style="fill:#263238"></path><path d="M312.89,405.46c3.1.74,6.39,1.74,9.4.28a14.94,14.94,0,0,0,3.76-2.74c.51-.49,2-1.95,1.75-2.75-.48-1.45-5.46,2.68-6.09,3a15.53,15.53,0,0,1-7.73,1.78c-.19.08-.38.15-.56.24a17.78,17.78,0,0,0,5.62-.65c2.52-.75,4.24-2.37,6.41-3.73.47-.29,1.93-1.32,2.14-.39.14.61-1.33,2-1.65,2.34a14.27,14.27,0,0,1-3.56,2.61c-3,1.52-6.3.59-9.45-.08Z" style="fill:#fff"></path><path d="M310.52,407.38c0,.15,0,.29,0,.43h0a.09.09,0,0,0,.05.09.14.14,0,0,0,.2,0,.11.11,0,0,0,0-.08v-.19h0l0,0c1.22-2.16,2.08-4.51,3.34-6.67s2.53-4,3.56-6.18c.65-1.35,3.48-8.26.1-8.18-1.5,0-3,1.82-3.82,2.89a15.29,15.29,0,0,0-2.49,4.85C310.13,398.59,310.71,403,310.52,407.38Z" style="fill:#263238"></path><path d="M310.67,406.85l-.15.53v.08c0,.12,0,.23,0,.35h0l.09-.31c0,.13,0,.27,0,.4a.14.14,0,0,0,.2,0c0-.05,0-.1,0-.14s0-.12,0-.18,0-.35.07-.52.05-.43.07-.63a68.72,68.72,0,0,1,3.62-9.27,15.59,15.59,0,0,0,1.85-4.61c.05-.39.24-1.55-.32-1.74-.88-.29-2.24,2.17-2.52,2.68a17.61,17.61,0,0,0-1.76,4.73A73.44,73.44,0,0,0,310.67,406.85Zm.93-6.32a25.25,25.25,0,0,1,1-4.47c.46-1.31,1.27-3.56,2.45-4.42,1.63-1.17,1.1,1.27.9,1.91A16.35,16.35,0,0,1,315,396c-.7,1.4-1.36,2.81-2,4.26-.75,1.79-1.41,3.62-2,5.47C311.19,404,311.34,402.25,311.6,400.53Z" style="fill:#fff"></path><path d="M306.15,416.53h0l.12.05c3.25.66,7.45,2.06,10.66.62,2.38-1.06,5.11-3.66,5.17-6.45.05-3.15-4.87-.62-6.15,0a99.38,99.38,0,0,0-9.83,5.63l-.05,0h0C306,416.45,306.09,416.49,306.15,416.53Z" style="fill:#263238"></path><path d="M306.15,416.53h0l.07,0h.36c2.59,0,5.26.35,7.74-.43a10,10,0,0,0,3-1.55c.51-.38,2.06-1.49,1.92-2.27-.25-1.29-4.69,1-5.29,1.25-2.36,1-4.79,1.9-7.24,2.69l-.64.21S306.09,416.49,306.15,416.53Zm.52-.16c1.81-.57,3.61-1.2,5.38-1.9,1.09-.43,2.15-.88,3.22-1.36a19.64,19.64,0,0,1,1.83-.77,6.94,6.94,0,0,1,.78-.22c.58-.12.86-.28,1,.21.3.91-2.09,2.35-2.76,2.72a10.53,10.53,0,0,1-3.25,1.16A47.72,47.72,0,0,1,306.67,416.37Z" style="fill:#fff"></path><path d="M302,408.41a19.68,19.68,0,0,0,3,11l.05.05a.15.15,0,0,0,.18,0,.14.14,0,0,0,0-.19,2.12,2.12,0,0,0-.12-.2c.59-4.5,1.12-9,1.8-13.48.16-1.06,1-7.83-1.25-7.28-1.42.34-2.19,3-2.61,4.19A19.87,19.87,0,0,0,302,408.41Z" style="fill:#263238"></path><path d="M303.49,407.4a21,21,0,0,0-.17,4.55,23,23,0,0,0,1.58,7h0c.05.14.11.29.17.42v.1a.14.14,0,0,0,.18,0c0-.1-.08-.21-.13-.31,0-.31,0-.62,0-.93,0-3.66.07-7.26.44-10.92.09-.89.57-4.05-.09-4.74-.34-.36-.63,0-.83.3A12.64,12.64,0,0,0,303.49,407.4Zm.79-2.78c.07-.25.19-.73.29-1s.32-1,.71-.61.27,2.11.24,2.72c-.07,1.44-.28,2.86-.4,4.3a65.32,65.32,0,0,0-.09,8.51c0,.13,0,.25,0,.38a1.67,1.67,0,0,1-.08-.2A22.9,22.9,0,0,1,304.28,404.62Z" style="fill:#fff"></path><path d="M302.07,428.7l.64.16.48-1.68c.66-2.26,1.34-4.51,2.06-6.76.41-1.28.83-2.54,1.3-3.79,0,0,0-.08,0-.12a2.85,2.85,0,0,0,.12-.31l.13-.33a28.63,28.63,0,0,1,4.36-7.81c.64-.78,1.3-1.53,2-2.27l.2-.21s0,0,.06-.05a2.09,2.09,0,0,1,.2-.22l.16-.17c2.16-2.23,4.5-4.29,6.75-6.39.65-.6,1.3-1.2,1.94-1.81a.57.57,0,0,0,.11-.11l.15-.13c2.84-2.67,5.66-5.38,8.56-8,.12-.1-.05-.25-.15-.15-2,1.71-3.95,3.38-5.94,5.06l-.79.67-1.57,1.33q-1.56,1.33-3.09,2.7a97.64,97.64,0,0,0-8.36,8c-.19.22-.38.44-.56.67a4.35,4.35,0,0,0-.34.41c-.14.16-.26.32-.39.49a30.43,30.43,0,0,0-4.76,9.55c-.08.24-.16.48-.23.72s-.08.22-.11.33l-.06.18c0,.07,0,.15-.07.23h0c0,.06,0,.12,0,.18s-.12.41-.19.62c-.68,2.25-1.32,4.52-2,6.78Q302.4,427.62,302.07,428.7Z" style="fill:#263238"></path><path d="M331.84,392.33c2.37-1.91,5.87-6.21,3.93-9.41a2.85,2.85,0,0,0-3.6-1.21c-1.62.64-2.71,2.35-3.56,3.78-2.24,3.83-4.11,7.84-6.64,11.51,0,0-.21.32-.27.39s.07.15.13.08l.24-.36C325.39,395.8,329,394.6,331.84,392.33Z" style="fill:#263238"></path><path d="M321.92,397.07a.1.1,0,0,0,.12.09l0,0,.06-.06.09-.09.37-.16a20.53,20.53,0,0,0,7.4-4.59,11.19,11.19,0,0,0,2.39-3.72c.34-.87.76-2.13.3-3-1.11-2.13-3.49,1.89-4,2.7a60.72,60.72,0,0,1-4.26,6.12,30.15,30.15,0,0,1-2.43,2.63s0,.05-.06.06S321.92,397,321.92,397.07Zm.42-.18a31.67,31.67,0,0,0,2.89-3.25c.52-.66,1-1.35,1.49-2,.7-1,1.37-2.08,2-3.13A21,21,0,0,1,330,386.6a7.78,7.78,0,0,1,.59-.68c.62-.64.94-1,1.56-.68s.62,1.3.42,2.19a6.53,6.53,0,0,1-.38,1.21,10.55,10.55,0,0,1-.76,1.5A12.72,12.72,0,0,1,329,393a23.84,23.84,0,0,1-6.22,3.69Z" style="fill:#fff"></path><path d="M174.58,379.8c1.5,3.24,3.21,6.38,5,9.5,1,1.76,2,3.52,3,5.29,1.09,2,2.38,3.88,2.49,6.17h0a2.06,2.06,0,0,0,.07.29s0,0,0,0a.26.26,0,0,0,.41-.21c0-.06,0-.11,0-.16a.08.08,0,0,0,0-.05,8.66,8.66,0,0,0,.17-2,46.6,46.6,0,0,0,.12-5.42,44.52,44.52,0,0,0-1.68-10.94,37.51,37.51,0,0,0-4-9.08c-1.39-2.26-3.41-5.65-5.84-6.94-2.2-1.17-2.71,2-2.75,3.52C171.5,373.29,173.17,376.72,174.58,379.8Z" style="fill:#455a64"></path><path d="M180,386.69c1.79,3.85,3.7,7.8,4.65,11.95.09.38.17.76.24,1.15s.16.86.21,1.3a.27.27,0,0,0,.42-.22c0-.05,0-.1,0-.14a.14.14,0,0,0,0-.06c0-.21,0-.43,0-.64a46.3,46.3,0,0,0-2.15-15.54,35.9,35.9,0,0,0-3.69-7.95c-1-1.58-3.16-5.28-4.39-4.88C173.69,372.19,177.91,382.17,180,386.69Zm1.24,2c-1.18-2.57-2.41-5.11-3.5-7.72-.5-1.2-1-2.41-1.39-3.64-.2-.61-.4-1.21-.55-1.82,0-.06-.85-3.1-.35-3.39.71-.41,2.66,2.64,3,3.11a37.31,37.31,0,0,1,2.2,3.58,38,38,0,0,1,2.91,7.26,51.73,51.73,0,0,1,1.82,13.73c0,.43,0,.86,0,1.3q-.1-.85-.27-1.71A49.31,49.31,0,0,0,181.25,388.66Z" style="fill:#fff"></path><path d="M158.16,395.32c3.67,3.69,8.56,5.86,13.42,7.5,2.6.87,5.25,1.63,7.87,2.44a36.91,36.91,0,0,1,6.92,2.51,2,2,0,0,1,.28.16,9.6,9.6,0,0,1,1.66,1.22.16.16,0,0,0,.13,0l.14.18s.1,0,.08-.05l-.1-.21v0a.13.13,0,0,0,0-.17s0,0-.06-.06a2,2,0,0,0-.1-.21c-2.29-4.95-7.56-9-11.88-12s-9.2-5.31-14.49-5.62c-1.33-.08-4.42-.47-5.32.87S157.38,394.54,158.16,395.32Z" style="fill:#455a64"></path><path d="M165.28,398a51.15,51.15,0,0,0,8.54,4.26,105.62,105.62,0,0,1,12.55,5.52,2,2,0,0,1,.28.16c.57.32,1.14.66,1.69,1l.21.13a.13.13,0,0,0,0-.17.17.17,0,0,0-.06-.06,2,2,0,0,0-.1-.21l-.15-.11h0A49.25,49.25,0,0,0,176,399.1a54.92,54.92,0,0,0-8.58-4.28c-1-.37-5-2-5.73-.59C161,395.42,164.6,397.55,165.28,398Zm-2.35-3.93a10.93,10.93,0,0,1,2.56.48,27.94,27.94,0,0,1,4,1.55,71.37,71.37,0,0,1,7.06,3.77,52.51,52.51,0,0,1,11.2,8.42,56,56,0,0,0-9.7-4.7c-5-2-10.62-3.73-14.7-7.31C162.7,395.66,161.29,394.09,162.93,394.06Z" style="fill:#fff"></path><path d="M192.38,419.43a.34.34,0,0,0,.28.06.36.36,0,0,0,0,.09c0,.06,0,.1,0,.11a.08.08,0,0,0,.11,0c2.83-5.59,5.21-12,5.49-18.34a24.49,24.49,0,0,0-.88-7.9c-.5-1.75-1.53-5.28-3.41-6.07-3.81-1.59-3.09,10.07-3,11.83.2,3.2.68,6.37,1,9.57.29,3.5.32,7,.36,10.52A.24.24,0,0,0,192.38,419.43Z" style="fill:#455a64"></path><path d="M192.65,419.49a.24.24,0,0,1,0,.09.08.08,0,0,0,0,.11c.05-.12.1-.25.14-.37a55,55,0,0,0,3.3-13.32,33.5,33.5,0,0,0,.07-8.19c-.16-1.19-1.13-5.68-1.83-6.12-1.36-.85-1.37,1.69-1.42,2.37a48.54,48.54,0,0,0,.42,8.17,52.94,52.94,0,0,1-.76,16.21c-.06.34-.13.66-.21,1A.32.32,0,0,0,192.65,419.49Zm.21-1A41.08,41.08,0,0,0,194,407.69c-.05-2.52-.33-5-.57-7.54-.12-1.26-.23-2.51-.29-3.77a13.25,13.25,0,0,1,.08-2.67c.2-1.36.41-1.66.63-1.69s.67.43,1.32,2.39a17.14,17.14,0,0,1,.56,2.48,27.06,27.06,0,0,1,.34,3.22,38.67,38.67,0,0,1-.58,8.11A62.68,62.68,0,0,1,192.86,418.45Z" style="fill:#fff"></path><path d="M175.67,413.37a15.54,15.54,0,0,0,4.56,4.82c3.58,2.64,7.66,4.48,11.41,6.85.56.36,1.11.72,1.65,1.11.06,0,.6.66.58.6s-.14-.27-.38-.7h0c-1.16-2.13-4.78-8.53-7.67-11.47a32.23,32.23,0,0,0-5.94-4.93c-1-.62-3.45-1.93-4.68-1.08S175.11,412.35,175.67,413.37Z" style="fill:#455a64"></path><path d="M179.63,414.69a40.79,40.79,0,0,0,4.8,4.59c2.37,2,4.81,3.85,7.21,5.76.46.29.92.59,1.37.91l.28.19c.06.05.56.61.58.61s-.14-.27-.38-.7-.46-.75-.71-1.11a44.75,44.75,0,0,0-7.52-8.84c-.78-.7-6.66-6.19-7.82-4.83C176.93,411.87,179.31,414.31,179.63,414.69ZM178,411.57c.24-.25,1.37.35,1.78.59a22.93,22.93,0,0,1,2.58,1.91,47.85,47.85,0,0,1,4.4,3.88,50.62,50.62,0,0,1,6.13,7.4c.09.13.18.28.28.41l-.24-.2c-4.87-4.14-10.54-7.38-14.47-12.53C178.2,412.68,177.64,411.9,178,411.57Z" style="fill:#fff"></path><path d="M145.77,370c7.47,8.53,20.27,9.54,28.23,17.53l0,0c.24.24.48.49.71.75a.21.21,0,0,0,.35-.05.17.17,0,0,0,0-.17,1.54,1.54,0,0,0-.17-.19,54.3,54.3,0,0,0-11.6-15.42c-3.93-3.78-8.69-7-14.16-7.87-1.35-.23-4-.76-5,.64S144.84,369,145.77,370Z" style="fill:#455a64"></path><path d="M160.22,377.27a80.58,80.58,0,0,1,8.9,5.6,33.72,33.72,0,0,1,4.88,4.67l.07.06c.23.25.46.48.68.74a.23.23,0,0,0,.35-.06l-.21-.35c-.56-.95-1.17-1.86-1.82-2.75a59.06,59.06,0,0,0-10.14-10.51,28.46,28.46,0,0,0-7.2-4.55,17.81,17.81,0,0,0-4-1.19c-.54-.09-1.53-.32-2,.26C148.33,371.19,159,376.57,160.22,377.27Zm-10.15-7.76c.21-.57,1.64-.37,3.35.1a20.43,20.43,0,0,1,4.32,1.8,35.79,35.79,0,0,1,6.9,5.14l.09.09a78.1,78.1,0,0,1,6.85,7l0,0a43,43,0,0,1,3.28,4.43,30.8,30.8,0,0,0-3.89-4,38.48,38.48,0,0,0-5.42-3.95c-2.41-1.47-4.85-2.87-7.28-4.3s-5.05-2.66-7.1-4.57C150.6,370.71,149.93,369.9,150.07,369.51Z" style="fill:#fff"></path><path d="M164.55,376.82c2.18,2.38,4.33,4.82,6.46,7.27q1.52,1.73,3,3.45l.07.06,1.08,1.25c3.26,3.75,6.73,7.55,9.34,11.79a42.43,42.43,0,0,1,3.42,7.12c.09.26.19.51.28.76h0c0,.14.09.28.14.42a2.25,2.25,0,0,1,.08.24c.77,2.15,1.44,4.34,2.08,6.47.89,3,1.57,6,2.22,9a1.31,1.31,0,0,1,.06.27c0,.14.06.27.1.41s0,.14,0,.21l.09.39c.21,1,.42,1.94.65,2.91l.9-.28a61.5,61.5,0,0,0-1.7-9.08,1,1,0,0,0-.05-.18c-.06-.29-.14-.59-.22-.88s-.19-.71-.29-1.06c-.24-.86-.48-1.71-.73-2.54a64.73,64.73,0,0,0-5.71-14.29c-.07-.12-.14-.24-.22-.36a.51.51,0,0,0-.09-.16c0-.09-.1-.17-.15-.26l-.26-.41-.48-.72-.15-.21A100.26,100.26,0,0,0,175.69,388c-.56-.6-1.12-1.21-1.68-1.8-.31-.34-.63-.67-.94-1l-1.45-1.5,0,0c-2.28-2.35-4.59-4.64-6.85-7C164.63,376.53,164.44,376.7,164.55,376.82Z" style="fill:#455a64"></path></g><g id="freepik--frozen-figure--inject-239"><path d="M322.51,232.36H174.78s-33-47.54-35.61-79,28-79.17,45.08-88.26,43.39,10.75,43.39,16.43a66.31,66.31,0,0,1-.93,10.71l-11.7,12s-8.74.71-16.15-1.23c-2.37-.61-7.09-9-7.84-11.07s-2.41-.5-4.11,1.71c-7,9.07-17.24,23-15.54,44.39s19.7,40.53,19.7,40.53,34.06-36.06,61.34-36.06,53.43,31.32,53.43,31.32,14.54-10.51,23.2-19.17S345,134.2,345.52,134.2s-6.09,19.35-17.61,32.15c-.86,1,15.34-14.68,19.79-20.17s12.5-20.83,13.25-20.55S349.33,165,333.73,183.21c-.85,1,6.77-4.45,12-11.08s7.48-11.93,8.33-11.93-6.25,27.41-12.21,40.2S322.51,232.36,322.51,232.36Z" style="fill:#FCF400"></path><path d="M139.94,159c.14,4.13,2.53,18.24,2.28,21.07s-2.23,10.84,0,10.84c3.44,0,1-8.76.89-9.7s.38-3.88.81-3.88.18,4.87,1.46,6.15,2.31.8,2.65,1.74,1.27,6.43,2.22,6.85S152,193,152,193l-7-31.1Z" style="fill:#FCF400"></path><path d="M357.24,137.91a49.13,49.13,0,0,0-.76,9.29c.19.88,1.2,5.22-.34,5.22s-.44-4.72-.38-5.76-.66-1.86-.88-1.26-.47,2.9-1,3.34a20.63,20.63,0,0,0-1.86,2.33Z" style="fill:#FCF400"></path><g style="opacity:0.7000000000000001"><path d="M322.51,232.36H174.78s-33-47.54-35.61-79,28-79.17,45.08-88.26,43.39,10.75,43.39,16.43a66.31,66.31,0,0,1-.93,10.71l-11.7,12s-8.74.71-16.15-1.23c-2.37-.61-7.09-9-7.84-11.07s-2.41-.5-4.11,1.71c-7,9.07-17.24,23-15.54,44.39s19.7,40.53,19.7,40.53,34.06-36.06,61.34-36.06,53.43,31.32,53.43,31.32,14.54-10.51,23.2-19.17S345,134.2,345.52,134.2s-6.09,19.35-17.61,32.15c-.86,1,15.34-14.68,19.79-20.17s12.5-20.83,13.25-20.55S349.33,165,333.73,183.21c-.85,1,6.77-4.45,12-11.08s7.48-11.93,8.33-11.93-6.25,27.41-12.21,40.2S322.51,232.36,322.51,232.36Z" style="fill:#fff"></path><path d="M139.94,159c.14,4.13,2.53,18.24,2.28,21.07s-2.23,10.84,0,10.84c3.44,0,1-8.76.89-9.7s.38-3.88.81-3.88.18,4.87,1.46,6.15,2.31.8,2.65,1.74,1.27,6.43,2.22,6.85S152,193,152,193l-7-31.1Z" style="fill:#fff"></path><path d="M357.24,137.91a49.13,49.13,0,0,0-.76,9.29c.19.88,1.2,5.22-.34,5.22s-.44-4.72-.38-5.76-.66-1.86-.88-1.26-.47,2.9-1,3.34a20.63,20.63,0,0,0-1.86,2.33Z" style="fill:#fff"></path></g><g style="opacity:0.4"><path d="M354.05,160.2c.85,0-6.25,27.41-12.22,40.19s-19.32,32-19.32,32H174.78s-6.54-9.44-14-22.7c6.93,6,19.66,16.61,22.91,16.93,4.53.44,112.84-4.48,127.73-10.75,7.56-3.18,23.13-20.32,27.21-26.88,3.95-6.34,12.87-23,13.33-24.23-.42.75-5.07,9.21-7.08,10.78-1.18.92-5,3.55-8.2,5.68a61.15,61.15,0,0,0,9.06-9.06C350.92,165.5,353.19,160.2,354.05,160.2Z" style="fill:#FCF400"></path><path d="M340,156.39c-2.45,2.46-12.77,11-13.24,11.42.34-.53,11.34-17.43,12.71-21.15.53-1.46,1.6-4.66,2.69-8,1.92-2.66,3.14-4.42,3.35-4.42.57,0-6.09,19.35-17.61,32.15-.85,1,15.34-14.67,19.78-20.17s12.5-20.83,13.27-20.55-11.58,39.23-27.14,57.48l-1.64,1.08c.34-.61,11.53-20.35,14.23-26.19,3.24-7,6.74-17.52,6.74-17.52S342.53,153.87,340,156.39Z" style="fill:#FCF400"></path><path d="M272.22,166.56l12.09-3.9s-15,33.62-28.13,36.56c-16.11,3.62-29.32,4.62-38.76,2.42C203.27,198.36,198.94,171,198.94,171l.07-.05c11.68-10.58,34.22-28.41,53.4-28.41,11.66,0,23.11,5.72,32.41,12.28C277.9,161.45,272.22,166.56,272.22,166.56Z" style="fill:#FCF400"></path><path d="M213.59,104.14l-.06.19A54.87,54.87,0,0,1,198.85,103c-2.36-.63-7.08-9-7.83-11.07s-2.42-.51-4.11,1.69c-7,9.07-17.24,23-15.54,44.4,1.62,20.27,17.84,38.5,19.55,40.38-2-2-23.31-23.24-23.77-42.22-.49-19.9,21-53.67,24.51-53.95,1.51-.13,6.58,12.79,8.19,14.68C202,99.46,213.59,104.14,213.59,104.14Z" style="fill:#FCF400"></path></g><path d="M214.67,103.6s-5.77-6.83-6.32-7.62-6.75-.2-7.48-.87-1-4.29.73-5.51S208,92.8,209.13,93s16.21-1.7,17.44-1.34S217.17,103.49,214.67,103.6Z" style="fill:#FCF400;opacity:0.2"></path><path d="M216.11,103.67s17.67,14.36,28.56,14.64c1.33,0-11.2-14.37-17-24.66C227.38,93.15,216.11,103.67,216.11,103.67Z" style="fill:#FCF400"></path><path d="M216.11,103.67s17.67,14.36,28.56,14.64c1.33,0-11.2-14.37-17-24.66C227.38,93.15,216.11,103.67,216.11,103.67Z" style="fill:#fff;opacity:0.2"></path><path d="M213.59,104.14c.43.57,1.83,1.31,2.23,1.14s4.2-4.19,5-5,8.34-4.59,8.89-5.06-1.22-5.35-2-5.63-8.08,5.66-9.36,6.8S213.31,103.75,213.59,104.14Z" style="fill:#FCF400"></path><path d="M213.59,104.14c.43.57,1.83,1.31,2.23,1.14s4.2-4.19,5-5,8.34-4.59,8.89-5.06-1.22-5.35-2-5.63-8.08,5.66-9.36,6.8S213.31,103.75,213.59,104.14Z" style="fill:#fff;opacity:0.4"></path><path d="M209.28,93.31a2.49,2.49,0,1,1-2.72-2.65A2.72,2.72,0,0,1,209.28,93.31Z" style="fill:#FCF400"></path><path d="M206.16,199.68s27.24,5.19,46.24-3c17.68-7.62,26.41-31.35,26.81-32.74s-13,12.51-18.09,14.27c-1.45.51,12.54-14.73,21.25-30.06s11.43-30,11.13-31.31-24.68,27-38.54,36.7c-1.93,1.35,16.8-20.14,24.46-30.36,6.1-8.15,12.37-17.36,12-17.88s-38.9,22.81-51.51,38c-1.64,2,14.45-21.94,21.48-28.08,1.43-1.25-13.78,4.06-27.75,14.24-10.26,7.48-29.49,28.23-35.89,44.23C195.56,179.2,202.23,197.55,206.16,199.68Z" style="fill:#FCF400"></path><path d="M206.16,199.68s27.24,5.19,46.24-3c17.68-7.62,26.41-31.35,26.81-32.74s-13,12.51-18.09,14.27c-1.45.51,12.54-14.73,21.25-30.06s11.43-30,11.13-31.31-24.68,27-38.54,36.7c-1.93,1.35,16.8-20.14,24.46-30.36,6.1-8.15,12.37-17.36,12-17.88s-38.9,22.81-51.51,38c-1.64,2,14.45-21.94,21.48-28.08,1.43-1.25-13.78,4.06-27.75,14.24-10.26,7.48-29.49,28.23-35.89,44.23C195.56,179.2,202.23,197.55,206.16,199.68Z" style="fill:#fff;opacity:0.7000000000000001"></path><path d="M209.74,69.38c.94.18-15.4-5-20.66-3.59-7.89,2.13-25.81,23.24-27.84,28.86-.25.68,22.58-22,29.51-24C196.32,69.1,207.41,68.94,209.74,69.38Z" style="fill:#fff"></path><path d="M180.17,95.14s-18.64,32-15.78,44.25c2.63,11.34,12.38,23.27,12.38,23.27s-8.48-16.65-8.48-25.08C168.29,120.38,180.17,95.14,180.17,95.14Z" style="fill:#fff"></path><path d="M222.9,89.39s1.07-6.72,0-8.17-6.79-6.11-6.79-6.11,8.11,3,9,5.67S222.9,89.39,222.9,89.39Z" style="fill:#fff"></path><path d="M221.71,98s5.5-3.11,5.94-3.64,0-3.74,0-3.74,2,2.85,1.23,4S221.71,98,221.71,98Z" style="fill:#fff"></path><path d="M229.51,99.17l10.22,14.66c.61.89,3.45,3.73,3.45,3.73a24.38,24.38,0,0,0-1.94-3.54C240.65,113.31,229.51,99.17,229.51,99.17Z" style="fill:#fff"></path><path d="M203.31,169.33s12-20.28,24.06-32.37c6.83-6.83,20.53-13,20.53-13s-14.86,14.8-19.65,19.34S203.31,169.33,203.31,169.33Z" style="fill:#fff"></path><path d="M246.52,140.49s14.74-13.48,20.15-17.26,14-8.94,14-8.94Z" style="fill:#fff"></path><path d="M148.72,178.42s20.39,41.55,29,49.11c2.63,2.32,31.61,2.43,31.61,2.43s-23.81-4.4-29.12-7.74S148.72,178.42,148.72,178.42Z" style="fill:#fff"></path><path d="M296.53,177.43s11.54-2.55,13-3.44,11.33-9.32,11.33-9.32-6,11-9,12.1S296.53,177.43,296.53,177.43Z" style="fill:#fff"></path><path d="M279.34,212.36l26.28-6.18s-7.21,4.92-11.29,6.18S279.34,212.36,279.34,212.36Z" style="fill:#fff"></path><path d="M163.78,148.13l8.14,11.71s-5-3.21-6-4.48S163.78,148.13,163.78,148.13Z" style="fill:#fff"></path><path d="M189.83,222.31s15.62,3.9,18.65,4.15,19.77,0,19.77,0Z" style="fill:#fff"></path><path d="M252.94,157.06s14.28-9.58,15-10.4,11.41-10.89,11.41-10.89-6.5,11.17-10.15,13.44S252.94,157.06,252.94,157.06Z" style="fill:#fff"></path><path d="M206.9,192.65s17.42.37,19.77-.63,15.82-8.28,15.82-8.28-16.19,4.72-17.8,5S206.9,192.65,206.9,192.65Z" style="fill:#fff"></path><g style="opacity:0.6000000000000001"><path d="M273.6,228.2c-2.05-.78,36.91-5.43,40.82-6.73s29.73-37.55,30.42-38.78-20.74,43.44-25.58,44.72S275.67,229,273.6,228.2Z" style="fill:#FCF400"></path><path d="M322.16,187.65c3.34-2.28,10.68-10.88,12.56-12.66,2.74-2.6,9.18-13.12,9.18-13.12.79-.45-4.55,11.39-8.23,14.9S322.16,187.65,322.16,187.65Z" style="fill:#FCF400"></path><path d="M192.35,91.59c-.25-.74,4.54,8.53,6.49,9.47s9.83,1.45,9.95,1.2-7-2.33-9.07-3.65A49.72,49.72,0,0,1,192.35,91.59Z" style="fill:#FCF400"></path><path d="M206.9,197s31.13.29,38.52-2.83,21.66-14.08,21.66-14.08S254.33,195.23,245.83,197,206.9,197,206.9,197Z" style="fill:#FCF400"></path><path d="M240.44,188.23s12.09-9.54,18.71-15.87,18.23-23.15,18.23-23.15-10.49,20.31-15.68,24.94S240.44,188.23,240.44,188.23Z" style="fill:#FCF400"></path></g><path d="M312.55,280.49l6.14-17.26L329.53,250l-7-17.64H174.78s-1.67,6.08-2.65,6.84l8,10.8-4.07,13.67,11.35,16.82Z" style="fill:#FCF400"></path><path d="M312.55,280.49l6.14-17.26L329.53,250l-7-17.64H174.78s-1.67,6.08-2.65,6.84l8,10.8-4.07,13.67,11.35,16.82Z" style="fill:#fff;opacity:0.6000000000000001"></path><g style="opacity:0.5"><polygon points="184.47 232.36 211.6 239.81 249.3 243.65 277.77 255.24 326.44 242.24 322.51 232.36 184.47 232.36" style="fill:#FCF400"></polygon><polygon points="318.39 262.91 295.1 257.57 313.23 256.64 318.39 262.91" style="fill:#FCF400"></polygon><path d="M183.33,267.23s16.14,4.32,17.58,4.32h21.66Z" style="fill:#FCF400"></path><polygon points="187.45 280.49 180.48 270.16 204.26 277.39 256.27 278.49 287.52 275.32 297.85 277.39 316.9 268.24 312.55 280.49 187.45 280.49" style="fill:#FCF400"></polygon></g><path d="M213.41,262.54s25.7-3.39,30.15-3S277.41,269,277.41,269s-29.36-4.56-34-4.93S213.41,262.54,213.41,262.54Z" style="fill:#fff"></path><polygon points="174.83 232.36 202.95 232.36 226.59 241.34 203.86 240.95 174.83 232.36" style="fill:#fff"></polygon><path d="M203.31,245.23l13.49.63,13-2.06s-11.39,4.8-11.91,4.73S203.31,245.23,203.31,245.23Z" style="fill:#fff"></path><polygon points="304.05 242.64 308.46 244.97 320.17 244.46 304.05 242.64" style="fill:#fff"></polygon><polygon points="180.17 250 198.94 253.64 176.33 262.91 180.17 250" style="fill:#fff"></polygon><polygon points="262.34 260.75 279.34 260.75 275.65 262.91 262.34 260.75" style="fill:#fff"></polygon><g style="opacity:0.30000000000000004"><path d="M184.06,169.66h0a12.61,12.61,0,0,1-4.76.51A8.33,8.33,0,0,1,178,170a2,2,0,0,1-.33-.08l-.42-.17a4,4,0,0,1-.77-.41,7.07,7.07,0,0,1-1.16-.9,9.93,9.93,0,0,1-.91-.95,35.74,35.74,0,0,1-2.74-3.73,68.33,68.33,0,0,0-4.68-6.65,11.66,11.66,0,0,0-2.47-2.33,4.58,4.58,0,0,0-2.36-1,36.75,36.75,0,0,0-3.9-.07,19.63,19.63,0,0,1-5-.76c-.83-.23-1.58-.55-2.37-.83-.43-.22-.86-.43-1.28-.67l-.64-.35-.53-.42-1.07-.83-.9-.9a17.31,17.31,0,0,1-1.59-1.89,31.59,31.59,0,0,1-4.23-8.16l-.42-1.24h0c.24-1.27.51-2.57.82-3.86.85,1.21,1.69,2.4,2.56,3.56a44.44,44.44,0,0,0,5.28,6.19,12.62,12.62,0,0,0,1.42,1.19l.71.54,1,.61c.12,0,.23.07.35.11l.64.26c.59.15,1.18.35,1.76.44a15.75,15.75,0,0,0,3.52.3l2-.06A15.68,15.68,0,0,1,163,147a10.63,10.63,0,0,1,3,.84,12.94,12.94,0,0,1,2.5,1.5,17.16,17.16,0,0,1,3.58,3.77,29.14,29.14,0,0,1,2.42,4.06c.69,1.34,1.28,2.7,1.85,4s1.11,2.59,1.67,3.68c.15.27.29.53.44.75a6.21,6.21,0,0,0,.38.57c.08.12.1.1.14.17l0,.09.18.1a8.29,8.29,0,0,0,.79.39,11.48,11.48,0,0,0,2.71.74C183.17,168.35,183.62,169,184.06,169.66Z" style="fill:#fff"></path><path d="M189.44,63.26A48.26,48.26,0,0,0,193.23,67a24.36,24.36,0,0,0,5.41,3.85,8.49,8.49,0,0,0,1.45.59,7.55,7.55,0,0,0,1.45.41,18.24,18.24,0,0,0,3.23.34,24.18,24.18,0,0,0,3.28-.09,30.15,30.15,0,0,1,3.7-.18A12.53,12.53,0,0,1,219,75a35.56,35.56,0,0,1,4.9,5.33,16.46,16.46,0,0,0,2.18,2.33,4.15,4.15,0,0,0,.56.37,3.27,3.27,0,0,0,.62.23l.34.09c0,.65-.05,1.28-.1,1.89l-.58-.05a5.48,5.48,0,0,1-1.06-.21,6.78,6.78,0,0,1-1-.45,15,15,0,0,1-2.95-2.41A46,46,0,0,0,217,77.56a10.21,10.21,0,0,0-5.45-2.2c-1.92-.11-4.5.36-7,.09a23.71,23.71,0,0,1-3.7-.65,12.14,12.14,0,0,1-3.54-1.61,21.3,21.3,0,0,1-5.33-5,31,31,0,0,1-3-4.81Z" style="fill:#fff"></path><path d="M336.82,209.86c-.56,1-1.13,1.95-1.71,2.92a14.18,14.18,0,0,0-1.46,0A10.15,10.15,0,0,0,328,214.5c-1.57,1.11-3.28,3.09-5.38,4.44a24.36,24.36,0,0,1-3.29,1.81,12,12,0,0,1-3.77,1,20.89,20.89,0,0,1-7.3-.58,28.51,28.51,0,0,1-6.66-2.49,57,57,0,0,0,6.9.85,25.12,25.12,0,0,0,6.64-.39,10.4,10.4,0,0,0,1.5-.44,9.22,9.22,0,0,0,1.4-.6,18.73,18.73,0,0,0,2.71-1.76,23.48,23.48,0,0,0,2.5-2.11,32,32,0,0,1,2.77-2.47,12.67,12.67,0,0,1,7.58-2.17A27.49,27.49,0,0,1,336.82,209.86Z" style="fill:#fff"></path><path d="M171.92,142.26A16,16,0,0,0,170,141a10.16,10.16,0,0,0-5.65-1.63c-1.93.08-4.44.82-6.95.81a23.79,23.79,0,0,1-3.74-.27A12.25,12.25,0,0,1,150,138.7a21.42,21.42,0,0,1-5.81-4.45,31.71,31.71,0,0,1-2.53-3.05c.08-.3.16-.6.25-.91a42.52,42.52,0,0,0,3.37,2.71,24.82,24.82,0,0,0,5.79,3.27,8.36,8.36,0,0,0,1.51.44,7.76,7.76,0,0,0,1.49.26,20.6,20.6,0,0,0,3.24,0,29,29,0,0,0,3.25-.43,32.89,32.89,0,0,1,3.66-.57,12.54,12.54,0,0,1,7.14,2v0C171.49,139.46,171.67,140.87,171.92,142.26Z" style="fill:#fff"></path><path d="M348.05,183.64c-1.16,3.66-2.41,7.31-3.66,10.61a37,37,0,0,1-7.62,6.55c-.81.54-1.58,1-2.51,1.48a16.17,16.17,0,0,1-3.21,1.24,30.42,30.42,0,0,1-6.05.78c-3.83.11-7.37-.13-10.82-.33s-6.76-.33-10-.27a51.54,51.54,0,0,0-9.28,1,27.83,27.83,0,0,0-8.08,2.72,18.7,18.7,0,0,0-6,5.13c-1.91,2.27-3.89,5.21-6.22,8.16a59.4,59.4,0,0,1-8,8.33,54.87,54.87,0,0,1-4.43,3.36H236.91a57.72,57.72,0,0,0,14.58-6.52,54.5,54.5,0,0,0,7.2-5.75,51.84,51.84,0,0,0,6.16-7c2-2.55,3.83-5.46,6.35-8.57a31.25,31.25,0,0,1,10-8.12A38.17,38.17,0,0,1,293,192.93a55.29,55.29,0,0,1,11.54-.29c7.49.48,14.51,2.41,20.83,3.33a23.27,23.27,0,0,0,4.37.27,9.45,9.45,0,0,0,1.79-.24,23.08,23.08,0,0,0,2.15-.87,34.48,34.48,0,0,0,8.19-5.11A43.09,43.09,0,0,0,348.05,183.64Z" style="fill:#fff"></path></g><rect x="187.45" y="280.49" width="125.09" height="28.19" style="fill:#FCF400"></rect><rect x="187.45" y="280.49" width="125.09" height="28.19" style="fill:#fff;opacity:0.7000000000000001"></rect><rect x="187.45" y="280.49" width="21.55" height="28.19" style="fill:#fff;opacity:0.7000000000000001"></rect><rect x="187.45" y="418.21" width="125.09" height="28.19" style="fill:#FCF400"></rect><rect x="187.45" y="418.21" width="125.09" height="28.19" style="fill:#fff;opacity:0.7000000000000001"></rect><rect x="187.45" y="418.21" width="21.55" height="28.19" style="fill:#fff;opacity:0.7000000000000001"></rect><rect x="197.33" y="308.68" width="105.33" height="109.63" style="fill:#FCF400"></rect><rect x="197.33" y="308.68" width="105.33" height="109.63" style="fill:#fff;opacity:0.7000000000000001"></rect><rect x="197.33" y="308.68" width="26.71" height="109.63" style="fill:#fff;opacity:0.7000000000000001"></rect><g style="opacity:0.7000000000000001"><path d="M233.57,316.08h0a1.38,1.38,0,0,1,1.38,1.38v92.07a1.38,1.38,0,0,1-1.38,1.38h0a1.38,1.38,0,0,1-1.38-1.38V317.46A1.38,1.38,0,0,1,233.57,316.08Z" style="fill:#FCF400;opacity:0.4"></path><path d="M241.28,316.08h0a1.38,1.38,0,0,1,1.38,1.38v92.07a1.38,1.38,0,0,1-1.38,1.38h0a1.38,1.38,0,0,1-1.39-1.38V317.46A1.38,1.38,0,0,1,241.28,316.08Z" style="fill:#FCF400;opacity:0.4"></path><path d="M249,316.08h0a1.38,1.38,0,0,1,1.39,1.38v92.07a1.38,1.38,0,0,1-1.39,1.38h0a1.38,1.38,0,0,1-1.38-1.38V317.46A1.38,1.38,0,0,1,249,316.08Z" style="fill:#FCF400;opacity:0.4"></path><path d="M256.69,316.08h0a1.38,1.38,0,0,1,1.38,1.38v92.07a1.38,1.38,0,0,1-1.38,1.38h0a1.38,1.38,0,0,1-1.38-1.38V317.46A1.38,1.38,0,0,1,256.69,316.08Z" style="fill:#FCF400;opacity:0.4"></path><path d="M264.4,316.08h0a1.38,1.38,0,0,1,1.38,1.38v92.07a1.38,1.38,0,0,1-1.38,1.38h0a1.38,1.38,0,0,1-1.38-1.38V317.46A1.38,1.38,0,0,1,264.4,316.08Z" style="fill:#FCF400;opacity:0.4"></path><path d="M272.1,316.08h0a1.38,1.38,0,0,1,1.39,1.38v92.07a1.38,1.38,0,0,1-1.39,1.38h0a1.38,1.38,0,0,1-1.38-1.38V317.46A1.38,1.38,0,0,1,272.1,316.08Z" style="fill:#FCF400;opacity:0.4"></path><rect x="278.43" y="316.08" width="2.77" height="94.83" rx="1.38" style="fill:#FCF400;opacity:0.4"></rect><path d="M287.52,316.08h0a1.38,1.38,0,0,1,1.38,1.38v92.07a1.38,1.38,0,0,1-1.38,1.38h0a1.38,1.38,0,0,1-1.38-1.38V317.46A1.38,1.38,0,0,1,287.52,316.08Z" style="fill:#FCF400;opacity:0.4"></path><path d="M295.23,316.08h0a1.38,1.38,0,0,1,1.38,1.38v92.07a1.38,1.38,0,0,1-1.38,1.38h0a1.38,1.38,0,0,1-1.39-1.38V317.46A1.38,1.38,0,0,1,295.23,316.08Z" style="fill:#FCF400;opacity:0.4"></path><path d="M235,317.61v91.77a1.47,1.47,0,0,1-1.39,1.53,1.41,1.41,0,0,1-.41-.07,1.52,1.52,0,0,0,1-1.46V317.61a1.51,1.51,0,0,0-1-1.46,1.15,1.15,0,0,1,.41-.08A1.48,1.48,0,0,1,235,317.61Z" style="fill:#FCF400"></path><path d="M242.66,317.61v91.77a1.46,1.46,0,0,1-1.38,1.53,1.48,1.48,0,0,1-.42-.07,1.52,1.52,0,0,0,1-1.46V317.61a1.52,1.52,0,0,0-1-1.46,1.2,1.2,0,0,1,.42-.08A1.47,1.47,0,0,1,242.66,317.61Z" style="fill:#FCF400"></path><path d="M250.36,317.61v91.77a1.46,1.46,0,0,1-1.38,1.53,1.41,1.41,0,0,1-.41-.07,1.53,1.53,0,0,0,1-1.46V317.61a1.52,1.52,0,0,0-1-1.46,1.15,1.15,0,0,1,.41-.08A1.47,1.47,0,0,1,250.36,317.61Z" style="fill:#FCF400"></path><path d="M258.07,317.61v91.77a1.47,1.47,0,0,1-1.38,1.53,1.42,1.42,0,0,1-.42-.07,1.52,1.52,0,0,0,1-1.46V317.61a1.52,1.52,0,0,0-1-1.46,1.16,1.16,0,0,1,.42-.08A1.48,1.48,0,0,1,258.07,317.61Z" style="fill:#FCF400"></path><path d="M265.77,317.61v91.77a1.46,1.46,0,0,1-1.38,1.53,1.54,1.54,0,0,1-.42-.07,1.52,1.52,0,0,0,1-1.46V317.61a1.52,1.52,0,0,0-1-1.46,1.25,1.25,0,0,1,.42-.08A1.47,1.47,0,0,1,265.77,317.61Z" style="fill:#FCF400"></path><path d="M273.48,317.61v91.77a1.47,1.47,0,0,1-1.38,1.53,1.42,1.42,0,0,1-.42-.07,1.52,1.52,0,0,0,1-1.46V317.61a1.51,1.51,0,0,0-1-1.46,1.16,1.16,0,0,1,.42-.08A1.48,1.48,0,0,1,273.48,317.61Z" style="fill:#FCF400"></path><path d="M281.18,317.61v91.77a1.46,1.46,0,0,1-1.38,1.53,1.54,1.54,0,0,1-.42-.07,1.52,1.52,0,0,0,1-1.46V317.61a1.52,1.52,0,0,0-1-1.46,1.25,1.25,0,0,1,.42-.08A1.47,1.47,0,0,1,281.18,317.61Z" style="fill:#FCF400"></path><path d="M288.89,317.61v91.77a1.47,1.47,0,0,1-1.39,1.53,1.41,1.41,0,0,1-.41-.07,1.52,1.52,0,0,0,1-1.46V317.61a1.51,1.51,0,0,0-1-1.46,1.15,1.15,0,0,1,.41-.08A1.48,1.48,0,0,1,288.89,317.61Z" style="fill:#FCF400"></path><path d="M296.59,317.61v91.77a1.46,1.46,0,0,1-1.38,1.53,1.48,1.48,0,0,1-.42-.07,1.52,1.52,0,0,0,1-1.46V317.61a1.52,1.52,0,0,0-1-1.46,1.2,1.2,0,0,1,.42-.08A1.47,1.47,0,0,1,296.59,317.61Z" style="fill:#FCF400"></path></g><polygon points="302.67 311.44 224.05 311.29 197.33 313.59 197.33 308.68 302.67 308.68 302.67 311.44" style="fill:#FCF400;opacity:0.4"></polygon><polygon points="302.67 415.55 224.05 416.53 197.33 413.4 197.33 418.31 302.67 418.31 302.67 415.55" style="fill:#FCF400;opacity:0.4"></polygon></g><g id="freepik--Character--inject-239"><path d="M301,450.76c2.25.73,66.38-.09,68.8-1.67.93-.59,1.36-9.94,1.55-21.26v-.35c.05-2.33.08-4.73.08-7.17,0-.33,0-.67,0-1L368.3,386l-42.91.42,4.23,33,.05,1.3.26,6.82,0,.71s-24.41,11.29-26.89,13.31S298.71,450,301,450.76Z" style="fill: rgb(221, 106, 87);"></path><path d="M301,450.76c2.25.73,66.38-.09,68.8-1.67.93-.59,1.36-9.94,1.55-21.26v-.35c.05-2.33.08-4.73.08-7.17,0-.33,0-.67,0-1l-41.78.11.05,1.3.26,6.82,0,.71s-24.41,11.29-26.89,13.31S298.71,450,301,450.76Z" style="fill:#ebebeb"></path><path d="M301,450.76c1.16.37,18.58.33,35.62,0,3.42-.07,6.82-.15,10.07-.24,12.15-.33,22.19-.83,23.12-1.44s1.34-9.67,1.53-20.78c0-.15,0-.31,0-.47s0-.24,0-.36h-.05l-41.33.07,0,.71s-24.42,11.28-26.89,13.3S298.7,450,301,450.76Z" style="fill:#FCF400"></path><path d="M301.65,448.27c10.81-.41,54.44-1,65.15-.59.09,0,.09.06,0,.07-10.71.63-54.34.88-65.16.69C301.42,448.44,301.42,448.27,301.65,448.27Z" style="fill:#263238"></path><path d="M325.32,427.72c4.25-.85,9.46-.26,12.75,2.73.13.12,0,.29-.18.25a59.32,59.32,0,0,0-12.54-2.44A.27.27,0,0,1,325.32,427.72Z" style="fill:#263238"></path><path d="M322.28,429.61c4.24-.85,9.45-.26,12.74,2.73.13.12,0,.29-.18.25a59.32,59.32,0,0,0-12.54-2.44A.27.27,0,0,1,322.28,429.61Z" style="fill:#263238"></path><path d="M319.23,431.5c4.24-.85,9.45-.26,12.74,2.73.13.12,0,.29-.17.25A59.54,59.54,0,0,0,319.25,432,.27.27,0,0,1,319.23,431.5Z" style="fill:#263238"></path><path d="M336.57,450.76c3.42-.07,6.82-.15,10.07-.24,12.15-.33,22.19-.83,23.12-1.44s1.34-9.67,1.53-20.78c0-.15,0-.31,0-.47s0-.24,0-.36h-.05C365.6,431.44,345.64,444.72,336.57,450.76Z" style="fill:#263238"></path><path d="M327.46,427.69h46.19s-9.28-107.89-8.91-109.77c.46-2.42,3.19-13.34,6.82-27.6,1.14-4.47,2.37-9.25,3.64-14.22,3.45-13.42,7.25-28.09,10.56-40.85,5-19.12,8.85-29,8.85-29H355.46S323.28,298.41,322,317.45C320.88,334.06,327.46,427.69,327.46,427.69Z" style="fill:#37474f"></path><path d="M329.51,419.81c7.05-.15,5-.21,12.08-.27,3.45,0,26.14-.23,29.37.31a.07.07,0,0,1,0,.14c-3.23.53-25.92.33-29.37.3-7.06-.07-5-.13-12.08-.28A.1.1,0,1,1,329.51,419.81Z" style="fill:#263238"></path><path d="M356.05,311.33c1.51-6.68,3.78-13.22,5.75-19.77q6-20,12.09-39.93c2-6.65,11.41-31.54,12.34-34.85.38-1.34.59-.6.1,1.1-1,3.45-17,52.79-21.08,66.31q-3,10.15-6.12,20.32a85.78,85.78,0,0,0-2.5,9.83,45.76,45.76,0,0,0-.41,10.52c.45,7.07,1.26,14.13,1.91,21.18s1.31,14.13,2,21.2Q362,388.33,364,409.42c.16,1.79.32,3.57.45,5.35.05.6-.85.55-.92,0-1.51-13.9-2.68-27.85-4-41.78s-2.59-27.71-3.89-41.57c-.32-3.48-.69-7-.69-10.46A43.15,43.15,0,0,1,356.05,311.33Z" style="fill:#263238"></path><path d="M359.91,206.28c2.71,21,7.88,55.45,11.65,84,8.84-34.65,23.05-84,23.05-84Z" style="fill:#263238"></path><path d="M348.73,451.39c2.24.74,66.38.15,68.81-1.42.93-.58,1.39-9.94,1.62-21.25,0-.12,0-.24,0-.35.05-2.34.09-4.74.1-7.17,0-.34,0-.67,0-1,.15-16.32-1-33.27-1-33.27l-41.93.26,1.16,33,.05,1.31.23,6.82,0,.7s-24.45,11.21-26.93,13.22S346.48,450.67,348.73,451.39Z" style="fill: rgb(221, 106, 87);"></path><path d="M348.73,451.39c2.24.74,66.38.15,68.81-1.42.93-.58,1.39-9.94,1.62-21.25,0-.12,0-.24,0-.35.05-2.34.09-4.74.1-7.17,0-.34,0-.67,0-1l-41.79,0,.05,1.31.23,6.82,0,.7s-24.45,11.21-26.93,13.22S346.48,450.67,348.73,451.39Z" style="fill:#ebebeb"></path><path d="M348.73,451.39c2.24.74,66.38.15,68.81-1.42.93-.58,1.39-9.94,1.62-21.25,0-.12,0-.24,0-.35l-41.39-.09,0,.7s-24.45,11.21-26.93,13.22S346.48,450.67,348.73,451.39Z" style="fill:#FCF400"></path><path d="M349.43,448.9c10.81-.37,54.44-.81,65.15-.35.09,0,.09.06,0,.07-10.7.59-54.34.68-65.15.45C349.2,449.07,349.2,448.9,349.43,448.9Z" style="fill:#263238"></path><path d="M373.18,428.44c4.24-.83,9.45-.23,12.73,2.77.13.12,0,.3-.18.26A59.32,59.32,0,0,0,373.2,429,.27.27,0,0,1,373.18,428.44Z" style="fill:#263238"></path><path d="M370.12,430.32c4.25-.83,9.46-.23,12.74,2.77.12.12,0,.3-.18.26a59.41,59.41,0,0,0-12.54-2.49A.27.27,0,0,1,370.12,430.32Z" style="fill:#263238"></path><path d="M367.07,432.2c4.25-.84,9.45-.23,12.73,2.77.13.12,0,.3-.18.25a60.47,60.47,0,0,0-12.53-2.49A.27.27,0,0,1,367.07,432.2Z" style="fill:#263238"></path><path d="M355.73,206.28a151.63,151.63,0,0,0,5.18,28.56c.34,1.23.72,2.43,1.12,3.59,0,0,3.46,1.62,10.28,5.8,0,0,.45,15.07.89,31.88.5,18.79,1,39.75.91,44.19-.4,16.63,2.05,108.08,2.05,108.08l46.18.19S414,326.45,414.08,320.36c.09-9.79-2.23-53.07-4-84.63-1.1-19.45-2-29.44-2-29.44Z" style="fill:#37474f"></path><path d="M377.75,420.16c7.05-.11,5-.18,12.08-.22,3.45,0,26.14-.11,29.37.44a.07.07,0,0,1,0,.14c-3.23.52-25.92.22-29.37.17-7.06-.1-5-.15-12.08-.32A.11.11,0,1,1,377.75,420.16Z" style="fill:#263238"></path><path d="M404.19,213c.84,25.76,1.74,46.53,2.88,72.29s2.71,51.67,4.86,77.45c1.21,14.41,2.34,34.67,3.89,49,0,.09-.13.13-.15,0-3.35-25.56-5.22-57.16-6.87-82.88s-2.76-51.48-3.63-77.24c-.49-14.56-.87-24.14-1.3-38.71C403.86,212.75,404.18,212.77,404.19,213Z" style="fill:#263238"></path><path d="M402.41,229.72c-1.13-.29-2.35-.38-3.51-.57-.93-.15-1.87-.31-2.79-.51a12.26,12.26,0,0,1-4.93-2.08c-2.31-1.8-4.95-10.92-5.27-11.5-.56-1-.72-.12-.72,0a52.62,52.62,0,0,0,3.36,10.53c1.71,2.73,4.77,3.83,7.84,4.22.87.11,1.76.17,2.64.22a19.74,19.74,0,0,0,3.35,0A.16.16,0,0,0,402.41,229.72Z" style="fill:#263238"></path><path d="M362.18,238.65a82.11,82.11,0,0,1,13,6.06.15.15,0,0,1-.12.27c-4.38-1.88-8.85-3.68-13.12-5.8A.29.29,0,0,1,362.18,238.65Z" style="fill:#263238"></path><path d="M360.86,208.64c0-.15.28-.18.27,0,0,5.2.3,9.78.74,14.64.2,2.26,2,14.73,5.93,13.82.66-.15,1-.8,1.09-1.79a15.67,15.67,0,0,0-.51-3.82c-.44-2.61-.79-5.23-1-7.87a71.29,71.29,0,0,1,.16-14.75.13.13,0,0,1,.25,0A134.63,134.63,0,0,0,369,229.23c.49,3.24,2.12,8.13-1.27,8.63s-5.69-7.68-6.11-9.91A74.34,74.34,0,0,1,360.86,208.64Z" style="fill:#263238"></path><path d="M367.7,237.42a20.62,20.62,0,0,1,.88,2.58,5.79,5.79,0,0,1,.36,2.13c0,.13-.19.15-.27.05a7.48,7.48,0,0,1-.91-2.06c-.29-.8-.61-1.6-.88-2.41A.44.44,0,0,1,367.7,237.42Z" style="fill:#263238"></path><path d="M380.23,140.15s17,8.95,24.2,10.89,31.14-3.69,31.14-3.69-2.46,26-2.84,26-21.24-.14-30.74-4.8-30.5-19.3-30.5-19.3Z" style="fill:#455a64"></path><path d="M389.5,144.81c-5.09-2.46-9.28-4.66-9.28-4.66l-8.74,9.14s3.57,2.48,8.44,5.74C382.93,151.91,387,147.52,389.5,144.81Z" style="fill:#37474f"></path><path d="M379.92,153.9c-10.09,5.72-39.17,13.84-47.23,9.87-5.84-2.87-16.88-27.1-19.06-35.52-2.11-8.13,24.4-12,26-7.33,2.21,6.61,7.2,22.3,9.17,23.91,1.38,1.12,8.15-.51,27.46-.76C386.93,143.93,385.94,150.48,379.92,153.9Z" style="fill: rgb(221, 106, 87);"></path><path d="M309.47,118.13c.78,5.49,5.36,18.14,7.79,20.14s20.79-7.21,21.35-10.39-1.82-21.25-5.95-25.11S308.65,112.45,309.47,118.13Z" style="fill:#a6a6a6"></path><polygon points="309.21 129.35 305.5 123.86 350.9 94.07 353.77 98.31 309.21 129.35" style="fill:#FCF400"></polygon><polygon points="309.21 129.35 305.5 123.86 350.9 94.07 353.77 98.31 309.21 129.35" style="fill:#020100;opacity:0.30000000000000004"></polygon><rect x="333.82" y="94.66" width="22.51" height="13.05" transform="translate(235.6 -241.35) rotate(55.93)" style="fill:#37474f"></rect><path d="M337.81,110c-1.14,2.7-3.67-.2-3.67-.2s2.63,5,.38,7.38-5.12-1.37-5.33-1.63c.14.27,2.44,5-.08,7.08s-4.93-1.94-5.08-2.21c.05.3.65,4.19-1.62,5.36-3.91,2-5.7-7.92-8.7-9.82,0,0-4.06,2.48-4.2,2.6s-1.64-7.18,1.15-11.08a3.06,3.06,0,0,1,3.68-1.09s-.95-3,1-4.69c1-.88,3.28-.08,3.28-.08a3.85,3.85,0,0,1,1.14-3.83c1.44-1.14,3.51-.16,3.51-.16s.44-2.6,2.29-3.29C329.27,92.93,340.26,104.2,337.81,110Z" style="fill:#a6a6a6"></path><path d="M323.61,97.73s0-.1,0-.07a27.27,27.27,0,0,1,10.64,12.27c.07.17-.17.34-.27.18A55.9,55.9,0,0,0,323.61,97.73Z" style="fill:#263238"></path><path d="M318.56,101.53s0-.12.08-.08a25.55,25.55,0,0,1,10.77,14.11c.06.21-.09.45-.18.22C327.83,111.87,322.42,104.86,318.56,101.53Z" style="fill:#263238"></path><path d="M324,120.87c-1.81-5.69-5.26-10.23-9.47-14.38-.06-.06,0-.13.08-.1,2.62,1.47,5,4.4,6.71,6.84a15.72,15.72,0,0,1,2.87,7.58C324.22,120.92,324,121,324,120.87Z" style="fill:#263238"></path><path d="M334.14,109.79a17.49,17.49,0,0,1,1,3.14,6,6,0,0,1-.05,3.13,2,2,0,0,1-.92,1.09,2.85,2.85,0,0,1-1.42.33,3.51,3.51,0,0,1-2.47-1.43l-1.49-1.89.74,2.29a9.75,9.75,0,0,1,.51,3.15,3.52,3.52,0,0,1-1,2.69,2,2,0,0,1-2.52.23,6.07,6.07,0,0,1-2-2.31l-1.33-2.52.44,2.8a9.32,9.32,0,0,1,.06,2.36,3.84,3.84,0,0,1-.75,2.07,1.81,1.81,0,0,1-1.81.61,4,4,0,0,1-1.78-1.37,31.13,31.13,0,0,1-2.64-4.18c-.42-.72-.83-1.45-1.28-2.16a6,6,0,0,0-1.66-1.87,6.53,6.53,0,0,1,1.46,2c.39.73.75,1.48,1.11,2.24a27,27,0,0,0,2.47,4.4,4.75,4.75,0,0,0,2.08,1.72,2.57,2.57,0,0,0,2.7-.8,4.66,4.66,0,0,0,1-2.54,9.66,9.66,0,0,0,0-2.63l-.89.29a6.89,6.89,0,0,0,2.31,2.76,2.94,2.94,0,0,0,1.92.46,3.24,3.24,0,0,0,1.76-.82,4.42,4.42,0,0,0,1.31-3.41,10.66,10.66,0,0,0-.61-3.45l-.75.41a4.22,4.22,0,0,0,3.15,1.6,3.45,3.45,0,0,0,1.73-.5,2.58,2.58,0,0,0,1.11-1.43,6.14,6.14,0,0,0-.16-3.38A14.62,14.62,0,0,0,334.14,109.79Z" style="fill:#263238"></path><path d="M336.85,130s3.82-1.33,4.57-3.6c2.38-7.17,4.3-23.16-5.22-22.32-3,.27-14.53,6.55-13.38,8.89,1.49,3,6.78,1.44,9.94-.09,0,0-3.16,7.43,1.36,11.17A8.07,8.07,0,0,1,336.85,130Z" style="fill:#a6a6a6"></path><path d="M337.05,104a12.43,12.43,0,0,0-3.5.79,26.73,26.73,0,0,0-3.3,1.43A41.5,41.5,0,0,0,324.1,110a6.88,6.88,0,0,0-1.36,1.34,2.73,2.73,0,0,0-.45,1,2,2,0,0,0,0,.61,1.6,1.6,0,0,0,.18.56,3,3,0,0,0,1.54,1.42,5.77,5.77,0,0,0,1.93.39,10.9,10.9,0,0,0,3.66-.62,24.69,24.69,0,0,0,3.36-1.38l-.56-.54a14.15,14.15,0,0,0-.74,2.65,13.91,13.91,0,0,0-.22,2.73,9.17,9.17,0,0,0,.48,2.69,6.92,6.92,0,0,0,1.31,2.34,8,8,0,0,1-1-2.43,9.88,9.88,0,0,1-.23-2.6,12.64,12.64,0,0,1,.37-2.59,13.33,13.33,0,0,1,.83-2.45l.44-1-1,.43a26.5,26.5,0,0,1-3.28,1.23,10.23,10.23,0,0,1-3.35.52,2.94,2.94,0,0,1-2.6-1.23c-.42-.7.49-1.65,1.35-2.35a32.73,32.73,0,0,1,2.85-2c1-.66,2-1.3,3-1.89A23.05,23.05,0,0,1,337.05,104Z" style="fill:#263238"></path><path d="M317.26,138.27l24.16-11.85,1.73,3.6a22.81,22.81,0,0,1,6.13,13.63,37.3,37.3,0,0,1,18.87,0s15-1.94,16.38,3.66-10.45,10.09-10.45,10.09a35.84,35.84,0,0,1-27.82,7.43S326,172.44,320,144.47Z" style="fill:#FCF400"></path><path d="M349.88,144.76a33.28,33.28,0,0,1-4.27,19.15c-.05.09.08.16.14.07a29.36,29.36,0,0,0,4.17-19.23S349.88,144.74,349.88,144.76Z" style="fill:#263238"></path><path d="M368.86,144.32a19.64,19.64,0,0,1,3.82,13.37c0,.09.12.11.13,0a17.93,17.93,0,0,0-3.91-13.42S368.85,144.3,368.86,144.32Z" style="fill:#263238"></path><path d="M321.5,141.83c1.81-.58,8.79-4.16,10.52-5.08s8.55-4.8,10.33-5.75c.09-.05,0-.2-.05-.15-1.77.9-8.9,4.27-10.64,5.16s-8.67,4.56-10.21,5.73A.05.05,0,0,0,321.5,141.83Z" style="fill:#263238"></path><path d="M374.08,157.4a35.69,35.69,0,0,1-25.85,7.66l26.54-21.72c4.22.11,9,.91,9.76,4C385.88,152.91,374.08,157.4,374.08,157.4Z" style="fill:#020100;opacity:0.1"></path><path d="M408.88,211.11c-.13.14-55.15,0-55.66-.61-.19-.21-.9-6-.9-6s-2.8-9.12-.25-16.06c1.18-3.2,4.43-9.65,4.43-9.65a31.41,31.41,0,0,1,2.27-12.94c.9-2.17,4.79-9.21,4.79-9.21,2.4-6.63,4-10.34,5.33-12.2,2.25-3.06,9.51-3.56,14.13-1.43,3.34,1.54,6.44,7.9,10.05,14.76,0,0,3.35,5.14,6,9.6a30.62,30.62,0,0,1,3.63,11c4.47,8.63,7.31,14.42,7.49,18.31a27.1,27.1,0,0,1-.85,9.21S409.05,210.92,408.88,211.11Z" style="fill:#FCF400"></path><path d="M354.33,205.85c1.72,0,3.45.13,5.17.17s3.28,0,4.92.06c3.37.1,6.74.24,10.1.34,6.74.21,13.47.37,20.21.54l5.64.13c2,0,3.92.2,5.88.26a.07.07,0,0,1,0,.14c-1.72,0-3.45.17-5.17.17h-4.93c-3.37,0-6.74-.07-10.11-.14-6.73-.14-13.47-.34-20.2-.66-1.88-.08-3.75-.24-5.63-.39s-3.93-.17-5.87-.39C354.21,206.05,354.19,205.85,354.33,205.85Z" style="fill:#263238"></path><path d="M357.84,180.08a86.67,86.67,0,0,0,17.14,3,79.48,79.48,0,0,0,17.16-.76,83.24,83.24,0,0,0,9.5-2.05c.09,0,.13.11,0,.14a72,72,0,0,1-34.25,2.22,61,61,0,0,1-9.62-2.43A.06.06,0,1,1,357.84,180.08Z" style="fill:#263238"></path><path d="M363.15,160.74a36.45,36.45,0,0,0,11.61,2.18,64.14,64.14,0,0,0,12.13-1c2.24-.38,4.48-.79,6.71-1.25.09,0,.14.12,0,.14-7.85,1.85-16.08,3.34-24.13,2a26.88,26.88,0,0,1-6.41-1.9C363,160.84,363.07,160.71,363.15,160.74Z" style="fill:#263238"></path><path d="M374.22,141.41s-4.85,35-4.94,69.74l-1.51,0s.52-46.45,5.63-69.6Z" style="fill:#ebebeb"></path><path d="M371.48,154.64c3.34.14,8.5-6.36,9.9-10.75.09-.3-.88-3.08-1.91-6.51-.61-2.09-1.25-4.43-1.67-6.6l-13,6a35.47,35.47,0,0,1,2.95,8.1,4.87,4.87,0,0,1,.08.91s0,.09,0,.15C367.9,147.66,368.24,154.51,371.48,154.64Z" style="fill: rgb(221, 106, 87);"></path><path d="M367.83,145.76a.66.66,0,0,1,0,.15,9.77,9.77,0,0,0,1.42-.19c7.86-1.72,7.83-11.75,7.66-14.54l-3.25,1.5-8.87,4.08a34.79,34.79,0,0,1,2.95,8.09A4.15,4.15,0,0,1,367.83,145.76Z" style="fill:#263238"></path><path d="M376.3,116.86c2.2,4.66,1.68,19.13-1.33,22.77-4.36,5.29-12.53,6.93-17.28,1.45-4.61-5.32-3.6-24.15-.14-27.57C362.64,108.47,373.05,110,376.3,116.86Z" style="fill: rgb(221, 106, 87);"></path><path d="M363.76,128s.08.05.08.09c-.06,1,0,2.1.9,2.45,0,0,0,.06,0,.05C363.66,130.44,363.55,128.94,363.76,128Z" style="fill:#263238"></path><path d="M364.67,127c1.57-.07,1.59,3.08.14,3.14S363.35,127.1,364.67,127Z" style="fill:#263238"></path><path d="M358.23,127.89s-.07,0-.07.09c0,1-.08,2.1-1,2.43,0,0,0,.06,0,.05C358.28,130.3,358.42,128.81,358.23,127.89Z" style="fill:#263238"></path><path d="M357.35,126.88c-1.57-.1-1.66,3-.21,3.14S358.67,127,357.35,126.88Z" style="fill:#263238"></path><path d="M366.26,126.46a11.12,11.12,0,0,1-1.29,0,2,2,0,0,1-1.33-.2.66.66,0,0,1-.19-.79,1.66,1.66,0,0,1,1.48-.77,2.48,2.48,0,0,1,1.69.47A.71.71,0,0,1,366.26,126.46Z" style="fill:#263238"></path><path d="M356.12,125.31a12.77,12.77,0,0,0,1.25-.34,2.09,2.09,0,0,0,1.21-.58.66.66,0,0,0-.05-.81,1.62,1.62,0,0,0-1.64-.3,2.43,2.43,0,0,0-1.47.94A.71.71,0,0,0,356.12,125.31Z" style="fill:#263238"></path><path d="M365.11,136.7c-.23.23-.46.54-.82.58a2.63,2.63,0,0,1-1.05-.24,0,0,0,0,0,0,.05,1.33,1.33,0,0,0,1.24.52,1,1,0,0,0,.76-.87C365.22,136.69,365.14,136.66,365.11,136.7Z" style="fill:#263238"></path><path d="M364.06,133.79a3.31,3.31,0,0,1-2.2,1.49,4.38,4.38,0,0,1-1.2.07.83.83,0,0,1-.22,0l-.22,0c-.11,0-.17-.11-.19-.22h0V135h0v-.09c0-.75,0-1.89,0-1.89-.27.14-1.66.78-1.65.39a50.37,50.37,0,0,1,1.21-10.06.09.09,0,0,1,.18,0c0,3.13-.62,6.22-.71,9.37a5.38,5.38,0,0,1,1.56-.49c.11,0-.16,2.2-.12,2.54v0a4.6,4.6,0,0,0,3.43-1.1C364,133.64,364.12,133.71,364.06,133.79Z" style="fill:#263238"></path><path d="M372.91,124.88c-1.31-2.62-.36-7.45-1.91-8.5-3.34-2.27-8.73,3.69-12.91,4.29s-5.77-1.85-5.48-5.24,2.78-6,7.24-7.28a17.2,17.2,0,0,1,11.69,1.15s-1.24-1.51-.93-2.07,2.52.75,3.21,1.34a6.17,6.17,0,0,1,1.26,1.82,6.76,6.76,0,0,1,1.83-.45,3.94,3.94,0,0,1,2.55.75c.1.23-1.35.62-2.37.82,0,0,2.27,2.3,2.53,4.49s-1.74,13.08-2.54,13.31C376.05,129.59,373.44,126,372.91,124.88Z" style="fill:#263238"></path><path d="M376.65,111.3s-.08,0,0,.06a7,7,0,0,1,2.61,2.8,8.73,8.73,0,0,1,.66,4.52,41.91,41.91,0,0,1-2.16,8.59c0,.08.11.13.14,0a30.47,30.47,0,0,0,2.34-9.26C380.32,115.37,379.3,112.43,376.65,111.3Z" style="fill:#263238"></path><path d="M371,115.3a9.79,9.79,0,0,0-3.65.74,14.09,14.09,0,0,0-2.94,2,14.24,14.24,0,0,1-7.21,3.08,0,0,0,0,0,0,0,12.49,12.49,0,0,0,6.78-2.45,30.9,30.9,0,0,1,3-2.17,12.87,12.87,0,0,1,4-1A.11.11,0,0,0,371,115.3Z" style="fill:#263238"></path><path d="M368.89,108.48a19.8,19.8,0,0,0-5.44-1,15.35,15.35,0,0,0-5.27.53c-2.94.9-5.44,3.19-5.72,6.37a6.59,6.59,0,0,0,1.25,4.61c.06.08.19,0,.14-.1a6.83,6.83,0,0,1,.45-8.18c2.17-2.47,5.61-3.11,8.75-3a28.67,28.67,0,0,1,5.83.84S368.9,108.49,368.89,108.48Z" style="fill:#263238"></path><path d="M365,132.73a4.09,4.09,0,0,1-3.63-4.52h0a4.1,4.1,0,1,1,4.65,4.51A4.35,4.35,0,0,1,365,132.73ZM362,128.27a3.56,3.56,0,1,0,3.92-3.15,3.69,3.69,0,0,0-.88,0A3.56,3.56,0,0,0,362,128.27Z" style="fill:#FCF400"></path><path d="M356.37,132.91c-1.68,0-3.09-1.77-3.14-4A4.88,4.88,0,0,1,354,126a2.55,2.55,0,0,1,4.37-.1,4.83,4.83,0,0,1,.93,2.85c.05,2.14-1.13,3.93-2.69,4.15Zm-1.89-6.61a4.27,4.27,0,0,0-.7,2.56c0,2,1.2,3.53,2.58,3.5s2.47-1.65,2.43-3.61a4.46,4.46,0,0,0-.82-2.53,2.21,2.21,0,0,0-1.77-1l-.21,0A2.27,2.27,0,0,0,354.48,126.3Z" style="fill:#FCF400"></path><path d="M361.56,128.68l.34-.43c-.64-.51-2.09-1.18-3.07-.08l.41.36C360.12,127.55,361.5,128.63,361.56,128.68Z" style="fill:#FCF400"></path><path d="M379.85,129.31l.48-.26c-.12-.22-1.23-2.2-2.46-2.37s-8.48.7-8.79.74l.06.55c2.1-.25,7.77-.87,8.66-.74S379.56,128.77,379.85,129.31Z" style="fill:#FCF400"></path><path d="M375,128.78s2.62-5,4.83-4.09.65,7.8-1.67,9a2.5,2.5,0,0,1-3.49-.92Z" style="fill: rgb(221, 106, 87);"></path><path d="M379.3,126.67a0,0,0,1,1,0,.06c-1.62.9-2.31,2.6-2.74,4.32a1.38,1.38,0,0,1,2-.63c.05,0,0,.1,0,.1a1.51,1.51,0,0,0-1.6.74,7.8,7.8,0,0,0-.64,1.45c-.06.17-.34.12-.31-.06v-.05C375.69,130.43,377,127.18,379.3,126.67Z" style="fill:#263238"></path><path d="M378.47,133.76c1.08-.2,2.22,4.35,3.12,5.6.68,1,3.05,2.29,3.61,4.17.66,2.19-2,6.19-7.94,9.93-3.94,2.49-13.75,4.45-17.59.59-1.27-1.28-.28-4.49-.59-6.05s-3.56-3.19-1.09-6.59A13,13,0,0,0,370.88,143C374.82,141.44,378.47,133.76,378.47,133.76Z" style="fill:#455a64"></path><polygon points="306.74 152.35 288.96 195.06 301.28 150.46 306.74 152.35" style="fill:#37474f"></polygon><rect x="299.49" y="148.61" width="9.98" height="2.87" transform="translate(65.54 -91.05) rotate(19.02)" style="fill:#37474f"></rect><path d="M387.5,157.45c-5.74,14.87-27.17,42.34-34.3,41.38-10.65-1.44-35.44-4.28-43.64-7.81-3.07-1.33,4.94-27,8.19-25.56,3.9,1.77,34.11,7.29,35.11,6.77s15.88-13.57,26.12-21C388.26,144.52,389.89,151.25,387.5,157.45Z" style="fill: rgb(221, 106, 87);"></path><path d="M289.32,155.47a4.06,4.06,0,0,0-.4,4.62,6,6,0,0,0-3.32,2.4c-1.29,2.12,1.46,5.08,1.46,5.08a7.41,7.41,0,0,0-3.1,3.1c-1,2.15,1.32,5.53,1.32,5.53a6.56,6.56,0,0,0-1,4.44c.45,2.65,6.64,6.52,10.39,8.08s15.15,2.83,17.44,3.24l10.17-25.19s-14-10.93-18.71-12.14C299.63,153.61,291.45,153.11,289.32,155.47Z" style="fill:#c7c7c7"></path><path d="M289.25,159.77c4.44.08,8.62,1.48,12.87,2.63.09,0,.05.17,0,.14-4.22-1.19-8.61-1.53-12.86-2.56A.11.11,0,0,1,289.25,159.77Z" style="fill:#263238"></path><path d="M287.27,167.29a11.64,11.64,0,0,1,2.94.74c1,.33,2,.68,3,1.05,2,.73,4,1.51,6,2.34.09,0,.05.19,0,.15-2-.73-4-1.42-6.09-2.06-1-.32-2.05-.64-3.08-.94a13.3,13.3,0,0,1-2.86-1A.15.15,0,0,1,287.27,167.29Z" style="fill:#263238"></path><path d="M285.37,176.23A8,8,0,0,1,288,177l2.74,1c1.84.68,3.68,1.37,5.53,2a.08.08,0,1,1,0,.15c-1.89-.62-3.79-1.22-5.67-1.86l-2.78-1a7.62,7.62,0,0,1-2.43-1.09S285.32,176.23,285.37,176.23Z" style="fill:#263238"></path><path d="M312.11,192l10.17-25.19,4.84.52a30.87,30.87,0,0,1,24.73,3.63A28.81,28.81,0,0,1,367.53,159s13.64-13.34,19.63-10.52-4.24,21.92-4.24,21.92-3.23,17.93-21,24.45c0,0-12.53,15.43-43.4-.32Z" style="fill:#FCF400"></path><path d="M352.27,172.47a39.18,39.18,0,0,1,8.55,20.69c0,.12.19.12.18,0a34.7,34.7,0,0,0-8.69-20.72S352.26,172.44,352.27,172.47Z" style="fill:#263238"></path><path d="M368.88,159.61A22.81,22.81,0,0,1,381.26,170c.05.09.19,0,.14-.06a20.79,20.79,0,0,0-12.5-10.41S368.85,159.6,368.88,159.61Z" style="fill:#263238"></path><path d="M318.21,191.56c1-1.64,3.74-9,4.42-10.81s3.13-9.3,3.81-11.19c0-.1-.1-.18-.14-.08-.71,1.86-3.75,9.13-4.44,11s-3.39,9.19-3.75,11.08C318.1,191.59,318.17,191.62,318.21,191.56Z" style="fill:#263238"></path><path d="M353.51,200.05a19,19,0,0,0,4.5-2.16,19.5,19.5,0,0,0,2-1.48,16.16,16.16,0,0,0,1.76-1.75l0,0,.06,0a37.28,37.28,0,0,0,7.31-3.92,29.92,29.92,0,0,0,6.07-5.6,41.14,41.14,0,0,0,4.48-7,34.38,34.38,0,0,0,3-7.74v0h0l3-5.46-2.71,5.63,0-.06a34.22,34.22,0,0,1-2.8,8,42.6,42.6,0,0,1-4.48,7.17,28.75,28.75,0,0,1-6.26,5.7,32.37,32.37,0,0,1-7.53,3.83l.11-.07a16.19,16.19,0,0,1-1.87,1.74,15.78,15.78,0,0,1-2.1,1.42A17.78,17.78,0,0,1,353.51,200.05Z" style="fill:#263238"></path><path d="M383.73,168.8a10.94,10.94,0,0,1,1-1.14l.53-.53c.18-.17.37-.33.54-.52a4.31,4.31,0,0,1-.89,1.22A7.27,7.27,0,0,1,383.73,168.8Z" style="fill:#263238"></path><path d="M360.57,162.23a20.52,20.52,0,0,1,3.27-2.07,18.64,18.64,0,0,1,3.63-1.43l-.12.06c.61-.59,1.23-1.16,1.88-1.69.33-.27.66-.53,1-.78a7.16,7.16,0,0,1,1.1-.64,22.72,22.72,0,0,0-1.84,1.7l-1.78,1.77,0,0-.06,0A33.73,33.73,0,0,0,360.57,162.23Z" style="fill:#263238"></path><path d="M370.17,155.72a10.92,10.92,0,0,1-.86,1.24l-.48.58c-.16.19-.33.37-.48.57a4.4,4.4,0,0,1,.76-1.31A7.72,7.72,0,0,1,370.17,155.72Z" style="fill:#263238"></path></g><g id="freepik--Ice--inject-239"><polygon points="189.76 450.01 191.35 445.69 195.23 444.56 196.86 442.51 201.35 444.28 203.35 447.46 205.05 448.55 205.75 450.01 200.47 452.27 189.76 450.01" style="fill:#FCF400"></polygon><polygon points="189.76 450.01 191.35 445.69 195.23 444.56 196.86 442.51 201.35 444.28 203.35 447.46 205.05 448.55 205.75 450.01 200.47 452.27 189.76 450.01" style="fill:#fff;opacity:0.5"></polygon><polygon points="189.76 450.01 193.33 450.76 191.35 445.69 189.76 450.01" style="fill:#fff"></polygon><polygon points="195.23 444.56 198.18 444.98 196.86 442.51 195.23 444.56" style="fill:#fff"></polygon><polygon points="200.47 452.27 202.52 449.94 205.05 448.55 205.75 450.01 200.47 452.27" style="fill:#FCF400"></polygon><polygon points="201.35 444.28 201.35 446.78 203.35 447.46 201.35 444.28" style="fill:#FCF400"></polygon><polygon points="195.65 448.37 198.74 448.93 201.35 448.22 195.65 448.37" style="fill:#FCF400"></polygon><polygon points="193.5 446.25 195.12 447.3 198.32 447.18 193.5 446.25" style="fill:#fff"></polygon><polygon points="154.82 453.22 165.24 455.88 188.89 453.22 184.2 440.81 171.86 437.81 162.69 445.46 156.04 447.46 154.82 453.22" style="fill:#FCF400"></polygon><polygon points="154.82 453.22 165.24 455.88 188.89 453.22 184.2 440.81 171.86 437.81 162.69 445.46 156.04 447.46 154.82 453.22" style="fill:#fff;opacity:0.5"></polygon><polygon points="162.69 445.46 170.45 444.47 171.86 437.81 162.69 445.46" style="fill:#fff"></polygon><polygon points="156.04 447.46 163.8 452.67 173.06 451.67 178.37 454.41 165.24 455.88 154.82 453.22 156.04 447.46" style="fill:#fff"></polygon><polygon points="188.89 453.22 165.24 455.88 173.06 451.67 188.89 453.22" style="fill:#FCF400"></polygon><polygon points="175.99 446.85 180.73 445.46 182.76 442.86 182.48 446.85 175.99 446.85" style="fill:#FCF400"></polygon><polygon points="322.95 461.09 329.75 462.82 345.18 461.09 342.12 452.99 334.06 451.03 328.08 456.02 323.74 457.33 322.95 461.09" style="fill:#FCF400"></polygon><polygon points="322.95 461.09 329.75 462.82 345.18 461.09 342.12 452.99 334.06 451.03 328.08 456.02 323.74 457.33 322.95 461.09" style="fill:#fff;opacity:0.5"></polygon><polygon points="328.08 456.02 333.14 455.37 334.06 451.03 328.08 456.02" style="fill:#fff"></polygon><polygon points="323.74 457.33 328.81 460.73 334.85 460.07 338.31 461.86 329.75 462.82 322.95 461.09 323.74 457.33" style="fill:#fff"></polygon><polygon points="345.18 461.09 329.75 462.82 334.85 460.07 345.18 461.09" style="fill:#FCF400"></polygon><polygon points="336.76 456.93 339.85 456.02 341.18 454.32 340.99 456.93 336.76 456.93" style="fill:#FCF400"></polygon><polygon points="203.26 455.88 206.59 451.67 212.02 452.11 218.78 456.44 211.02 456.99 206.3 457.57 203.26 455.88" style="fill:#FCF400"></polygon><polygon points="203.26 455.88 206.59 451.67 212.02 452.11 218.78 456.44 211.02 456.99 206.3 457.57 203.26 455.88" style="fill:#fff;opacity:0.5"></polygon><polygon points="212.2 454.33 214.94 455.54 216.06 455.37 212.2 454.33" style="fill:#FCF400"></polygon><polygon points="203.26 455.88 206.38 455.54 206.59 451.67 203.26 455.88" style="fill:#fff"></polygon><polygon points="206.3 457.57 209.33 456.29 213.32 456.83 206.3 457.57" style="fill:#FCF400"></polygon><polygon points="216.01 453.27 218.23 451.92 221.56 451.92 221.56 453.92 219.89 454.58 216.01 453.27" style="fill:#FCF400"></polygon><polygon points="216.01 453.27 218.23 451.92 221.56 451.92 221.56 453.92 219.89 454.58 216.01 453.27" style="fill:#fff;opacity:0.5"></polygon><polygon points="219.89 454.58 220.5 453.14 221.56 451.92 221.56 453.92 219.89 454.58" style="fill:#FCF400"></polygon><polygon points="220.31 454.03 220.78 453.61 220.93 453.25 220.93 453.74 220.31 454.03" style="fill:#fff"></polygon><path d="M216,453.27l2.22-.16s-.51-.88-.62-.81Z" style="fill:#fff"></path><polygon points="268.36 446.39 271.19 438.7 278.08 436.71 280.98 433.05 288.98 436.21 292.53 441.86 295.54 443.79 296.79 446.39 287.4 450.42 268.36 446.39" style="fill:#FCF400"></polygon><polygon points="268.36 446.39 271.19 438.7 278.08 436.71 280.98 433.05 288.98 436.21 292.53 441.86 295.54 443.79 296.79 446.39 287.4 450.42 268.36 446.39" style="fill:#fff;opacity:0.5"></polygon><polygon points="268.36 446.39 274.7 447.74 271.19 438.7 268.36 446.39" style="fill:#fff"></polygon><polygon points="278.08 436.71 283.34 437.45 280.98 433.05 278.08 436.71" style="fill:#fff"></polygon><polygon points="287.4 450.42 291.05 446.27 295.54 443.79 296.79 446.39 287.4 450.42" style="fill:#FCF400"></polygon><polygon points="288.98 436.21 288.98 440.65 292.53 441.86 288.98 436.21" style="fill:#FCF400"></polygon><polygon points="278.83 443.48 284.32 444.48 288.98 443.22 278.83 443.48" style="fill:#FCF400"></polygon><polygon points="275.01 439.7 277.88 441.57 283.57 441.36 275.01 439.7" style="fill:#fff"></polygon><polygon points="265.71 451.84 268.66 449.84 271.62 450.51 272.94 451.84 272.94 454.5 269.33 454.83 265.71 451.84" style="fill:#FCF400"></polygon><polygon points="265.71 451.84 268.66 449.84 271.62 450.51 272.94 451.84 272.94 454.5 269.33 454.83 265.71 451.84" style="fill:#fff;opacity:0.5"></polygon><polygon points="269.33 454.83 265.72 451.84 268.66 449.84 268.2 451.3 269.33 454.83" style="fill:#fff"></polygon><polygon points="272.94 454.5 271.81 452.34 272.94 451.84 272.94 454.5" style="fill:#FCF400"></polygon><polygon points="270.01 451.39 271.65 451.64 270.98 452.61 270.01 451.39" style="fill:#FCF400"></polygon><polygon points="292.33 455.99 295.53 457.32 300.73 457.32 305.91 455.33 304.22 452.34 299.12 449.18 296.12 452.83 293.77 453.92 292.33 455.99" style="fill:#FCF400"></polygon><polygon points="292.33 455.99 295.53 457.32 300.73 457.32 305.91 455.33 304.22 452.34 299.12 449.18 296.12 452.83 293.77 453.92 292.33 455.99" style="fill:#fff;opacity:0.5"></polygon><polygon points="296.12 452.83 299.12 453.58 299.12 449.18 296.12 452.83" style="fill:#fff"></polygon><polygon points="292.33 455.99 296.12 452.83 293.77 453.92 292.33 455.99" style="fill:#fff"></polygon><polygon points="304.22 452.34 301.84 454.12 305.91 455.33 304.22 452.34" style="fill:#FCF400"></polygon><polygon points="295.53 457.32 298.76 455.72 300.73 457.32 295.53 457.32" style="fill:#FCF400"></polygon><path d="M299.12,453.58l1.87.57s.84,1.68.76,1.57S299.12,453.58,299.12,453.58Z" style="fill:#FCF400"></path><polygon points="295.75 455.12 298.19 455.12 297.62 455.72 295.75 455.12" style="fill:#fff"></polygon></g></svg>