<svg xmlns="http://www.w3.org/2000/svg" viewBox="0 0 750 500"><g id="freepik--background-complete--inject-76"><path d="M552.49,0H371.42s36.21,43.33,93.43,43.33S552.49,0,552.49,0Z" style="fill:#ebebeb"></path><g style="opacity:0.2"><path d="M381.49,2.58c23.11,17.16,50.35,31.57,79.57,33,14.58.57,29-3.25,42.23-9.2A146.8,146.8,0,0,0,539.82,2.58a140.34,140.34,0,0,1-36.21,24.48c-16.52,7.77-35.35,11.61-53.53,8.4-25.31-4.34-48.62-17.12-68.59-32.88Z"></path><path d="M392.62,2.58a137.33,137.33,0,0,0,61.14,27.85c-2.53-.4-6-.76-8.41-1.32A112.21,112.21,0,0,1,392.62,2.58Z"></path><path d="M531.29,2.58c-21.68,18-51.57,28.59-79.63,22.15a87.75,87.75,0,0,0,10.58,1.16c24.86,1.23,49.34-8.6,69-23.31Z"></path><path d="M408.85,2.58C419.89,12.22,434,18,448.39,20.2a94.49,94.49,0,0,0,29.07-.71A116.11,116.11,0,0,0,518.11,3.55a107.11,107.11,0,0,1-29.74,14.23A100.45,100.45,0,0,1,463,22c-19.54.6-39.77-5.9-54.13-19.38Z"></path></g><path d="M197.51,0H378.58s-36.21,43.33-93.43,43.33S197.51,0,197.51,0Z" style="fill:#ebebeb"></path><g style="opacity:0.2"><path d="M368.51,2.58c-20,15.76-43.28,28.54-68.59,32.88-18.18,3.21-37-.63-53.53-8.4A140.34,140.34,0,0,1,210.18,2.58a146.8,146.8,0,0,0,36.53,23.78c13.22,6,27.65,9.77,42.23,9.2,29.22-1.41,56.45-15.82,79.57-33Z"></path><path d="M357.38,2.58a112.21,112.21,0,0,1-52.73,26.53c-2.44.56-5.91.93-8.41,1.32A137.33,137.33,0,0,0,357.38,2.58Z"></path><path d="M218.71,2.58c19.71,14.71,44.19,24.54,69,23.31a87.75,87.75,0,0,0,10.58-1.16c-28.06,6.44-57.95-4.14-79.63-22.15Z"></path><path d="M341.15,2.58C326.79,16.06,306.56,22.56,287,22a100.45,100.45,0,0,1-25.39-4.18A107.52,107.52,0,0,1,231.89,3.55a116.11,116.11,0,0,0,40.65,15.94,94.49,94.49,0,0,0,29.07.71c14.4-2.2,28.5-8,39.54-17.62Z"></path></g><path d="M220-.14H0S44,65.42,113.53,65.42,220-.14,220-.14Z" style="fill:#dbdbdb"></path><g style="opacity:0.2"><path d="M12.24,3.77C35.15,25.38,64.17,45.61,95.36,52.25c18.19,4,37.3.87,54.08-6.86,21.12-9.62,39.68-24.45,55.18-41.62A174.22,174.22,0,0,1,162.19,39.7c-16,9.48-34.35,16-53.12,15.22C72.5,53,37.71,28.64,12.24,3.77Z"></path><path d="M25.76,3.77c17.64,18,39.6,32.18,63.8,39.42,1.52.53,3.64,1.07,5.22,1.43l5.28,1.28A115.72,115.72,0,0,1,69,36.2,136.27,136.27,0,0,1,25.76,3.77Z"></path><path d="M194.27,3.77C169.89,29,132.83,47.11,97.51,37.28c1.15.23,3.82.74,4.91,1l5,.68c32.54,3.35,63.81-13.35,86.88-35.17Z"></path><path d="M45.49,3.77A86.9,86.9,0,0,0,92.7,30.48c24.24,4.66,49.43-2.42,70.39-14.78A117.31,117.31,0,0,0,178.24,5.23a121.82,121.82,0,0,1-35.61,21.12c-2.07.77-4.47,1.51-6.58,2.25l-6.71,1.81-6.82,1.35-6.9.86-4.63.21c-24.73,1-49.54-10.26-65.5-29.06Z"></path></g><path d="M750-.14H530s44,65.56,113.53,65.56S750-.14,750-.14Z" style="fill:#dbdbdb"></path><g style="opacity:0.2"><path d="M542.22,3.77c22.91,21.61,51.94,41.84,83.12,48.48,18.19,4,37.3.87,54.09-6.86,21.11-9.62,39.67-24.45,55.18-41.62A174.45,174.45,0,0,1,692.17,39.7c-16,9.48-34.35,16-53.12,15.22-36.57-2-71.36-26.28-96.83-51.15Z"></path><path d="M555.74,3.77c17.64,18,39.6,32.18,63.8,39.42,1.52.53,3.64,1.07,5.22,1.43L630,45.9A115.72,115.72,0,0,1,599,36.2,136.27,136.27,0,0,1,555.74,3.77Z"></path><path d="M724.25,3.77C699.87,29,662.81,47.11,627.49,37.28c1.15.23,3.82.74,4.92,1l5,.68c32.54,3.35,63.81-13.35,86.88-35.17Z"></path><path d="M575.47,3.77a86.9,86.9,0,0,0,47.21,26.71c24.24,4.66,49.43-2.42,70.39-14.78A117.31,117.31,0,0,0,708.22,5.23a121.69,121.69,0,0,1-35.61,21.12c-2.07.77-4.47,1.51-6.58,2.25l-6.71,1.81-6.82,1.35-6.9.86-4.63.21c-24.73,1-49.54-10.26-65.5-29.06Z"></path></g><rect x="89.49" y="282.15" width="85.87" height="11.83" style="fill:#c7c7c7"></rect><polygon points="104.98 293.98 99.11 293.98 81.42 473.66 87.29 473.66 104.98 293.98" style="fill:#dbdbdb"></polygon><polygon points="159.88 293.98 165.74 293.98 183.44 473.66 177.57 473.66 159.88 293.98" style="fill:#dbdbdb"></polygon><rect x="129.5" y="293.98" width="5.87" height="179.69" style="fill:#dbdbdb"></rect><rect x="129.84" y="352.22" width="5.18" height="83.28" transform="translate(526.29 261.43) rotate(90)" style="fill:#dbdbdb"></rect><rect x="332.06" y="282.15" width="85.87" height="11.83" style="fill:#c7c7c7"></rect><polygon points="347.55 293.98 341.69 293.98 323.99 473.66 329.86 473.66 347.55 293.98" style="fill:#dbdbdb"></polygon><polygon points="402.45 293.98 408.31 293.98 426.01 473.66 420.14 473.66 402.45 293.98" style="fill:#dbdbdb"></polygon><rect x="372.07" y="293.98" width="5.86" height="179.69" style="fill:#dbdbdb"></rect><rect x="372.41" y="352.22" width="5.18" height="83.28" transform="translate(768.86 18.86) rotate(90)" style="fill:#dbdbdb"></rect><rect x="574.64" y="282.15" width="85.87" height="11.83" style="fill:#c7c7c7"></rect><polygon points="590.12 293.98 584.26 293.98 566.56 473.66 572.43 473.66 590.12 293.98" style="fill:#dbdbdb"></polygon><polygon points="645.02 293.98 650.88 293.98 668.58 473.66 662.71 473.66 645.02 293.98" style="fill:#dbdbdb"></polygon><rect x="614.64" y="293.98" width="5.87" height="179.69" style="fill:#dbdbdb"></rect><rect x="614.98" y="352.22" width="5.18" height="83.28" transform="translate(1011.43 -223.71) rotate(90)" style="fill:#dbdbdb"></rect></g><g id="freepik--Floor--inject-76"><path d="M63,473.66c199.87-.61,424.07-.62,623.94,0-199.87.62-424.07.61-623.94,0Z" style="fill:#263238"></path></g><g id="freepik--Circles--inject-76"><circle cx="182.71" cy="205.87" r="129.66" transform="translate(-92.06 189.49) rotate(-45)" style="fill:#FCF400;opacity:0.30000000000000004"></circle><circle cx="375" cy="205.87" r="157.28" transform="translate(-35.74 325.46) rotate(-45)" style="fill:#FCF400;opacity:0.30000000000000004"></circle><circle cx="567.29" cy="205.87" r="129.66" transform="translate(20.58 461.43) rotate(-45)" style="fill:#FCF400;opacity:0.30000000000000004"></circle></g><g id="freepik--character-1--inject-76"><path d="M254.06,68.23s-2.09-5.81-6.35-5.81-5.74,3.78-8.35,4-8-1-11,1.19-2.44,7.29-3.83,8.67-5.57,1.26-6.87,4.89c-1.51,4.22,1.06,7,.72,9.25-.57,3.69-3.55,6.46-1.81,11,1.87,4.85,6.15,5.11,8.8,6.86s2.64,6.66,8.64,7.48S242,113,245.62,112s8.53,1.66,12.53-.46,3.13-5.72,4.35-7.47,4.26-1.57,5.74-4.71-1.26-6.29-1.38-7.58c-.2-2.2,1.47-3.25,1.21-6.39s-4-5.62-4.7-6.63c-1.66-2.42.64-7-2.2-9.32A6.87,6.87,0,0,0,254.06,68.23Z" style="fill:#263238"></path><path d="M226.57,70.08c-.77,4.12-1.23,5.5-5.35,7-2.71,1.16-4.92,3.55-4.68,6.62,0,2.3,1.76,4.3,1.72,6.71a8.2,8.2,0,0,1-.87,2.28,15.5,15.5,0,0,0-1.41,4.3,7.18,7.18,0,0,0,.63,4.43c-1.87-2.67-1.09-6.23.08-9,.14-.36.49-1.23.61-1.59a3.8,3.8,0,0,0-.41-2.49c-2.55-4.88-1.46-9.92,4-11.93,4.12-1.2,4.36-2.37,5.65-6.25Z" style="fill:#263238"></path><path d="M254.85,112.4c4-.45,6.58-1.17,7.34-5.56a5.59,5.59,0,0,1,1.09-2.67c1.16-1,2.63-1.47,3.67-2.44A4.81,4.81,0,0,0,268.56,99c.69-2.2-.63-4.39-1.51-6.53a27.28,27.28,0,0,1,1.8,3.06,6.09,6.09,0,0,1-1.26,6.93,37.44,37.44,0,0,1-3.64,2.45,5.72,5.72,0,0,0-.84,2.19c-1,4.53-4,5.6-8.26,5.32Z" style="fill:#263238"></path><path d="M218.43,155.15l-4.67,20.54h58.46l-7.07-15.18c-1.7-15,.54-37.37-9.09-49.6-7.71-9.79-14.55-9.41-21.35-3.52-1.72,1.5-19.5,20.21-22.25,29.65C210.06,145.38,218.43,155.15,218.43,155.15Z" style="fill:#d3766a"></path><path d="M236.74,104.8c-15.31.64-42.87,1-47.27,1.14-9.51.34-34-2.09-42.26-2.57-5-.29-3.78,29.34-1,29.84s30.95-.83,43-1.83c13.65-1.14,36.18-7.19,47.59-10.76C255.47,114.81,246.81,104.38,236.74,104.8Z" style="fill:#d3766a"></path><path d="M157.51,106.09c-10.23-6.28-22.09-11.6-34.58-10.65A6.15,6.15,0,0,0,119.16,97C113.55,97.28,112,100,112,100c-5.13,1.9-6.31,4.92-6.31,4.92s-6.59.46-7,4.48c-.45,4.51,8.88,3,14.52,5.29,12.92,5.28,29.82,16.39,33.39,18.29Z" style="fill:#d3766a"></path><path d="M128.43,122.07c1.41,1.35.71,2.1-2.75,1.76s-16.86-4.63-18,.17,17.89,10.58,23.7,10.71,15.23-1.7,15.23-1.7C143.18,131.14,135.19,125.81,128.43,122.07Z" style="fill:#d3766a"></path><path d="M186.74,106c-.62,5.24-1.92,16.91-2.25,25.78-13.47.93-35.66,1.93-38.25,1.47a.37.37,0,0,1-.19-.09c-2.16.4-9.7,1.71-14.63,1.59-5.81-.13-24.81-5.89-23.7-10.71s14.46-.51,18-.17c3.11.31,4-.27,3.11-1.37a146.57,146.57,0,0,0-15.53-7.74c-5.64-2.3-15-.78-14.52-5.29.38-3.92,6.65-4.46,7-4.48a.09.09,0,0,1,0-.06c.19-.42,1.57-3.11,6.28-4.86,0,0,1.53-2.75,7.13-3.07,0,0,0,0,0,0h0a6.27,6.27,0,0,1,3.71-1.47c11-.83,21.45,3.16,30.76,8.4C163.33,104.6,178.22,105.9,186.74,106Z" style="fill:#FCF400"></path><path d="M130.69,110.74a88.88,88.88,0,0,0-11.58-4,90.08,90.08,0,0,0-13.3-1.69.11.11,0,0,1,0-.22,47.51,47.51,0,0,1,24.95,5.71C130.93,110.66,130.88,110.81,130.69,110.74Z" style="fill:#263238"></path><path d="M135,103.4c-3.81-1.23-10.52-3.35-23-3.24,0,0-.06-.07,0-.07a42.58,42.58,0,0,1,23.06,3.13C135.3,103.31,135.26,103.48,135,103.4Z" style="fill:#263238"></path><path d="M137.26,99.41c-6.56-1.84-10.93-2.18-18.08-2.42,0,0-.05-.07,0-.08,8.15-.57,11.17.14,18.17,2.28C137.59,99.27,137.51,99.48,137.26,99.41Z" style="fill:#263238"></path><path d="M236.46,106s-16.77,21.46-16.77,24.84c0,1.13,2.23,10.51,4.87,10.55s14.2-8.07,15.73-9.24,9.45-25.93,10.21-26.76,2.68,1,2.68,1-1.52,31.88-.81,34.07c4.35,13.47,12.78,20,12.78,20a158.86,158.86,0,0,1,7.07,15.18H213.76l4.67-20.54s-9.08-10.9-6-19.24,14.72-21.22,22.27-28.52A18.25,18.25,0,0,1,236.46,106Z" style="fill:#FCF400"></path><path d="M226.38,149.53a48.43,48.43,0,0,1,8.09,2.49c1.3.56,2.57,1.18,3.83,1.85.63.33,1.27.63,1.91.93a7.51,7.51,0,0,0,2.08.7c.06,0,.05.13,0,.12a11.72,11.72,0,0,1-2-.25,12.29,12.29,0,0,1-1.91-.65c-1.32-.55-2.62-1.17-3.94-1.73-2.67-1.14-5.33-2.28-8.06-3.18C226.19,149.77,226.25,149.5,226.38,149.53Z" style="fill:#263238"></path><path d="M219.22,151.82a51.7,51.7,0,0,1,6.93.3,33.58,33.58,0,0,1,3.42.61c.54.12,1.08.25,1.61.39s1.16.4,1.76.55c.06,0,.05.13,0,.12-.56-.12-1.14-.12-1.71-.19l-1.72-.23c-1.14-.16-2.28-.29-3.43-.46-2.28-.32-4.57-.62-6.86-.86C219.07,152,219.1,151.83,219.22,151.82Z" style="fill:#263238"></path><path d="M249.84,106.69c-.2,1.23-5.51,9.51-11.09,9.6-1.82,0-2.42-9.89-2.42-9.89l-.21-.72-3-10.11,11.56-8.5,1.67-1.14s.63,2.82,1.37,6.34c0,.17.07.33.11.5s.09.39.13.57c.11.53.23,1.06.34,1.6s.16.8.23,1.24.16.85.24,1.28A67.65,67.65,0,0,1,249.84,106.69Z" style="fill:#d3766a"></path><path d="M247.77,92.27a21.15,21.15,0,0,1-11.65,13.41l-3-10.11,11.56-8.5,1.67-1.14S247,88.75,247.77,92.27Z" style="fill:#263238"></path><path d="M219.52,78.54c-3.59,18.14,6.87,22.34,10.78,23.1,3.55.7,15.72,2.63,21.17-15s-1.85-25.07-9.89-27.1S223.11,60.41,219.52,78.54Z" style="fill:#d3766a"></path><path d="M223.66,78.23c.44,0,.84-.07,1.27-.11a2.05,2.05,0,0,0,1.28-.35.67.67,0,0,0,.1-.8,1.64,1.64,0,0,0-1.55-.58,2.39,2.39,0,0,0-1.6.65A.71.71,0,0,0,223.66,78.23Z" style="fill:#263238"></path><path d="M236.84,80.3a10.63,10.63,0,0,1-1.25-.25,2.12,2.12,0,0,1-1.23-.51.66.66,0,0,1,0-.8,1.63,1.63,0,0,1,1.6-.39,2.39,2.39,0,0,1,1.51.84A.7.7,0,0,1,236.84,80.3Z" style="fill:#263238"></path><path d="M226.05,80.77s-.1,0-.1.1c-.09,1.26-.41,2.68-1.58,3,0,0,0,.08,0,.07C225.77,83.87,226.17,82,226.05,80.77Z" style="fill:#263238"></path><path d="M225.07,79.35c-2-.36-2.57,3.66-.72,4S226.74,79.65,225.07,79.35Z" style="fill:#263238"></path><path d="M224.19,79.5c-.34.17-.71.51-1.1.48s-.71-.52-.93-1c0-.05-.06,0-.07,0-.13.77,0,1.6.73,1.86s1.25-.36,1.54-1.1C224.41,79.66,224.33,79.43,224.19,79.5Z" style="fill:#263238"></path><path d="M234,81.79s.09.08.08.13c-.19,1.24-.21,2.7.87,3.25,0,0,0,.08,0,.07C233.56,84.88,233.59,82.94,234,81.79Z" style="fill:#263238"></path><path d="M235.26,80.63c2,.1,1.68,4.14-.2,4.05S233.56,80.55,235.26,80.63Z" style="fill:#263238"></path><path d="M236.08,81c.3.24.58.66,1,.71s.81-.34,1.13-.74c0,0,.06,0,.06,0,0,.78-.37,1.56-1.13,1.65S236,82,235.85,81.22C235.83,81.08,236,80.87,236.08,81Z" style="fill:#263238"></path><path d="M232.4,92c-.3.3-.6.7-1.05.75a3.37,3.37,0,0,1-1.36-.3,0,0,0,0,0-.05.06,1.69,1.69,0,0,0,1.6.67,1.34,1.34,0,0,0,1-1.13C232.54,92,232.44,92,232.4,92Z" style="fill:#263238"></path><path d="M227.35,87.21S227,89.08,227,90c0,.09.21.14.51.17,0,0,0,0,0,0a4.21,4.21,0,0,0,4.16-1.39c.06-.08,0-.18-.13-.12a6.38,6.38,0,0,1-3.89.92c-.06-.25.69-3.18.55-3.19a7.5,7.5,0,0,0-2,.36c.61-3.91,1.84-7.69,2.39-11.59,0-.14-.19-.19-.23-.06a63.84,63.84,0,0,0-3.1,12.37C225.13,87.93,227,87.35,227.35,87.21Z" style="fill:#263238"></path><path d="M227.58,89.8a5.05,5.05,0,0,0,1.86,1.79,2.31,2.31,0,0,0,1.38.24c1-.16,1.15-1.08,1.05-1.89a5.52,5.52,0,0,0-.32-1.25A6.56,6.56,0,0,1,227.58,89.8Z" style="fill:#263238"></path><path d="M229.44,91.59a2.31,2.31,0,0,0,1.38.24c1-.16,1.15-1.08,1.05-1.89A2.38,2.38,0,0,0,229.44,91.59Z" style="fill:#ff9abb"></path><path d="M249.11,87.63c-3.78-.74-2.36-9.44-2.36-9.44s-2.06-1.26-3.91-6.09c0,0,1.08,4.09,3.3,6.1.37.34-12.38-3.36-11.78-13.54,0,0-4.56,8-14.13,9.29-.3,0,2.51-8.78,4.8-10.54a19.19,19.19,0,0,1,4.31-2.52,19,19,0,0,1,14.28-1c7.77,2.63,11.45,12,11.43,15.53C255,82.37,250.9,88,249.11,87.63Z" style="fill:#263238"></path><path d="M245.69,78.34c-7-1.61-11.84-7.17-11.11-14.52a.16.16,0,0,0-.31,0c-2.31,7.16,4.65,14,11.46,14.71C245.89,78.49,245.85,78.38,245.69,78.34Z" style="fill:#263238"></path><path d="M234.52,64.38s-.05-.06-.07,0c-2.51,3.39-5.55,9.66-10.8,8.42a.11.11,0,0,0-.06.21C228.52,74.61,233.26,68.5,234.52,64.38Z" style="fill:#263238"></path><path d="M246.38,85.82s4.37-5.53,6.9-3.94-1,9.77-4.13,10.73a3.13,3.13,0,0,1-4.08-1.93Z" style="fill:#d3766a"></path><path d="M252.21,84.2a0,0,0,0,1,0,.08C250,85,248.77,87,247.85,89a1.73,1.73,0,0,1,2.61-.32s0,.13-.07.11a1.93,1.93,0,0,0-2.15.55A9.34,9.34,0,0,0,247.13,91c-.11.18-.45.06-.37-.16a.08.08,0,0,0,0,0C246.89,88,249.25,84.3,252.21,84.2Z" style="fill:#263238"></path><path d="M260.3,61.22c1,3.12-9.05,10.2-22.81,14.54s-26,4.29-27,1.17c-.08-.24-.41-1.3-.41-1.3.65-3.27,10.84-8.18,23.55-12.19s24.08-5.85,26.31-3.44Z" style="fill:#263238"></path><path d="M259.92,60c1,3.12-9.05,10.2-22.81,14.54s-26.05,4.29-27,1.17,9.38-9.15,23.14-13.49S258.94,56.89,259.92,60Z" style="fill:#37474f"></path><path d="M246.68,41.55l2.85,21.21A41,41,0,0,1,235.69,70a40.9,40.9,0,0,1-15.51,2l-9.84-19Z" style="fill:#263238"></path><ellipse cx="228.51" cy="47.27" rx="19.05" ry="4.13" transform="translate(-3.64 70.88) rotate(-17.49)" style="fill:#37474f"></ellipse><path d="M255.12,43.51l-1.43.63,1.39-.24c0,.49-.11,1-.19,1.44l-2.11.21,1.92.71c-.06.27-.12.53-.2.79a15.57,15.57,0,0,1-2,3.92l-.36.53q-.37.54-.78,1.08l-.33.43c-.75,1-1.56,1.92-2.35,2.81l-1.13-.88.88,1.16c-2.47,2.7-4.72,4.64-4.71,4.37a43.92,43.92,0,0,1,0-7l.06-.63a19.83,19.83,0,0,1,.83-4l3.09,1.26L245.4,47c.16-.33.33-.67.52-1l2.19,1.86-1.75-2.69c.59-1.08,1.27-2.24,2-3.42h0l.2-.33.76-1.23c.06-.09.12-.18.17-.27l1.13-1.76,1.83.94-1.52-1.41.44-.66,1.3,1.22-.9-1.82a33.69,33.69,0,0,1,2.58-3.37A36.28,36.28,0,0,1,255.12,43.51Z" style="fill:#FCF400"></path><path d="M253.46,36.26c-.88,8.8-6.24,15.94-9.69,23.82-.05.12.15.22.21.1,4.1-7.45,9.28-15.14,9.58-23.91A.05.05,0,1,0,253.46,36.26Z" style="fill:#FCF400"></path><path d="M253.46,36.26c-.88,8.8-6.24,15.94-9.69,23.82-.05.12.15.22.21.1,4.1-7.45,9.28-15.14,9.58-23.91A.05.05,0,1,0,253.46,36.26Z" style="opacity:0.1"></path><path d="M251.11,43.33a9.44,9.44,0,0,0-2.87-2,.12.12,0,0,0-.12.19,9.16,9.16,0,0,0,2.84,2C251.07,43.56,251.22,43.42,251.11,43.33Z" style="fill:#FCF400"></path><path d="M251.11,43.33a9.44,9.44,0,0,0-2.87-2,.12.12,0,0,0-.12.19,9.16,9.16,0,0,0,2.84,2C251.07,43.56,251.22,43.42,251.11,43.33Z" style="opacity:0.1"></path><path d="M250.46,41a4.82,4.82,0,0,0-1-1.11.14.14,0,0,0-.2.17,4.42,4.42,0,0,0,.92,1.19,11.55,11.55,0,0,0,1.06,1c.06.05.15,0,.11-.1A14.73,14.73,0,0,0,250.46,41Z" style="fill:#FCF400"></path><path d="M250.46,41a4.82,4.82,0,0,0-1-1.11.14.14,0,0,0-.2.17,4.42,4.42,0,0,0,.92,1.19,11.55,11.55,0,0,0,1.06,1c.06.05.15,0,.11-.1A14.73,14.73,0,0,0,250.46,41Z" style="opacity:0.1"></path><path d="M252,52.79a4,4,0,0,0-1.34-.32c-.59-.09-1.19-.16-1.78-.3-.13,0-.2.17-.06.2.56.14,1.11.33,1.67.48a4,4,0,0,0,1.45.26A.18.18,0,0,0,252,52.79Z" style="fill:#FCF400"></path><path d="M252,52.79a4,4,0,0,0-1.34-.32c-.59-.09-1.19-.16-1.78-.3-.13,0-.2.17-.06.2.56.14,1.11.33,1.67.48a4,4,0,0,0,1.45.26A.18.18,0,0,0,252,52.79Z" style="opacity:0.1"></path><path d="M253.12,51a27,27,0,0,0-3.6.13c-.13,0-.1.19,0,.21a15.66,15.66,0,0,0,3.62.13C253.41,51.42,253.38,51,253.12,51Z" style="fill:#FCF400"></path><path d="M253.12,51a27,27,0,0,0-3.6.13c-.13,0-.1.19,0,.21a15.66,15.66,0,0,0,3.62.13C253.41,51.42,253.38,51,253.12,51Z" style="opacity:0.1"></path><path d="M243.46,52.58c-.18-.14-.36.12-.25.29a10.37,10.37,0,0,0,2.19,2c.09.07.21-.07.13-.16A17,17,0,0,0,243.46,52.58Z" style="fill:#FCF400"></path><path d="M243.46,52.58c-.18-.14-.36.12-.25.29a10.37,10.37,0,0,0,2.19,2c.09.07.21-.07.13-.16A17,17,0,0,0,243.46,52.58Z" style="opacity:0.1"></path><path d="M247.93,31.58l-1.16,1.23,1.31-.56c.17.77.34,1.56.5,2.34l.09.43c.11.58.22,1.15.32,1.71,0,.15.06.3.08.44a38.16,38.16,0,0,1,.51,3.94,20.37,20.37,0,0,1-.33,4.65l-5,1.86,4.54.11c-.1.4-.21.79-.32,1.19l-3.09-.24,2.79,1.23a46.63,46.63,0,0,1-3,7c-.12.22-.23.44-.36.66a49.85,49.85,0,0,1-3.42,5.5l-.14.2,0,0,0-.08h0a.69.69,0,0,0,0-.1h0a37.81,37.81,0,0,1-2-7.19l1.41-.08-1.51-.56c-.06-.36-.11-.74-.16-1.12l1.81.76-1.91-1.76a28.9,28.9,0,0,1-.12-3.75c0-.11,0-.23,0-.34,0-.58.07-1.17.15-1.76,0-.12,0-.26,0-.39a19.62,19.62,0,0,1,1.22-4.73c.21-.53.43-1.08.64-1.64l2.56.59-2.21-1.49c.15-.42.31-.84.47-1.26l1.86,1-1.68-1.48a119.66,119.66,0,0,0,4.1-13.08C246.05,24.24,247,27.6,247.93,31.58Z" style="fill:#455a64"></path><path d="M245.63,29.83c.5,5.56-1.39,11-2.59,16.28a67.68,67.68,0,0,0-1.82,17,.13.13,0,0,0,.25,0,103.77,103.77,0,0,1,2.36-17.73c1.21-5.12,2.83-10.27,1.87-15.6C245.69,29.77,245.63,29.78,245.63,29.83Z" style="fill:#37474f"></path><path d="M241.85,50.66a16.35,16.35,0,0,0-3.41-1.74c-.12-.05-.2.13-.09.2a11.54,11.54,0,0,0,3.37,1.8A.15.15,0,0,0,241.85,50.66Z" style="fill:#37474f"></path><path d="M238.5,46.59c-.1-.06-.22.07-.14.16a14.53,14.53,0,0,0,3.42,2.79c.06,0,.11,0,.07-.08A14,14,0,0,0,238.5,46.59Z" style="fill:#37474f"></path><path d="M249.44,36.58a11.9,11.9,0,0,0-3.63,1.94s0,.13.06.11a11.65,11.65,0,0,0,3.69-1.81A.14.14,0,0,0,249.44,36.58Z" style="fill:#37474f"></path><path d="M248.72,34.51A10.34,10.34,0,0,0,246,36.76c0,.05,0,.15.07.11a27.51,27.51,0,0,0,2.85-2.06C249.07,34.67,248.9,34.41,248.72,34.51Z" style="fill:#37474f"></path><path d="M245.68,56.78a11.83,11.83,0,0,0-3.57,1.56c-.09,0-.06.22.06.19a16.67,16.67,0,0,0,3.62-1.44A.17.17,0,0,0,245.68,56.78Z" style="fill:#37474f"></path><path d="M248.6,55.8l.93,7A41,41,0,0,1,235.69,70a40.9,40.9,0,0,1-15.51,2L217,65.78a50.93,50.93,0,0,0,31.64-10Z" style="fill:#FCF400"></path><g style="opacity:0.5"><path d="M231.27,64.12a15.56,15.56,0,0,1-2.81,1,18.58,18.58,0,0,1-3,.51,21.24,21.24,0,0,1-3.19.06,50.64,50.64,0,0,0,8.92-1.54Z" style="fill:#fff"></path><path d="M222.35,70.37a73.92,73.92,0,0,1,9-1.55,19.32,19.32,0,0,1-9,1.55Z" style="fill:#fff"></path><path d="M225.21,68.87a43.92,43.92,0,0,1,6.9-1.48,11.75,11.75,0,0,1-6.9,1.48Z" style="fill:#fff"></path><path d="M222.87,66.18a74.08,74.08,0,0,1,9-1.55,19.36,19.36,0,0,1-9,1.55Z" style="fill:#fff"></path><path d="M222.94,67.71a90,90,0,0,1,9.5-1.84,21.22,21.22,0,0,1-9.5,1.84Z" style="fill:#fff"></path><path d="M223.46,69.74A89.65,89.65,0,0,1,233,67.91a21.42,21.42,0,0,1-9.51,1.83Z" style="fill:#fff"></path><path d="M224.08,70.71a87.51,87.51,0,0,1,9.5-1.84,21.5,21.5,0,0,1-9.5,1.84Z" style="fill:#fff"></path><path d="M220.87,67.19a104.87,104.87,0,0,1,12.19-2.09,26.62,26.62,0,0,1-12.19,2.09Z" style="fill:#fff"></path><path d="M235.55,69.9c-.52.24-1,.45-1.57.64h0A44.32,44.32,0,0,1,225.09,72h0c-.58,0-1.16,0-1.74,0,1-.23,1.9-.45,2.85-.64,1.91-.39,3.84-.7,5.77-1C233.16,70.21,234.35,70.06,235.55,69.9Z" style="fill:#fff"></path><path d="M222.53,68.53a69,69,0,0,1,10.78-2,21.88,21.88,0,0,1-10.78,2Z" style="fill:#fff"></path><path d="M223.86,71.35a69.2,69.2,0,0,1,10.78-2,21.86,21.86,0,0,1-10.78,2Z" style="fill:#fff"></path></g><path d="M229.22,409.8l43.35.82s6.56-46.28,3.55-69.39c-2.86-22-7.71-41.16-7.72-43.08-.23-26,0-66,4.8-92.64a73.14,73.14,0,0,0-1-29.82H213.76s5.4,88.05,7.08,122.73C222.14,325.31,229.22,409.8,229.22,409.8Z" style="fill:#d3766a"></path><path d="M273.19,205.51c-1.14,6.31-2,13.39-2.7,20.85L217.61,240c-1.92-32.75-3.85-64.28-3.85-64.28h58.45A73,73,0,0,1,273.19,205.51Z" style="opacity:0.1"></path><path d="M193.51,473.08c1,.71,13.26.65,26.51.45,5.7-.08,59.15-37.47,61.23-40.34s-7.31-14.79-7.91-15.88l3.07-45.63-47,3.54-.65,49.15s-13.68,21.33-17.28,25.2-11,8.71-14.36,9.93S190.64,471,193.51,473.08Z" style="fill:#d3766a"></path><path d="M280.94,445.05c-.6,2.34-3,7.58-3,10.74v17.87H272V456.19c0-4.06-.84-13.69-9.67-8.88h0C245.63,459,223.56,473.48,220,473.54l-7.37.09c-5.74.05-10.87.05-14.38-.06h0l-1.24-.05-.75,0-1-.07h0a4.94,4.94,0,0,1-1.78-.33,1.67,1.67,0,0,1-.28-.25c-2.1-2.21,0-10,2.77-12.58a2.09,2.09,0,0,1,.22-.2,3.07,3.07,0,0,1,.92-.55l.77-.31.67-.31a47,47,0,0,0,5.31-3.14q.78-.51,1.56-1.08l.77-.56.57-.42c.57-.43,1.13-.87,1.66-1.3h0a34.5,34.5,0,0,0,3-2.81c3.6-3.87,17.28-25.2,17.28-25.2l.23-17v-.05c-1.18-14.23-7-84.73-8.17-108.86-.38-7.83-1-18.39-1.6-30L268.43,272c-.13,9.5-.1,18.47,0,26.19,0,1.92,4.86,21.12,7.72,43.08,1.34,10.32.78,25.26-.26,38.64l-2.52,37.44s0,0,0,0h0l.15.24c.74,1.09,3.26,4.46,5.28,7.85.12.19.23.39.34.58s.19.33.28.49l.27.48a16.46,16.46,0,0,1,1.76,4.3c0,.15.05.29.07.43s0,.27,0,.4A60.92,60.92,0,0,1,280.94,445.05Z" style="opacity:0.2"></path><path d="M281.25,433.19c-2.08,2.87-55.54,40.26-61.23,40.35-13.25.19-25.51.25-26.51-.47-2.87-2,.17-12.31,3.63-13.57,2.56-.93,7.53-4,11.31-7.12h0c-4.61,5.62-7.53,17.86,28-5.33,24.11-15.76,33.42-25.24,36.91-29.7C274.17,418.69,283.27,430.38,281.25,433.19Z" style="fill:#263238"></path><path d="M281.54,432.12a60.92,60.92,0,0,1-.6,12.93c-.6,2.34-3,7.58-3,10.74v17.87H272V456.19c0-4.06-.84-13.7-9.69-8.87Z" style="fill:#263238"></path><path d="M228.58,424.77c.44,8.47,28.16-2.36,33.21-3.7,3.84-1.25,7.67-2.57,11.58-3.72-10.84,5.57-22.38,10.34-34.58,11.75-3.15.28-10.8.44-10.21-4.33Z" style="fill:#263238"></path><polygon points="219.24 268.38 218.85 261.62 268.54 265 268.43 271.96 219.24 268.38" style="fill:#263238"></polygon><path d="M198.6,281.26l-40.87,9.41s-19-122.69-17-130.37c2.86-11.27,15.22-19,27.73-16.53,19.4,3.77,47.38,22.83,47.38,22.83l56.39,9.09c7.61,9.31,7.64,33.19-5,44.16-27.55,23.86-73.13-11.79-72.59-10a82.11,82.11,0,0,1,4.83,20.63C201.06,250.07,198.6,281.26,198.6,281.26Z" style="fill:#d3766a"></path><path d="M185,361.43c2.16-.33,16.15-26.36,19.39-38,.69-2.44-2.38-19.09-5.4-38.5l-5.08-51.64-41,23s5.17,39.86,6.48,45,1.4,36.9,3.11,42.42C164.57,350.48,181.5,362,185,361.43Z" style="fill:#d3766a"></path><path d="M208.1,217.5h0l-.09,0h0c-3.64-1.89-6-3.32-8.36-4.76l-.07,0-2.85-1.74-.55-.33c-1.06-.64-1.61-.93-1.55-.72a82.11,82.11,0,0,1,4.83,20.63c1.59,19.22-.75,49.63-.84,50.74L199,285c5.15,18.67,5.92,34.67,5.48,38.05a.51.51,0,0,1,0,.13.59.59,0,0,1,0,.14c0,.07,0,.13,0,.18-3.24,11.61-17.23,37.64-19.39,38a7.8,7.8,0,0,1-3.62-1.05l-.73-.36c-.88-.45-1.84-1-2.85-1.61l-.87-.54-.44-.28-1.34-.9-.9-.63-1.35-1-.46-.34-.89-.69-.88-.71-.86-.72-.84-.73c-.83-.73-1.61-1.47-2.33-2.21a16.75,16.75,0,0,1-4.12-5.91,8.66,8.66,0,0,1-.23-.94c-1.29-6.19-2.13-27.11-2.47-37l.14-.08a31.7,31.7,0,0,0-.55-4.42c-.6-2.35-2-12-3.37-21.85l0-.19c-4.63-30.58-16.85-112.76-15.27-119,2.86-11.27,15.22-19,27.73-16.53a78.52,78.52,0,0,1,15.27,5l24.37,68.7Z" style="opacity:0.2"></path><path d="M185,361.43c2.16-.33,16.15-26.36,19.39-38,.59-2.08,0-18.8-5.4-38.5-.41-.32-1.47,34.47-2,37.2s-15.37,17.62-18.19,18-13.23-1.54-14.44-2.32-4.31-30.12-4.51-32c.36,10.46,1.28,33.31,2.7,37.92C164.57,350.49,181.49,362,185,361.43Z" style="fill:#263238"></path><path d="M199,285s-18.33,21.46-39.17,20.88" style="fill:#263238"></path><path d="M208.09,217.49l-24.37-68.7s3.78,1.63,6.55,3l24.18,68.82A53.42,53.42,0,0,1,208.09,217.49Z" style="fill:#263238"></path><path d="M208.88,217.9h0l-.09,0-9.16-5.17-.07,0c-3.22-2-5.06-3.16-4.95-2.79l-6.77-22.71Z" style="opacity:0.1"></path><path d="M215.83,166.6A80.28,80.28,0,0,1,242,182.74a257.18,257.18,0,0,0-26.17-16.14Z" style="fill:#263238"></path><path d="M215.83,166.6S266,176.79,273.2,212.15c0,0,11.56-20.57-1-36.46Z" style="fill:#FCF400"></path><path d="M273.91,210.72l-8.69-35-.29-1.17-4.78-19.26a32.83,32.83,0,0,0,5,5.25,158.86,158.86,0,0,1,7.07,15.18h0C282.79,189.08,276.23,205.79,273.91,210.72Z" style="opacity:0.1"></path><path d="M224.56,141.39c-.94-4.3,1-8.88,3.86-12-2,3.74-3.73,7.72-3.86,12Z" style="opacity:0.1"></path><path d="M256.54,108.36a12.75,12.75,0,0,1,5.87,4.89c12.53,18.74,40.87,75.1,44,83.56,1.67,4.47-25.71,13-27,10.57s-12.29-30.53-15.84-41.57c-3.62-11.32-8.3-28.33-9.37-39.73C252.51,108,252.05,106.94,256.54,108.36Z" style="fill:#d3766a"></path><rect x="285.21" y="152.71" width="4.59" height="195.01" transform="translate(287.71 -130.92) rotate(49)" style="fill:#263238"></rect><rect x="223.44" y="288.26" width="4.59" height="31.32" transform="translate(307 -65.84) rotate(49)" style="fill:#dbdbdb"></rect><path d="M370.74,187.68a7.41,7.41,0,1,1,.73-10.46A7.41,7.41,0,0,1,370.74,187.68Z" style="fill:#263238"></path><path d="M306.44,196.81c6.17,10.29,11.36,22.21,10.29,34.7a6.27,6.27,0,0,1-1.57,3.75c-.38,5.6-3.14,7.1-3.14,7.1-2,5.12-5,6.26-5,6.26s-.52,6.58-4.55,6.92c-4.52.4-2.9-8.91-5.14-14.58-5.14-13-16.07-30-17.93-33.58Z" style="fill:#d3766a"></path><path d="M290.16,225.72c-1.34-1.43-2.1-.74-1.79,2.73s4.45,16.91-.37,18-10.38-18-10.45-23.81,1.86-15.21,1.86-15.21C281.24,210.87,286.48,218.91,290.16,225.72Z" style="fill:#d3766a"></path><path d="M316.73,231.51a6.45,6.45,0,0,1-1.52,3.7v0s0,0,0,0c-.38,5.6-3.14,7.1-3.14,7.1-1.8,4.7-4.5,6-4.93,6.23a.06.06,0,0,1-.06,0s-.52,6.58-4.55,6.92c-4.52.4-2.9-8.91-5.14-14.58a149.77,149.77,0,0,0-7.56-15.6c-1.1-.91-1.69,0-1.41,3.09.3,3.5,4.45,16.91-.37,18s-10.38-18-10.45-23.81,1.86-15.21,1.86-15.21c-1.07-1.95-8-19.49-12.63-32.34a154.27,154.27,0,0,0,24.75-9.17c7.46,14.67,13.54,27.28,14.91,30.94C312.61,207.1,317.8,219,316.73,231.51Z" style="fill:#FCF400"></path><path d="M301.51,223.58a89.39,89.39,0,0,1,3.86,11.62,90.27,90.27,0,0,1,1.54,13.32.11.11,0,0,0,.22,0,47.5,47.5,0,0,0-5.44-25C301.59,223.33,301.44,223.38,301.51,223.58Z" style="fill:#263238"></path><path d="M308.9,219.34c1.19,3.82,3.23,10.56,3,23,0,0,.06.06.07,0a42.62,42.62,0,0,0-2.88-23.09C309,219.05,308.82,219.08,308.9,219.34Z" style="fill:#263238"></path><path d="M312.91,217.13c1.77,6.58,2.06,11,2.23,18.1,0,0,.07.05.07,0,.66-8.15,0-11.17-2.09-18.2C313.05,216.8,312.84,216.88,312.91,217.13Z" style="fill:#263238"></path><path d="M260.84,156.72c-3.31-9.14-6.15-18.71-6.45-28.48.11.6.21,1.21.3,1.81,1.71,8.75,4.28,17.94,6.15,26.67Z" style="fill:#263238"></path><path d="M253.18,130.72a12,12,0,0,0,2.34,5.6,5.6,5.6,0,0,1-2.34-5.6Z" style="fill:#263238"></path></g><g id="freepik--character-2--inject-76"><path d="M393.94,104.8c-15.31.64-42.86,1-47.26,1.14-9.52.34-34-2.09-42.27-2.57-5-.29-3.78,29.34-1,29.84s30.95-.83,43-1.84c13.65-1.14,36.18-7.18,47.6-10.75C412.67,114.81,404,104.38,393.94,104.8Z" style="fill:#ffc4c0"></path><path d="M314.71,106.09c-10.23-6.28-22.09-11.6-34.58-10.65A6.18,6.18,0,0,0,276.36,97c-5.61.32-7.14,3.07-7.14,3.07-5.13,1.9-6.31,4.92-6.31,4.92s-6.58.46-7,4.48c-.45,4.51,8.88,3,14.52,5.29,12.93,5.28,29.82,16.39,33.4,18.29Z" style="fill:#ffc4c0"></path><path d="M285.63,122.07c1.41,1.35.71,2.1-2.75,1.76s-16.86-4.63-18,.17,17.9,10.58,23.7,10.71,15.24-1.7,15.24-1.7C300.39,131.14,292.4,125.81,285.63,122.07Z" style="fill:#ffc4c0"></path><path d="M343.94,106c-.62,5.24-1.92,16.91-2.25,25.78-13.47.93-35.66,1.93-38.25,1.47a.37.37,0,0,1-.19-.09c-2.16.4-9.7,1.71-14.63,1.59-5.81-.13-24.81-5.89-23.7-10.71s14.46-.51,18-.17c3.11.31,4-.27,3.11-1.37a146.57,146.57,0,0,0-15.53-7.74c-5.64-2.3-15-.78-14.52-5.29.38-3.92,6.65-4.46,7-4.48a.09.09,0,0,1,0-.06c.19-.42,1.57-3.11,6.28-4.86,0,0,1.53-2.75,7.13-3.07,0,0,0,0,0,0h0a6.27,6.27,0,0,1,3.71-1.47c11-.83,21.45,3.16,30.76,8.4C320.53,104.6,335.42,105.9,343.94,106Z" style="fill:#455a64"></path><path d="M287.89,110.73a90.74,90.74,0,0,0-11.57-4A89.06,89.06,0,0,0,263,105.07a.11.11,0,0,1,0-.22A47.51,47.51,0,0,1,288,110.56C288.14,110.66,288.08,110.81,287.89,110.73Z" style="fill:#263238"></path><path d="M292.21,103.4c-3.81-1.23-10.52-3.35-23-3.24,0,0-.06-.07,0-.07a42.55,42.55,0,0,1,23.06,3.13C292.5,103.31,292.46,103.48,292.21,103.4Z" style="fill:#263238"></path><path d="M294.46,99.41c-6.56-1.85-10.93-2.18-18.07-2.42,0,0-.05-.07,0-.08,8.15-.57,11.17.14,18.17,2.28C294.79,99.27,294.71,99.48,294.46,99.41Z" style="fill:#263238"></path><path d="M375.64,155.15,371,175.69h58.45l-7.07-15.18c-1.69-15,.54-37.37-9.09-49.6-7.7-9.79-14.55-9.41-21.34-3.52-1.72,1.5-19.51,20.21-22.26,29.65C367.26,145.38,375.64,155.15,375.64,155.15Z" style="fill:#ffc4c0"></path><path d="M393.67,106s-16.77,21.46-16.77,24.84c0,1.13,2.22,10.51,4.86,10.55s14.2-8.07,15.74-9.24,9.45-25.93,10.2-26.76,2.69,1,2.69,1-1.52,31.88-.82,34.07c4.35,13.47,12.78,20,12.78,20a158.86,158.86,0,0,1,7.07,15.18H371l4.67-20.54s-9.09-10.9-6-19.24,14.73-21.22,22.28-28.52A18.25,18.25,0,0,1,393.67,106Z" style="fill:#455a64"></path><path d="M383.59,149.53a48.61,48.61,0,0,1,8.08,2.49c1.3.56,2.57,1.18,3.84,1.85.63.33,1.26.63,1.9.93a7.51,7.51,0,0,0,2.08.7c.06,0,.05.13,0,.12a11.61,11.61,0,0,1-2-.25,11.94,11.94,0,0,1-1.91-.65c-1.33-.55-2.63-1.17-3.95-1.73-2.66-1.14-5.32-2.28-8.06-3.18C383.4,149.77,383.46,149.5,383.59,149.53Z" style="fill:#263238"></path><path d="M376.43,151.82a51.77,51.77,0,0,1,6.93.3,32.91,32.91,0,0,1,3.41.61q.81.18,1.62.39c.59.15,1.16.4,1.75.55.06,0,.05.13,0,.12-.56-.12-1.15-.12-1.72-.19l-1.71-.23c-1.15-.16-2.29-.29-3.43-.46-2.29-.32-4.57-.62-6.87-.86C376.28,152,376.31,151.83,376.43,151.82Z" style="fill:#263238"></path><path d="M407.05,106.69c-.21,1.23-5.52,9.51-11.1,9.6-1.82,0-2.41-9.89-2.41-9.89l-.21-.72-2.95-10.11,11.55-8.5,1.68-1.14s.62,2.82,1.37,6.34c0,.17.07.33.1.5s.1.39.13.57c.12.53.24,1.06.34,1.6s.17.8.24,1.24.15.85.23,1.28A66.65,66.65,0,0,1,407.05,106.69Z" style="fill:#ffc4c0"></path><path d="M405,92.27a21.15,21.15,0,0,1-11.65,13.41l-2.95-10.11,11.55-8.5,1.68-1.14S404.23,88.75,405,92.27Z" style="fill:#263238"></path><path d="M395,99.06c-6,7.3-18.51,7-25.76,1.91a41.08,41.08,0,0,0,7.29-11.84c1.6-4.07,1.79-8.55,2.42-12.86.28-1.94.56-3.88.89-5.81a19.15,19.15,0,0,1,1.46-5.59c2.46-4.84,10.34-3.75,11.21-2.5C398.43,71,401.78,90.75,395,99.06Z" style="fill:#263238"></path><path d="M393.7,93.35a16.36,16.36,0,0,1-9,10,18.3,18.3,0,0,1-14.73-.52c-.08,0-.15.08-.07.12a17.37,17.37,0,0,0,14.72,1.16A15.57,15.57,0,0,0,394,93.44.17.17,0,0,0,393.7,93.35Z" style="fill:#263238"></path><path d="M397,92a18.28,18.28,0,0,1-8.1,10.45c-4,2.4-10.09,4.38-14.78,3.08-.13,0-.19.16-.06.19,4.95,1.5,11.06-.26,15.37-2.86,3.81-2.31,7.3-6.23,7.92-10.8C397.36,91.86,397,91.82,397,92Z" style="fill:#263238"></path><path d="M381,69c-.84,5.48-1.75,10.77-3.83,16A55.9,55.9,0,0,1,368.6,99.4c-.07.09,0,.22.12.13a49.45,49.45,0,0,0,8.86-14c2.13-5.13,3.79-11,3.72-16.57A.18.18,0,0,0,381,69Z" style="fill:#263238"></path><path d="M376.73,78.54c-3.59,18.14,6.86,22.34,10.77,23.1,3.55.7,15.73,2.63,21.17-15s-1.85-25.07-9.88-27.1S380.32,60.41,376.73,78.54Z" style="fill:#ffc4c0"></path><path d="M380.87,78.23c.43,0,.84-.07,1.27-.11a2.05,2.05,0,0,0,1.28-.35.66.66,0,0,0,.09-.8,1.61,1.61,0,0,0-1.54-.58,2.37,2.37,0,0,0-1.6.65A.71.71,0,0,0,380.87,78.23Z" style="fill:#263238"></path><path d="M394,80.3a11.06,11.06,0,0,1-1.25-.25,2.06,2.06,0,0,1-1.22-.51.66.66,0,0,1,0-.8,1.65,1.65,0,0,1,1.61-.39,2.42,2.42,0,0,1,1.51.84A.7.7,0,0,1,394,80.3Z" style="fill:#263238"></path><path d="M383.26,80.77s-.11,0-.11.1c-.09,1.26-.4,2.68-1.58,3,0,0,0,.08,0,.07C383,83.87,383.38,82,383.26,80.77Z" style="fill:#263238"></path><path d="M382.27,79.35c-2-.36-2.57,3.66-.71,4S384,79.65,382.27,79.35Z" style="fill:#263238"></path><path d="M381.4,79.5c-.35.17-.72.51-1.1.48s-.71-.52-.93-1c0-.05-.06,0-.07,0-.13.77,0,1.6.73,1.86s1.24-.36,1.53-1.1C381.62,79.66,381.54,79.43,381.4,79.5Z" style="fill:#263238"></path><path d="M391.18,81.79s.09.08.09.13c-.2,1.24-.21,2.7.86,3.25,0,0,0,.08,0,.07C390.76,84.88,390.8,82.94,391.18,81.79Z" style="fill:#263238"></path><path d="M392.46,80.63c2,.1,1.68,4.14-.19,4.05S390.76,80.55,392.46,80.63Z" style="fill:#263238"></path><path d="M393.28,81c.3.24.59.66,1,.71s.8-.34,1.12-.74c0,0,.06,0,.06,0,0,.78-.37,1.56-1.13,1.65s-1.13-.63-1.25-1.42C393,81.08,393.16,80.87,393.28,81Z" style="fill:#263238"></path><path d="M389.6,92c-.3.3-.59.7-1.05.75a3.4,3.4,0,0,1-1.36-.3s-.07,0-.05.06a1.69,1.69,0,0,0,1.61.67,1.34,1.34,0,0,0,1-1.13C389.74,92,389.65,92,389.6,92Z" style="fill:#263238"></path><path d="M384.55,87.21s-.34,1.87-.38,2.75c0,.09.21.14.51.17,0,0,0,0,0,0a4.21,4.21,0,0,0,4.16-1.39c.07-.08,0-.18-.12-.12a6.39,6.39,0,0,1-3.9.92c-.05-.25.7-3.18.56-3.19a7.5,7.5,0,0,0-2,.36c.61-3.91,1.83-7.69,2.38-11.59a.12.12,0,0,0-.23-.06,64.57,64.57,0,0,0-3.1,12.37C382.34,87.93,384.19,87.35,384.55,87.21Z" style="fill:#263238"></path><path d="M384.78,89.8a5.12,5.12,0,0,0,1.87,1.79,2.27,2.27,0,0,0,1.37.24c1-.16,1.16-1.08,1.06-1.89a5.24,5.24,0,0,0-.33-1.25A6.56,6.56,0,0,1,384.78,89.8Z" style="fill:#263238"></path><path d="M386.65,91.59a2.27,2.27,0,0,0,1.37.24c1-.16,1.16-1.08,1.06-1.89A2.38,2.38,0,0,0,386.65,91.59Z" style="fill:#ff9abb"></path><path d="M408.56,87.61a7.65,7.65,0,0,1-4-6.42,19.91,19.91,0,0,1-7.81-6.92c.11.39.88,3.19,1.31,4.6C386.44,76.12,383.23,67,383.23,67a20.25,20.25,0,0,0-5.48,7.21S378,67,381.94,62.3A11.65,11.65,0,0,1,392.89,58a16.63,16.63,0,0,1,16,5.76C416.11,72.46,408.56,87.61,408.56,87.61Z" style="fill:#263238"></path><path d="M389.24,76.51A21.46,21.46,0,0,0,395.17,79s0,0,0,0a18.58,18.58,0,0,1-8.38-5.62,17.67,17.67,0,0,1-2.36-3.67,11.85,11.85,0,0,1-1.35-4.55.1.1,0,0,0-.19,0,14.2,14.2,0,0,0,.72,4.67,12.83,12.83,0,0,0,2.42,4,15.25,15.25,0,0,0,3.21,2.68" style="fill:#263238"></path><path d="M416.59,76.17a26.77,26.77,0,0,0,2.47,9.69c1.18,2.54,2.63,5,2.83,7.9.36,5.1-3.92,8.57-7.88,10.79-2.65,1.49-9.74,1.13-13.48.34,0,0,14.81-23.62-7.64-46.87a22,22,0,0,1,16.62,3.48C414.46,65.08,416.18,70.43,416.59,76.17Z" style="fill:#263238"></path><path d="M416.71,73.64a19.1,19.1,0,0,0-5.31-10.27,0,0,0,0,0,0,0,20.93,20.93,0,0,1,5.11,10.81c.57,3.41.77,6.92,2.46,10,1,1.77,2.11,3.35,2.53,5.36a11.76,11.76,0,0,1-.28,5.71c-1.19,4-4.24,6.78-7.82,8.72-.11.06,0,.24.08.19,6.59-2.94,10.86-10.9,7.21-17.68a25,25,0,0,1-2.87-6.44C417.28,78,417.11,75.79,416.71,73.64Z" style="fill:#263238"></path><path d="M411.7,64.41s-.08,0-.06,0a19.35,19.35,0,0,1,4.79,12.18,36.88,36.88,0,0,0,.49,6.39,18.6,18.6,0,0,0,2.18,5.35c2.21,3.85,4.83,8.38,1.07,12.23-3.3,3.37-8.35,5-12.9,5.66a.1.1,0,0,0,0,.2A22.19,22.19,0,0,0,420,101.13c2.79-2.61,2.85-6,1.3-9.35-1.11-2.36-2.72-4.44-3.59-6.92s-.92-5.25-1-8A18.81,18.81,0,0,0,411.7,64.41Z" style="fill:#263238"></path><path d="M416.9,75.19c-.62-4.16-1.82-8.51-5.35-11.1,0,0-.1,0-.05.07,4.2,3.34,4.81,9,5.5,13.91a27.77,27.77,0,0,0,1.72,7.25c1,2.3,2.79,4.21,3.44,6.66,1.35,5.13-2,9.92-6.28,12.2-4.66,2.5-9.76,2.29-14.88,2.68-.12,0-.13.22,0,.23,7.21.29,16.89-.8,20.57-8.07a10,10,0,0,0-.11-9.5c-1.28-2.32-2.66-4.37-3.34-7A72.94,72.94,0,0,1,416.9,75.19Z" style="fill:#263238"></path><path d="M403.59,85.82s4.36-5.53,6.89-3.94-1,9.77-4.12,10.73a3.14,3.14,0,0,1-4.09-1.93Z" style="fill:#ffc4c0"></path><path d="M409.42,84.2a0,0,0,0,1,0,.08C407.22,85,406,87,405.06,89a1.72,1.72,0,0,1,2.6-.32c.06,0,0,.13-.06.11a1.92,1.92,0,0,0-2.15.55A9.39,9.39,0,0,0,404.33,91c-.11.18-.45.06-.36-.16a.17.17,0,0,1,0,0C404.1,88,406.45,84.3,409.42,84.2Z" style="fill:#263238"></path><path d="M417.51,61.22c1,3.12-9.05,10.2-22.81,14.54s-26.05,4.29-27,1.17c-.07-.24-.4-1.3-.4-1.3.64-3.27,10.83-8.18,23.54-12.19,12.86-4,24.09-5.85,26.31-3.44C417.12,60,417.45,61,417.51,61.22Z" style="fill:#263238"></path><path d="M417.12,60c1,3.12-9.05,10.2-22.81,14.54s-26,4.29-27,1.17,9.38-9.15,23.14-13.49S416.14,56.89,417.12,60Z" style="fill:#37474f"></path><path d="M403.89,41.55l2.85,21.21A41.12,41.12,0,0,1,392.9,70a41,41,0,0,1-15.52,2l-9.84-19Z" style="fill:#263238"></path><path d="M403.89,41.54c.69,2.18-6.89,6.51-16.93,9.67s-18.73,4-19.41,1.79,6.89-6.5,16.93-9.67S403.2,39.37,403.89,41.54Z" style="fill:#37474f"></path><path d="M412.32,43.51l-1.43.63,1.4-.24c-.05.49-.11,1-.2,1.44l-2.11.21,1.93.71c-.06.27-.13.53-.21.79a15.24,15.24,0,0,1-2,3.92c-.11.17-.23.35-.36.53q-.37.54-.78,1.08l-.32.43c-.76,1-1.56,1.92-2.35,2.81l-1.13-.88.87,1.16c-2.46,2.7-4.71,4.64-4.71,4.37a45.29,45.29,0,0,1,0-7c0-.21,0-.42.07-.63a19.16,19.16,0,0,1,.83-4l3.09,1.26L402.6,47c.16-.33.33-.67.53-1l2.18,1.86-1.75-2.69c.59-1.08,1.28-2.24,2-3.42h0c.07-.11.14-.22.2-.33.25-.41.51-.82.77-1.23.05-.09.11-.18.17-.27l1.13-1.76,1.83.94-1.53-1.41.44-.66,1.3,1.22-.9-1.82a35.63,35.63,0,0,1,2.58-3.37A35.9,35.9,0,0,1,412.32,43.51Z" style="fill:#FCF400"></path><path d="M410.67,36.26c-.88,8.8-6.24,15.94-9.7,23.82-.05.12.15.22.22.1,4.1-7.45,9.28-15.14,9.58-23.91C410.77,36.2,410.67,36.19,410.67,36.26Z" style="fill:#FCF400"></path><path d="M410.67,36.26c-.88,8.8-6.24,15.94-9.7,23.82-.05.12.15.22.22.1,4.1-7.45,9.28-15.14,9.58-23.91C410.77,36.2,410.67,36.19,410.67,36.26Z" style="opacity:0.1"></path><path d="M408.32,43.33a9.37,9.37,0,0,0-2.88-2,.12.12,0,0,0-.12.19,9.09,9.09,0,0,0,2.85,2C408.27,43.56,408.42,43.42,408.32,43.33Z" style="fill:#FCF400"></path><path d="M408.32,43.33a9.37,9.37,0,0,0-2.88-2,.12.12,0,0,0-.12.19,9.09,9.09,0,0,0,2.85,2C408.27,43.56,408.42,43.42,408.32,43.33Z" style="opacity:0.1"></path><path d="M407.67,41a4.86,4.86,0,0,0-1-1.11.13.13,0,0,0-.19.17,4.23,4.23,0,0,0,.92,1.19,9.47,9.47,0,0,0,1.06,1c.05.05.14,0,.1-.1A12.59,12.59,0,0,0,407.67,41Z" style="fill:#FCF400"></path><path d="M407.67,41a4.86,4.86,0,0,0-1-1.11.13.13,0,0,0-.19.17,4.23,4.23,0,0,0,.92,1.19,9.47,9.47,0,0,0,1.06,1c.05.05.14,0,.1-.1A12.59,12.59,0,0,0,407.67,41Z" style="opacity:0.1"></path><path d="M409.25,52.79a4.16,4.16,0,0,0-1.35-.32c-.59-.09-1.19-.16-1.77-.3-.13,0-.2.17-.07.2.56.14,1.11.33,1.67.48a4.08,4.08,0,0,0,1.45.26A.18.18,0,0,0,409.25,52.79Z" style="fill:#FCF400"></path><path d="M409.25,52.79a4.16,4.16,0,0,0-1.35-.32c-.59-.09-1.19-.16-1.77-.3-.13,0-.2.17-.07.2.56.14,1.11.33,1.67.48a4.08,4.08,0,0,0,1.45.26A.18.18,0,0,0,409.25,52.79Z" style="opacity:0.1"></path><path d="M410.33,51a27.23,27.23,0,0,0-3.61.13c-.12,0-.1.19,0,.21a15.68,15.68,0,0,0,3.62.13A.24.24,0,0,0,410.33,51Z" style="fill:#FCF400"></path><path d="M410.33,51a27.23,27.23,0,0,0-3.61.13c-.12,0-.1.19,0,.21a15.68,15.68,0,0,0,3.62.13A.24.24,0,0,0,410.33,51Z" style="opacity:0.1"></path><path d="M400.66,52.58c-.18-.14-.36.12-.24.29a10.32,10.32,0,0,0,2.18,2,.11.11,0,0,0,.14-.16A17.09,17.09,0,0,0,400.66,52.58Z" style="fill:#FCF400"></path><path d="M400.66,52.58c-.18-.14-.36.12-.24.29a10.32,10.32,0,0,0,2.18,2,.11.11,0,0,0,.14-.16A17.09,17.09,0,0,0,400.66,52.58Z" style="opacity:0.1"></path><path d="M405.14,31.58,404,32.81l1.31-.56c.17.77.34,1.56.49,2.34,0,.14.06.29.09.43q.18.87.33,1.71c0,.15.05.3.07.44a35.58,35.58,0,0,1,.51,3.94,19.79,19.79,0,0,1-.32,4.65l-5,1.86,4.53.11c-.09.4-.2.79-.32,1.19l-3.09-.24,2.79,1.23a45.62,45.62,0,0,1-3,7c-.11.22-.23.44-.35.66a53.06,53.06,0,0,1-3.42,5.5l-.15.2,0,0,0-.08h0a.93.93,0,0,1-.05-.1h0a37.3,37.3,0,0,1-2-7.19l1.4-.08-1.51-.56c-.06-.36-.11-.74-.15-1.12l1.81.76-1.92-1.76a28.93,28.93,0,0,1-.11-3.75c0-.11,0-.23,0-.34,0-.58.08-1.17.15-1.76,0-.12,0-.26.05-.39a20.59,20.59,0,0,1,1.22-4.73c.22-.53.43-1.08.64-1.64l2.57.59-2.22-1.49.47-1.26,1.87,1L399,37.89a118,118,0,0,0,4.11-13.08C403.26,24.24,404.23,27.6,405.14,31.58Z" style="fill:#455a64"></path><path d="M402.83,29.83c.51,5.56-1.38,11-2.59,16.28a68.14,68.14,0,0,0-1.82,17c0,.15.24.17.25,0A104.78,104.78,0,0,1,401,45.41c1.21-5.12,2.83-10.27,1.88-15.6C402.9,29.77,402.83,29.78,402.83,29.83Z" style="fill:#37474f"></path><path d="M399.06,50.66a16.35,16.35,0,0,0-3.41-1.74c-.12-.05-.2.13-.1.2a11.59,11.59,0,0,0,3.38,1.8A.15.15,0,0,0,399.06,50.66Z" style="fill:#37474f"></path><path d="M395.7,46.59c-.09-.06-.22.07-.13.16A14.13,14.13,0,0,0,399,49.54c.05,0,.11,0,.07-.08A13.82,13.82,0,0,0,395.7,46.59Z" style="fill:#37474f"></path><path d="M406.65,36.58A11.67,11.67,0,0,0,403,38.52a.06.06,0,0,0,.06.11,11.86,11.86,0,0,0,3.69-1.81A.14.14,0,0,0,406.65,36.58Z" style="fill:#37474f"></path><path d="M405.92,34.51a10.51,10.51,0,0,0-2.72,2.25c0,.05,0,.15.07.11a26.61,26.61,0,0,0,2.86-2.06A.19.19,0,0,0,405.92,34.51Z" style="fill:#37474f"></path><path d="M402.89,56.78a11.78,11.78,0,0,0-3.58,1.56c-.09,0-.05.22.07.19A16.59,16.59,0,0,0,403,57.09.16.16,0,0,0,402.89,56.78Z" style="fill:#37474f"></path><path d="M405.8,55.8l.94,7A41.12,41.12,0,0,1,392.9,70a41,41,0,0,1-15.52,2l-3.22-6.23a50.88,50.88,0,0,0,31.64-10Z" style="fill:#FCF400"></path><g style="opacity:0.5"><path d="M388.48,64.12a15.93,15.93,0,0,1-2.82,1,18.19,18.19,0,0,1-3,.51,21.11,21.11,0,0,1-3.18.06,50.55,50.55,0,0,0,8.91-1.54Z" style="fill:#fff"></path><path d="M379.56,70.37a73.59,73.59,0,0,1,9-1.55,19.34,19.34,0,0,1-9,1.55Z" style="fill:#fff"></path><path d="M382.42,68.87a43.68,43.68,0,0,1,6.9-1.48,11.79,11.79,0,0,1-6.9,1.48Z" style="fill:#fff"></path><path d="M380.08,66.18a73.59,73.59,0,0,1,9-1.55,19.32,19.32,0,0,1-9,1.55Z" style="fill:#fff"></path><path d="M380.14,67.71a90.66,90.66,0,0,1,9.51-1.84,21.29,21.29,0,0,1-9.51,1.84Z" style="fill:#fff"></path><path d="M380.67,69.74a90,90,0,0,1,9.5-1.83,21.4,21.4,0,0,1-9.5,1.83Z" style="fill:#fff"></path><path d="M381.28,70.71a88.16,88.16,0,0,1,9.51-1.84,21.57,21.57,0,0,1-9.51,1.84Z" style="fill:#fff"></path><path d="M378.08,67.19a104.15,104.15,0,0,1,12.19-2.09,26.65,26.65,0,0,1-12.19,2.09Z" style="fill:#fff"></path><path d="M392.75,69.9c-.51.24-1,.45-1.57.64h0A44.43,44.43,0,0,1,382.3,72h0c-.58,0-1.16,0-1.73,0,.95-.23,1.9-.45,2.84-.64,1.92-.39,3.84-.7,5.78-1C390.36,70.21,391.55,70.06,392.75,69.9Z" style="fill:#fff"></path><path d="M379.73,68.53a69.23,69.23,0,0,1,10.78-2,21.86,21.86,0,0,1-10.78,2Z" style="fill:#fff"></path><path d="M381.07,71.35a69,69,0,0,1,10.78-2,21.86,21.86,0,0,1-10.78,2Z" style="fill:#fff"></path></g><path d="M381.76,141.39c-.94-4.3,1-8.88,3.87-12-2,3.74-3.74,7.72-3.87,12Z" style="opacity:0.1"></path><path d="M413.74,108.36a12.75,12.75,0,0,1,5.87,4.89c12.54,18.74,40.88,75.1,44,83.56,1.67,4.47-25.71,13-27,10.57s-12.3-30.53-15.84-41.57c-3.63-11.32-8.3-28.33-9.37-39.73C409.72,108,409.26,106.94,413.74,108.36Z" style="fill:#ffc4c0"></path><path d="M463.64,196.81c6.18,10.29,11.37,22.21,10.29,34.7a6.23,6.23,0,0,1-1.56,3.75c-.38,5.6-3.15,7.1-3.15,7.1-2,5.12-5,6.26-5,6.26s-.52,6.58-4.55,6.92c-4.51.4-2.89-8.91-5.14-14.58-5.13-13-16.07-30-17.92-33.58Z" style="fill:#ffc4c0"></path><path d="M458.72,223.58a90.88,90.88,0,0,1,3.85,11.62,90.29,90.29,0,0,1,1.55,13.32.11.11,0,0,0,.22,0,47.51,47.51,0,0,0-5.45-25C458.8,223.33,458.65,223.38,458.72,223.58Z" style="fill:#263238"></path><path d="M466.1,219.34c1.19,3.82,3.24,10.56,3,23,0,0,.07.06.08,0a42.63,42.63,0,0,0-2.89-23.09C466.19,219.05,466,219.08,466.1,219.34Z" style="fill:#263238"></path><path d="M470.11,217.13c1.78,6.58,2.06,11,2.23,18.1,0,0,.07.05.08,0,.66-8.15,0-11.17-2.09-18.2C470.26,216.8,470,216.88,470.11,217.13Z" style="fill:#263238"></path><path d="M447.36,225.72c-1.34-1.43-2.09-.74-1.79,2.73s4.45,16.91-.36,18-10.39-18-10.45-23.81,1.86-15.21,1.86-15.21C438.44,210.87,443.69,218.91,447.36,225.72Z" style="fill:#ffc4c0"></path><path d="M418,156.72c-3.31-9.14-6.14-18.71-6.45-28.48.11.6.22,1.21.31,1.81,1.71,8.75,4.28,17.94,6.14,26.67Z" style="fill:#263238"></path><path d="M410.39,130.72a11.87,11.87,0,0,0,2.34,5.6,5.58,5.58,0,0,1-2.34-5.6Z" style="fill:#263238"></path><path d="M386.42,409.8l43.35.82s6.56-46.28,3.55-69.39c-2.86-22-7.7-41.16-7.72-43.08-.23-26,0-66,4.8-92.64a73.14,73.14,0,0,0-1-29.82H371s5.39,88.05,7.07,122.73C379.34,325.31,386.42,409.8,386.42,409.8Z" style="fill:#ffc4c0"></path><path d="M430.4,205.51c-1.15,6.31-2,13.39-2.71,20.85L374.81,240c-1.92-32.76-3.85-64.28-3.85-64.28h58.46A73.17,73.17,0,0,1,430.4,205.51Z" style="opacity:0.1"></path><path d="M350.71,473.08c1,.7,13.27.64,26.51.45,5.7-.08,59.16-37.47,61.23-40.34s-7.3-14.79-7.9-15.88l3.06-45.63-47,3.54L386,424.37s-13.67,21.33-17.28,25.2-11,8.71-14.36,9.93S347.84,471,350.71,473.08Z" style="fill:#ffc4c0"></path><path d="M438.14,445.05c-.6,2.34-3,7.58-3,10.74v17.87h-5.93V456.19c0-4.06-.84-13.69-9.67-8.88h0c-16.65,11.64-38.72,26.16-42.26,26.22l-7.37.09c-5.74.05-10.87.05-14.38-.06h0l-1.24-.05-.75,0-1-.07h0a4.94,4.94,0,0,1-1.78-.33,1.67,1.67,0,0,1-.28-.25c-2.1-2.21-.05-10,2.77-12.58a2.09,2.09,0,0,1,.22-.2,3.07,3.07,0,0,1,.92-.55l.77-.31.67-.31a47,47,0,0,0,5.31-3.14q.78-.51,1.56-1.08l.77-.56.57-.42c.57-.43,1.13-.87,1.66-1.3h0a34.5,34.5,0,0,0,3-2.81c3.6-3.87,17.28-25.2,17.28-25.2l.23-17v-.05c-1.18-14.23-7-84.73-8.17-108.86-.38-7.83-1-18.39-1.6-30L425.63,272c-.13,9.5-.1,18.47,0,26.19,0,1.92,4.86,21.12,7.72,43.08,1.34,10.32.78,25.26-.26,38.64l-2.52,37.44s0,0,0,0h0l.15.24c.74,1.09,3.26,4.46,5.28,7.85.12.19.23.39.34.58s.19.33.28.49l.27.48a16.46,16.46,0,0,1,1.76,4.3c0,.15.05.29.07.43s0,.27,0,.4A60.92,60.92,0,0,1,438.14,445.05Z" style="opacity:0.2"></path><path d="M438.45,433.19c-2.07,2.87-55.53,40.26-61.23,40.34-13.24.19-25.51.26-26.51-.46-2.87-2,.18-12.31,3.63-13.57,2.57-.93,7.54-4,11.31-7.12h0c-4.61,5.62-7.53,17.86,28-5.34,24.11-15.75,33.43-25.23,36.91-29.69C431.37,418.69,440.48,430.38,438.45,433.19Z" style="fill:#263238"></path><path d="M438.74,432.12c.31,2.55,0,10.6-.6,12.93s-3,7.58-3,10.74v17.87h-5.93V456.19c0-4.06-.84-13.7-9.68-8.87Z" style="fill:#263238"></path><path d="M385.79,424.77c.43,8.46,28.15-2.36,33.2-3.7,3.84-1.25,7.67-2.57,11.58-3.72-10.84,5.57-22.38,10.33-34.58,11.75-3.15.28-10.8.44-10.2-4.33Z" style="fill:#263238"></path><polygon points="376.44 268.38 376.06 261.62 425.74 265 425.63 271.96 376.44 268.38" style="fill:#263238"></polygon><path d="M355.8,281.26l-40.86,9.41S296,168,297.92,160.3c2.86-11.27,15.22-19,27.73-16.53C345.05,147.54,373,166.6,373,166.6l56.39,9.09c7.61,9.31,7.65,33.19-5,44.16-27.55,23.86-73.12-11.79-72.59-10a81.93,81.93,0,0,1,4.84,20.63C358.26,250.07,355.8,281.26,355.8,281.26Z" style="fill:#ffc4c0"></path><path d="M342.18,361.43c2.16-.33,16.15-26.36,19.39-38,.69-2.44-2.38-19.1-5.4-38.5l-5.08-51.64-41,23s5.17,39.86,6.48,45,1.41,36.9,3.11,42.43C321.77,350.48,338.7,362,342.18,361.43Z" style="fill:#ffc4c0"></path><path d="M365.31,217.5h0l-.09,0h0c-3.64-1.89-6-3.32-8.37-4.76l-.07,0-2.85-1.74-.55-.33c-1.06-.64-1.61-.93-1.55-.72a82.11,82.11,0,0,1,4.83,20.63c1.59,19.22-.75,49.63-.84,50.74l.37,3.73c5.15,18.67,5.92,34.67,5.48,38.05a.51.51,0,0,1,0,.13.59.59,0,0,1,0,.14c0,.07,0,.13,0,.18-3.24,11.61-17.23,37.64-19.39,38a7.8,7.8,0,0,1-3.62-1.05l-.73-.36c-.88-.45-1.84-1-2.85-1.61l-.87-.54-.44-.28-1.34-.9q-.45-.3-.9-.63-.68-.48-1.35-1l-.46-.34-.89-.69-.88-.71-.86-.72-.84-.73c-.83-.73-1.61-1.47-2.33-2.21a16.75,16.75,0,0,1-4.12-5.91,8.66,8.66,0,0,1-.23-.94c-1.29-6.19-2.13-27.11-2.47-37l.14-.08a31.7,31.7,0,0,0-.55-4.42c-.6-2.35-2-12-3.37-21.85l0-.19c-4.63-30.58-16.85-112.76-15.27-119,2.86-11.27,15.22-19,27.73-16.53a78.52,78.52,0,0,1,15.27,5l24.38,68.7Z" style="opacity:0.2"></path><path d="M342.18,361.43c2.16-.33,16.15-26.36,19.39-38,.59-2.09,0-18.8-5.4-38.5-.41-.32-1.46,34.47-2,37.2s-15.37,17.62-18.19,18-13.23-1.54-14.43-2.32-4.32-30.13-4.51-32c.36,10.46,1.27,33.31,2.69,37.92C321.77,350.48,338.7,362,342.18,361.43Z" style="fill:#263238"></path><path d="M356.17,285S337.85,306.42,317,305.84" style="fill:#263238"></path><path d="M365.3,217.49l-24.38-68.7s3.78,1.63,6.55,3l24.18,68.82A54.39,54.39,0,0,1,365.3,217.49Z" style="fill:#263238"></path><path d="M366.08,217.9h0l-.09,0-9.16-5.17-.07,0c-3.22-2-5.06-3.16-4.95-2.79L345,187.15Z" style="opacity:0.1"></path><path d="M373,166.6a80.28,80.28,0,0,1,26.17,16.14A256.09,256.09,0,0,0,373,166.6Z" style="fill:#263238"></path><path d="M373,166.6s50.14,10.19,57.37,45.55c0,0,11.56-20.58-1-36.46Z" style="fill:#455a64"></path><path d="M431.12,210.72l-8.69-35-.29-1.17-4.78-19.26a32.83,32.83,0,0,0,5,5.25,158.86,158.86,0,0,1,7.07,15.18h0C440,189.08,433.44,205.79,431.12,210.72Z" style="opacity:0.2"></path><path d="M413.74,108.36a12.75,12.75,0,0,1,5.87,4.89c12.53,18.74,40.87,75.1,44,83.56,1.67,4.47-25.71,13-27,10.57s-12.29-30.53-15.83-41.57c-3.63-11.32-8.31-28.33-9.38-39.73C409.71,108,409.25,106.94,413.74,108.36Z" style="fill:#ffc4c0"></path><rect x="442.41" y="152.71" width="4.59" height="195.01" transform="translate(341.78 -249.56) rotate(49)" style="fill:#263238"></rect><rect x="380.64" y="288.26" width="4.59" height="31.32" transform="translate(361.06 -184.48) rotate(49)" style="fill:#dbdbdb"></rect><path d="M527.94,187.68a7.41,7.41,0,1,1,.73-10.46A7.41,7.41,0,0,1,527.94,187.68Z" style="fill:#263238"></path><path d="M463.64,196.81c6.18,10.29,11.36,22.21,10.29,34.7a6.23,6.23,0,0,1-1.56,3.75c-.39,5.6-3.15,7.1-3.15,7.1-2,5.12-5,6.26-5,6.26s-.52,6.58-4.55,6.92c-4.51.4-2.9-8.91-5.14-14.58-5.14-13-16.07-30-17.93-33.58Z" style="fill:#ffc4c0"></path><path d="M447.36,225.72c-1.34-1.43-2.1-.74-1.79,2.73s4.45,16.91-.37,18-10.38-18-10.45-23.81,1.86-15.21,1.86-15.21C438.44,210.87,443.68,218.91,447.36,225.72Z" style="fill:#ffc4c0"></path><path d="M473.93,231.51a6.45,6.45,0,0,1-1.52,3.7v0s0,0-.05,0c-.38,5.6-3.14,7.1-3.14,7.1-1.8,4.7-4.5,6-4.93,6.23a.06.06,0,0,1-.06,0s-.52,6.58-4.55,6.92c-4.52.4-2.9-8.91-5.14-14.58a149.77,149.77,0,0,0-7.56-15.6c-1.1-.91-1.69,0-1.41,3.09.3,3.5,4.45,16.91-.37,18s-10.38-18-10.45-23.81,1.86-15.21,1.86-15.21c-1.07-1.95-8-19.49-12.63-32.34a154.27,154.27,0,0,0,24.75-9.17c7.46,14.67,13.54,27.28,14.91,30.94C469.81,207.1,475,219,473.93,231.51Z" style="fill:#455a64"></path><path d="M458.71,223.58a89.39,89.39,0,0,1,3.86,11.62,90.27,90.27,0,0,1,1.54,13.32.11.11,0,0,0,.22,0,47.41,47.41,0,0,0-5.44-25C458.79,223.33,458.64,223.38,458.71,223.58Z" style="fill:#263238"></path><path d="M466.1,219.34c1.19,3.82,3.23,10.56,3,23,0,0,.06.06.07,0a42.62,42.62,0,0,0-2.88-23.09C466.18,219.05,466,219.08,466.1,219.34Z" style="fill:#263238"></path><path d="M470.11,217.13c1.77,6.58,2.06,11,2.23,18.1,0,0,.07.05.07,0,.66-8.15,0-11.17-2.09-18.2C470.25,216.8,470,216.88,470.11,217.13Z" style="fill:#263238"></path><path d="M418,156.72c-3.31-9.14-6.15-18.71-6.45-28.48.11.6.21,1.21.3,1.81,1.71,8.75,4.29,17.94,6.15,26.67Z" style="fill:#263238"></path><path d="M410.38,130.72a12.08,12.08,0,0,0,2.34,5.6,5.6,5.6,0,0,1-2.34-5.6Z" style="fill:#263238"></path><path d="M381.76,141.39c-.94-4.3,1-8.88,3.87-12-2,3.74-3.74,7.72-3.87,12Z" style="opacity:0.1"></path></g><g id="freepik--character-3--inject-76"><path d="M554.44,62.13c-1.25-.12-6.44-1.92-11.07,2.14-4.38,3.83-8.66,17.51-10,20.39s-5.48,2.45-7.2,5.76c-1.48,2.86.48,4.46.22,6.74-.21,1.76-2.52,4-1.52,6.87.92,2.64,3.55,2.71,4.91,3.77s1.52,4.8,4.13,6.37,5.66-.44,7.15-.09,2.24,5.32,7.21,6,7.29-3.13,9.48-3.5,6.93,2.16,9.8.16,4-5.27,5.32-6.28,3.44-.32,5.37-2.9-.33-5-.16-7.54c.13-1.79,2-3,1.52-5.91-.68-4-5.29-4.17-6.16-8.28-.68-3.22-.6-16.54-7.59-21.38C561,61.11,554.44,62.13,554.44,62.13Z" style="fill:#263238"></path><path d="M533.63,84A4.44,4.44,0,0,1,532,85.3l-1.9,1a13.54,13.54,0,0,0-3.46,2.35,4.3,4.3,0,0,0-1.29,3.59,6.48,6.48,0,0,0,.64,1.92,7.48,7.48,0,0,1,.79,2.12,3.63,3.63,0,0,1-.7,2.24c-.38.63-.77,1.22-1.11,1.83a5.09,5.09,0,0,0-.72,3.84,2.91,2.91,0,0,0,1,1.61,5.36,5.36,0,0,0,1.86.85c.67.21,1.37.34,2.07.51a3.58,3.58,0,0,1,1.93.91,3.81,3.81,0,0,0-2-.7c-.7-.11-1.42-.18-2.13-.33a5.54,5.54,0,0,1-2.06-.82,3.48,3.48,0,0,1-1.34-1.85,5.51,5.51,0,0,1,.67-4.38c.34-.65.73-1.25,1.08-1.86a3,3,0,0,0,.57-1.76c-.17-1.2-1.2-2.48-1.36-4a4.82,4.82,0,0,1,1.59-4.14A13.54,13.54,0,0,1,529.9,86l2-.85A4.85,4.85,0,0,0,533.63,84Z" style="fill:#263238"></path><path d="M571.31,73.2a62.81,62.81,0,0,1,1.7,7.49c.27,1.25.5,2.5.86,3.71a8.51,8.51,0,0,0,.67,1.69,1.12,1.12,0,0,0,.23.34,1.35,1.35,0,0,0,.29.3c.23.19.48.38.74.56a36.45,36.45,0,0,1,3.07,2.36A6.56,6.56,0,0,1,581,93a4,4,0,0,1,0,2,5.26,5.26,0,0,1-1,1.73,8.31,8.31,0,0,0-2,3.24,7.87,7.87,0,0,1,1.62-3.47,4.92,4.92,0,0,0,.81-1.64,3.58,3.58,0,0,0-.06-1.75,6.45,6.45,0,0,0-2-3c-.93-.82-2-1.49-3.06-2.25a8.71,8.71,0,0,1-.77-.62,2.63,2.63,0,0,1-.67-.85,8.81,8.81,0,0,1-.71-1.88,31.2,31.2,0,0,1-.77-3.8L571.88,77A34.65,34.65,0,0,0,571.31,73.2Z" style="fill:#263238"></path><path d="M574.2,109.88a6.72,6.72,0,0,0-1.36,2.33c-.39.83-.77,1.67-1.2,2.49a13.19,13.19,0,0,1-1.51,2.37,6,6,0,0,1-2.27,1.82,7.65,7.65,0,0,1-5.62-.57c-.86-.36-1.68-.77-2.52-1.1a5.54,5.54,0,0,0-2.62-.57,5.16,5.16,0,0,1,2.75.19c.89.27,1.75.61,2.61.89,1.69.57,3.53,1,5.09.4a5.36,5.36,0,0,0,2-1.55,16.62,16.62,0,0,0,1.56-2.19c.48-.76.92-1.56,1.38-2.36.24-.4.48-.79.74-1.17A2.71,2.71,0,0,1,574.2,109.88Z" style="fill:#263238"></path><path d="M551.15,104.8c-15.32.64-42.87,1-47.27,1.14-9.51.34-34-2.09-42.26-2.57-5-.29-3.79,29.34-1,29.84s31-.83,43-1.83c13.65-1.14,36.19-7.19,47.6-10.76C569.88,114.81,561.22,104.38,551.15,104.8Z" style="fill:#eb9481"></path><path d="M471.91,106.09c-10.22-6.28-22.08-11.6-34.58-10.65A6.18,6.18,0,0,0,433.56,97c-5.61.32-7.14,3.07-7.14,3.07-5.13,1.9-6.31,4.92-6.31,4.92s-6.58.46-7,4.48c-.44,4.51,8.89,3,14.53,5.29,12.92,5.28,29.82,16.39,33.39,18.29Z" style="fill:#eb9481"></path><path d="M442.84,122.07c1.41,1.35.71,2.1-2.75,1.76s-16.86-4.63-18,.17,17.89,10.58,23.69,10.71,15.24-1.7,15.24-1.7C457.59,131.14,449.6,125.81,442.84,122.07Z" style="fill:#eb9481"></path><path d="M501.15,106c-.62,5.24-1.92,16.91-2.25,25.78-13.47.93-35.66,1.93-38.25,1.47a.37.37,0,0,1-.19-.09c-2.16.4-9.7,1.71-14.63,1.59-5.81-.13-24.81-5.89-23.7-10.71s14.46-.51,18-.17c3.11.31,4-.27,3.11-1.37a146.57,146.57,0,0,0-15.53-7.74c-5.64-2.3-15-.78-14.52-5.29.38-3.92,6.65-4.46,7-4.48a.09.09,0,0,1,0-.06c.19-.42,1.57-3.11,6.28-4.86,0,0,1.53-2.75,7.13-3.07,0,0,0,0,0,0h0a6.27,6.27,0,0,1,3.71-1.47c11-.83,21.45,3.16,30.76,8.4C477.74,104.6,492.63,105.9,501.15,106Z" style="fill:#FCF400"></path><path d="M445.1,110.74a89.92,89.92,0,0,0-11.58-4,90.25,90.25,0,0,0-13.3-1.69.11.11,0,0,1,0-.22,47.51,47.51,0,0,1,24.95,5.71C445.34,110.66,445.29,110.81,445.1,110.74Z" style="fill:#263238"></path><path d="M449.42,103.4c-3.82-1.23-10.53-3.35-23-3.24,0,0-.05-.07,0-.07a42.55,42.55,0,0,1,23.06,3.13C449.71,103.31,449.67,103.48,449.42,103.4Z" style="fill:#263238"></path><path d="M451.66,99.41c-6.56-1.84-10.93-2.18-18.07-2.42,0,0,0-.07,0-.08,8.14-.57,11.16.14,18.17,2.28C452,99.27,451.92,99.48,451.66,99.41Z" style="fill:#263238"></path><path d="M532.84,155.15l-4.67,20.54h58.46l-7.07-15.18c-1.7-15,.54-37.37-9.09-49.6-7.71-9.79-14.55-9.41-21.35-3.52-1.72,1.5-19.5,20.21-22.25,29.65C524.47,145.38,532.84,155.15,532.84,155.15Z" style="fill:#eb9481"></path><path d="M550.87,106s-16.77,21.46-16.77,24.84c0,1.13,2.23,10.51,4.87,10.55s14.2-8.07,15.73-9.24,9.45-25.93,10.2-26.76,2.69,1,2.69,1-1.52,31.88-.81,34.07c4.35,13.47,12.78,20,12.78,20a158.86,158.86,0,0,1,7.07,15.18H528.17l4.67-20.54s-9.08-10.9-6-19.24,14.72-21.22,22.27-28.52A18.25,18.25,0,0,1,550.87,106Z" style="fill:#FCF400"></path><path d="M540.79,149.53a48.43,48.43,0,0,1,8.09,2.49c1.3.56,2.57,1.18,3.83,1.85.63.33,1.27.63,1.91.93a7.56,7.56,0,0,0,2.07.7c.07,0,.06.13,0,.12a11.72,11.72,0,0,1-2-.25,12.29,12.29,0,0,1-1.91-.65c-1.32-.55-2.62-1.17-3.94-1.73-2.67-1.14-5.33-2.28-8.06-3.18C540.6,149.77,540.66,149.5,540.79,149.53Z" style="fill:#263238"></path><path d="M533.63,151.82a51.7,51.7,0,0,1,6.93.3,33.58,33.58,0,0,1,3.42.61c.54.12,1.08.25,1.61.39s1.16.4,1.76.55c.06,0,0,.13,0,.12-.56-.12-1.14-.12-1.71-.19l-1.72-.23c-1.14-.16-2.29-.29-3.43-.46-2.29-.32-4.57-.62-6.86-.86C533.48,152,533.51,151.83,533.63,151.82Z" style="fill:#263238"></path><path d="M564.25,106.69c-.2,1.23-5.51,9.51-11.09,9.6-1.82,0-2.42-9.89-2.42-9.89l-.21-.72-2.95-10.11,11.56-8.5,1.67-1.14s.63,2.82,1.37,6.34c0,.17.07.33.11.5s.09.39.13.57c.11.53.23,1.06.34,1.6s.16.8.23,1.24.16.85.24,1.28A67.65,67.65,0,0,1,564.25,106.69Z" style="fill:#eb9481"></path><path d="M562.18,92.27a21.15,21.15,0,0,1-11.65,13.41l-2.95-10.11,11.56-8.5,1.67-1.14S561.44,88.75,562.18,92.27Z" style="fill:#263238"></path><path d="M533.93,78.54c-3.59,18.14,6.87,22.34,10.78,23.1,3.55.7,15.72,2.63,21.17-15S564,61.54,556,59.51,537.52,60.41,533.93,78.54Z" style="fill:#eb9481"></path><path d="M538.07,78.23c.44,0,.84-.07,1.27-.11a2.05,2.05,0,0,0,1.28-.35.67.67,0,0,0,.1-.8,1.64,1.64,0,0,0-1.55-.58,2.39,2.39,0,0,0-1.6.65A.71.71,0,0,0,538.07,78.23Z" style="fill:#263238"></path><path d="M551.25,80.3a10.63,10.63,0,0,1-1.25-.25,2.12,2.12,0,0,1-1.23-.51.65.65,0,0,1,0-.8,1.63,1.63,0,0,1,1.6-.39,2.42,2.42,0,0,1,1.51.84A.7.7,0,0,1,551.25,80.3Z" style="fill:#263238"></path><path d="M540.46,80.77s-.1,0-.1.1c-.09,1.26-.41,2.68-1.58,3,0,0,0,.08,0,.07C540.18,83.87,540.58,82,540.46,80.77Z" style="fill:#263238"></path><path d="M539.48,79.35c-2-.36-2.57,3.66-.72,4S541.15,79.65,539.48,79.35Z" style="fill:#263238"></path><path d="M538.6,79.5c-.35.17-.71.51-1.1.48s-.71-.52-.93-1c0-.05-.06,0-.07,0-.13.77,0,1.6.73,1.86s1.24-.36,1.54-1.1C538.82,79.66,538.74,79.43,538.6,79.5Z" style="fill:#263238"></path><path d="M548.39,81.79s.09.08.08.13c-.2,1.24-.21,2.7.87,3.25,0,0,0,.08,0,.07C548,84.88,548,82.94,548.39,81.79Z" style="fill:#263238"></path><path d="M549.67,80.63c2,.1,1.68,4.14-.2,4.05S548,80.55,549.67,80.63Z" style="fill:#263238"></path><path d="M550.49,81c.3.24.58.66,1,.71s.81-.34,1.13-.74c0,0,.06,0,0,0,0,.78-.36,1.56-1.12,1.65s-1.13-.63-1.25-1.42C550.24,81.08,550.37,80.87,550.49,81Z" style="fill:#263238"></path><path d="M546.81,92c-.3.3-.6.7-1,.75a3.37,3.37,0,0,1-1.36-.3,0,0,0,0,0,0,.06,1.69,1.69,0,0,0,1.6.67,1.34,1.34,0,0,0,1-1.13C547,92,546.85,92,546.81,92Z" style="fill:#263238"></path><path d="M541.76,87.21s-.35,1.87-.39,2.75c0,.09.21.14.51.17,0,0,0,0,0,0a4.21,4.21,0,0,0,4.16-1.39c.06-.08-.05-.18-.13-.12a6.38,6.38,0,0,1-3.89.92c-.06-.25.69-3.18.55-3.19a7.5,7.5,0,0,0-2,.36c.61-3.91,1.84-7.69,2.39-11.59,0-.14-.19-.19-.23-.06a63.84,63.84,0,0,0-3.1,12.37C539.54,87.93,541.4,87.35,541.76,87.21Z" style="fill:#263238"></path><path d="M542,89.8a5.05,5.05,0,0,0,1.86,1.79,2.31,2.31,0,0,0,1.38.24c1-.16,1.15-1.08,1-1.89a5.52,5.52,0,0,0-.32-1.25A6.56,6.56,0,0,1,542,89.8Z" style="fill:#263238"></path><path d="M543.85,91.59a2.31,2.31,0,0,0,1.38.24c1-.16,1.15-1.08,1-1.89A2.38,2.38,0,0,0,543.85,91.59Z" style="fill:#ff9abb"></path><path d="M564.91,86.39c-3,0-3.1-6.36-3.1-6.36s-6.06-.55-7.25-9.45a13.47,13.47,0,0,0,2,7.46S546,75.91,542.33,66.54c0,0,1.37,4.73,2.9,6.5,0,0-4.37-1.67-6.21-5.51,0,0-2.61,6-4.19,7.25,0,0,0-21.51,19.58-16,0,0,11.39,1.33,14.49,10.28S564.91,86.39,564.91,86.39Z" style="fill:#263238"></path><path d="M560.79,85.82s4.37-5.53,6.9-3.94-1,9.77-4.13,10.73a3.12,3.12,0,0,1-4.08-1.93Z" style="fill:#eb9481"></path><path d="M566.62,84.2a0,0,0,0,1,0,.08c-2.2.75-3.45,2.68-4.37,4.7a1.73,1.73,0,0,1,2.61-.32s0,.13-.07.11a1.93,1.93,0,0,0-2.15.55A9.34,9.34,0,0,0,561.54,91c-.11.18-.45.06-.37-.16a.08.08,0,0,0,0,0C561.3,88,563.66,84.3,566.62,84.2Z" style="fill:#263238"></path><path d="M574.71,61.22c1,3.12-9.05,10.2-22.81,14.54s-26,4.29-27,1.17c-.08-.24-.41-1.3-.41-1.3.65-3.27,10.84-8.18,23.55-12.19S572.1,57.59,574.33,60Z" style="fill:#263238"></path><path d="M574.33,60c1,3.12-9.05,10.2-22.81,14.54s-26,4.29-27,1.17,9.38-9.15,23.14-13.49S573.35,56.89,574.33,60Z" style="fill:#37474f"></path><path d="M561.09,41.55l2.85,21.21A41,41,0,0,1,550.1,70a40.9,40.9,0,0,1-15.51,2l-9.84-19Z" style="fill:#263238"></path><ellipse cx="542.92" cy="47.27" rx="19.05" ry="4.13" transform="translate(10.9 165.4) rotate(-17.49)" style="fill:#37474f"></ellipse><path d="M569.53,43.51l-1.43.63,1.39-.24c0,.49-.11,1-.19,1.44l-2.12.21,1.93.71c-.06.27-.12.53-.2.79A15.92,15.92,0,0,1,567,51l-.36.53q-.37.54-.78,1.08l-.33.43c-.75,1-1.56,1.92-2.35,2.81L562,54.94l.88,1.16c-2.47,2.7-4.72,4.64-4.71,4.37a43.92,43.92,0,0,1,0-7c0-.21,0-.42.06-.63a19.83,19.83,0,0,1,.83-4l3.09,1.26L559.81,47c.16-.33.33-.67.52-1l2.19,1.86-1.75-2.69c.59-1.08,1.27-2.24,2-3.42h0l.2-.33.76-1.23c.06-.09.12-.18.17-.27L565,38.15l1.83.94-1.52-1.41.44-.66,1.3,1.22-.9-1.82a34.71,34.71,0,0,1,2.57-3.37A36.12,36.12,0,0,1,569.53,43.51Z" style="fill:#FCF400"></path><path d="M567.87,36.26c-.88,8.8-6.24,15.94-9.69,23.82,0,.12.15.22.21.1,4.1-7.45,9.28-15.14,9.58-23.91A.05.05,0,1,0,567.87,36.26Z" style="fill:#FCF400"></path><path d="M567.87,36.26c-.88,8.8-6.24,15.94-9.69,23.82,0,.12.15.22.21.1,4.1-7.45,9.28-15.14,9.58-23.91A.05.05,0,1,0,567.87,36.26Z" style="opacity:0.1"></path><path d="M565.52,43.33a9.44,9.44,0,0,0-2.87-2,.12.12,0,0,0-.12.19,9.16,9.16,0,0,0,2.84,2C565.48,43.56,565.63,43.42,565.52,43.33Z" style="fill:#FCF400"></path><path d="M565.52,43.33a9.44,9.44,0,0,0-2.87-2,.12.12,0,0,0-.12.19,9.16,9.16,0,0,0,2.84,2C565.48,43.56,565.63,43.42,565.52,43.33Z" style="opacity:0.1"></path><path d="M564.87,41a4.82,4.82,0,0,0-1-1.11.14.14,0,0,0-.2.17,4.42,4.42,0,0,0,.92,1.19,11.55,11.55,0,0,0,1.06,1c.06.05.15,0,.11-.1A14.73,14.73,0,0,0,564.87,41Z" style="fill:#FCF400"></path><path d="M564.87,41a4.82,4.82,0,0,0-1-1.11.14.14,0,0,0-.2.17,4.42,4.42,0,0,0,.92,1.19,11.55,11.55,0,0,0,1.06,1c.06.05.15,0,.11-.1A14.73,14.73,0,0,0,564.87,41Z" style="opacity:0.1"></path><path d="M566.45,52.79a4,4,0,0,0-1.34-.32c-.59-.09-1.19-.16-1.78-.3-.13,0-.2.17-.06.2.56.14,1.11.33,1.67.48a4,4,0,0,0,1.45.26A.18.18,0,0,0,566.45,52.79Z" style="fill:#FCF400"></path><path d="M566.45,52.79a4,4,0,0,0-1.34-.32c-.59-.09-1.19-.16-1.78-.3-.13,0-.2.17-.06.2.56.14,1.11.33,1.67.48a4,4,0,0,0,1.45.26A.18.18,0,0,0,566.45,52.79Z" style="opacity:0.1"></path><path d="M567.53,51a27,27,0,0,0-3.6.13c-.13,0-.1.19,0,.21a15.66,15.66,0,0,0,3.62.13C567.82,51.42,567.79,51,567.53,51Z" style="fill:#FCF400"></path><path d="M567.53,51a27,27,0,0,0-3.6.13c-.13,0-.1.19,0,.21a15.66,15.66,0,0,0,3.62.13C567.82,51.42,567.79,51,567.53,51Z" style="opacity:0.1"></path><path d="M557.87,52.58c-.18-.14-.36.12-.25.29a10.37,10.37,0,0,0,2.19,2c.09.07.21-.07.13-.16A17,17,0,0,0,557.87,52.58Z" style="fill:#FCF400"></path><path d="M557.87,52.58c-.18-.14-.36.12-.25.29a10.37,10.37,0,0,0,2.19,2c.09.07.21-.07.13-.16A17,17,0,0,0,557.87,52.58Z" style="opacity:0.1"></path><path d="M562.34,31.58l-1.16,1.23,1.31-.56c.17.77.34,1.56.5,2.34l.09.43c.11.58.22,1.15.32,1.71,0,.15.05.3.08.44a38.16,38.16,0,0,1,.51,3.94,20.37,20.37,0,0,1-.33,4.65l-5,1.86,4.54.11c-.1.4-.21.79-.32,1.19l-3.09-.24,2.79,1.23a46.63,46.63,0,0,1-3,7c-.12.22-.23.44-.36.66a49.85,49.85,0,0,1-3.42,5.5l-.14.2,0,0,0-.08h0a1,1,0,0,1,0-.1h0a37,37,0,0,1-2-7.19l1.41-.08-1.51-.56c-.06-.36-.11-.74-.16-1.12l1.81.76-1.91-1.76a28.9,28.9,0,0,1-.12-3.75c0-.11,0-.23,0-.34,0-.58.07-1.17.15-1.76,0-.12,0-.26,0-.39a19.62,19.62,0,0,1,1.22-4.73c.21-.53.43-1.08.64-1.64l2.56.59-2.21-1.49c.15-.42.31-.84.47-1.26l1.86,1-1.68-1.48a119.66,119.66,0,0,0,4.1-13.08C560.46,24.24,561.43,27.6,562.34,31.58Z" style="fill:#455a64"></path><path d="M560,29.83c.5,5.56-1.39,11-2.59,16.28a67.68,67.68,0,0,0-1.82,17,.13.13,0,0,0,.25,0,103.77,103.77,0,0,1,2.36-17.73c1.21-5.12,2.83-10.27,1.87-15.6A0,0,0,0,0,560,29.83Z" style="fill:#37474f"></path><path d="M556.26,50.66a16.35,16.35,0,0,0-3.41-1.74c-.12-.05-.2.13-.1.2a11.72,11.72,0,0,0,3.38,1.8A.15.15,0,0,0,556.26,50.66Z" style="fill:#37474f"></path><path d="M552.91,46.59c-.1-.06-.22.07-.14.16a14.53,14.53,0,0,0,3.42,2.79c.06,0,.11,0,.07-.08A14,14,0,0,0,552.91,46.59Z" style="fill:#37474f"></path><path d="M563.85,36.58a11.9,11.9,0,0,0-3.63,1.94s0,.13.06.11A11.65,11.65,0,0,0,564,36.82.14.14,0,0,0,563.85,36.58Z" style="fill:#37474f"></path><path d="M563.13,34.51a10.34,10.34,0,0,0-2.72,2.25c0,.05,0,.15.07.11a27.51,27.51,0,0,0,2.85-2.06C563.48,34.67,563.31,34.41,563.13,34.51Z" style="fill:#37474f"></path><path d="M560.09,56.78a11.83,11.83,0,0,0-3.57,1.56c-.09,0-.06.22.06.19a16.67,16.67,0,0,0,3.62-1.44A.17.17,0,0,0,560.09,56.78Z" style="fill:#37474f"></path><path d="M563,55.8l.93,7A41,41,0,0,1,550.1,70a40.9,40.9,0,0,1-15.51,2l-3.23-6.23A50.94,50.94,0,0,0,563,55.8Z" style="fill:#FCF400"></path><g style="opacity:0.5"><path d="M545.68,64.12a15.56,15.56,0,0,1-2.81,1,18.58,18.58,0,0,1-3,.51,21.24,21.24,0,0,1-3.19.06,50.64,50.64,0,0,0,8.92-1.54Z" style="fill:#fff"></path><path d="M536.76,70.37a73.59,73.59,0,0,1,9-1.55,19.32,19.32,0,0,1-9,1.55Z" style="fill:#fff"></path><path d="M539.62,68.87a43.92,43.92,0,0,1,6.9-1.48,11.75,11.75,0,0,1-6.9,1.48Z" style="fill:#fff"></path><path d="M537.28,66.18a74.08,74.08,0,0,1,9-1.55,19.36,19.36,0,0,1-9,1.55Z" style="fill:#fff"></path><path d="M537.35,67.71a90,90,0,0,1,9.5-1.84,21.22,21.22,0,0,1-9.5,1.84Z" style="fill:#fff"></path><path d="M537.87,69.74a89.65,89.65,0,0,1,9.51-1.83,21.42,21.42,0,0,1-9.51,1.83Z" style="fill:#fff"></path><path d="M538.49,70.71a87.51,87.51,0,0,1,9.5-1.84,21.5,21.5,0,0,1-9.5,1.84Z" style="fill:#fff"></path><path d="M535.28,67.19a104.87,104.87,0,0,1,12.19-2.09,26.62,26.62,0,0,1-12.19,2.09Z" style="fill:#fff"></path><path d="M550,69.9c-.52.24-1.05.45-1.57.64h0A44.32,44.32,0,0,1,539.5,72h0c-.58,0-1.16,0-1.74,0,1-.23,1.9-.45,2.85-.64,1.91-.39,3.84-.7,5.77-1C547.57,70.21,548.76,70.06,550,69.9Z" style="fill:#fff"></path><path d="M536.94,68.53a69,69,0,0,1,10.78-2,21.88,21.88,0,0,1-10.78,2Z" style="fill:#fff"></path><path d="M538.27,71.35a69.2,69.2,0,0,1,10.78-2,21.86,21.86,0,0,1-10.78,2Z" style="fill:#fff"></path></g><path d="M539,141.39c-.94-4.3,1-8.88,3.86-12-2,3.74-3.73,7.72-3.86,12Z" style="opacity:0.1"></path><path d="M543.63,409.8l43.35.82s6.55-46.28,3.54-69.39c-2.86-22-7.7-41.16-7.72-43.08-.22-26,0-66,4.8-92.64a72.94,72.94,0,0,0-1-29.82H528.17s5.4,88.05,7.07,122.73C536.54,325.31,543.63,409.8,543.63,409.8Z" style="fill:#eb9481"></path><path d="M587.6,205.51c-1.14,6.31-2,13.39-2.7,20.85L532,240c-1.92-32.75-3.85-64.28-3.85-64.28h58.45A73,73,0,0,1,587.6,205.51Z" style="opacity:0.1"></path><path d="M507.92,473.08c1,.71,13.26.65,26.51.45,5.69-.08,59.15-37.47,61.23-40.34s-7.31-14.79-7.91-15.88l3.07-45.63-47,3.54-.65,49.15s-13.68,21.33-17.28,25.2-11,8.71-14.36,9.93S505.05,471,507.92,473.08Z" style="fill:#eb9481"></path><path d="M595.35,445.05c-.6,2.34-3,7.58-3,10.74v17.87h-5.93V456.19c0-4.06-.84-13.69-9.67-8.88h0C560,459,538,473.48,534.43,473.54l-7.37.09c-5.74.05-10.87.05-14.38-.06h0l-1.24-.05-.75,0-1-.07h0a4.94,4.94,0,0,1-1.78-.33,1.67,1.67,0,0,1-.28-.25c-2.1-2.21-.05-10,2.77-12.58a2.09,2.09,0,0,1,.22-.2,3.07,3.07,0,0,1,.92-.55l.77-.31.67-.31a47,47,0,0,0,5.31-3.14q.78-.51,1.56-1.08l.77-.56.57-.42c.57-.43,1.13-.87,1.66-1.3h0a34.5,34.5,0,0,0,3-2.81c3.6-3.87,17.28-25.2,17.28-25.2l.23-17v-.05c-1.18-14.23-7-84.73-8.17-108.86-.38-7.83-1-18.39-1.6-30L582.84,272c-.13,9.5-.1,18.47,0,26.19,0,1.92,4.86,21.12,7.72,43.08,1.34,10.32.78,25.26-.26,38.64l-2.52,37.44s0,0,0,0h0l.15.24c.74,1.09,3.26,4.46,5.28,7.85.12.19.23.39.34.58s.19.33.28.49l.27.48a16.46,16.46,0,0,1,1.76,4.3c0,.15,0,.29.07.43s0,.27,0,.4A60.92,60.92,0,0,1,595.35,445.05Z" style="opacity:0.2"></path><path d="M595.65,433.19c-2.07,2.87-55.53,40.26-61.22,40.35-13.25.19-25.52.25-26.51-.47-2.87-2,.17-12.31,3.63-13.57,2.56-.93,7.53-4,11.31-7.12h0c-4.6,5.62-7.53,17.86,28-5.33,24.11-15.76,33.42-25.24,36.91-29.7C588.57,418.69,597.68,430.38,595.65,433.19Z" style="fill:#263238"></path><path d="M596,432.12a61.59,61.59,0,0,1-.6,12.93c-.6,2.34-3,7.58-3,10.74v17.87h-5.93V456.19c0-4.06-.84-13.7-9.69-8.87Z" style="fill:#263238"></path><path d="M543,424.77c.44,8.47,28.16-2.36,33.2-3.7,3.85-1.25,7.68-2.57,11.59-3.72-10.85,5.57-22.38,10.34-34.59,11.75-3.14.28-10.79.44-10.2-4.33Z" style="fill:#263238"></path><polygon points="533.65 268.38 533.26 261.62 582.95 265 582.84 271.96 533.65 268.38" style="fill:#263238"></polygon><path d="M513,281.26l-40.87,9.41s-19-122.69-17-130.37c2.86-11.27,15.22-19,27.72-16.53,19.41,3.77,47.39,22.83,47.39,22.83l56.38,9.09c7.61,9.31,7.65,33.19-5,44.16-27.54,23.86-73.12-11.79-72.58-10a82.11,82.11,0,0,1,4.83,20.63C515.47,250.07,513,281.26,513,281.26Z" style="fill:#eb9481"></path><path d="M499.39,361.43c2.15-.33,16.14-26.36,19.39-38,.68-2.44-2.38-19.09-5.41-38.5l-5.07-51.64-41,23s5.17,39.86,6.47,45,1.41,36.9,3.11,42.42C479,350.48,495.9,362,499.39,361.43Z" style="fill:#eb9481"></path><path d="M522.51,217.5h0l-.09,0h0c-3.64-1.89-6-3.32-8.36-4.76l-.07,0-2.85-1.74-.55-.33c-1.06-.64-1.61-.93-1.55-.72a82.11,82.11,0,0,1,4.83,20.63c1.59,19.22-.75,49.63-.84,50.74l.37,3.73c5.15,18.67,5.92,34.67,5.48,38.05a.51.51,0,0,1,0,.13.59.59,0,0,1,0,.14c0,.07,0,.13,0,.18-3.24,11.61-17.23,37.64-19.39,38a7.8,7.8,0,0,1-3.62-1.05L495,360c-.88-.45-1.84-1-2.85-1.61l-.87-.54-.44-.28-1.34-.9-.9-.63q-.67-.48-1.35-1l-.46-.34-.89-.69-.88-.71-.86-.72-.84-.73c-.83-.73-1.61-1.47-2.33-2.21a16.75,16.75,0,0,1-4.12-5.91,8.66,8.66,0,0,1-.23-.94c-1.29-6.19-2.13-27.11-2.47-37l.14-.08a31.7,31.7,0,0,0-.55-4.42c-.6-2.35-2-12-3.37-21.85l0-.19c-4.63-30.58-16.85-112.76-15.27-119,2.86-11.27,15.22-19,27.73-16.53a78.52,78.52,0,0,1,15.27,5l24.37,68.7Z" style="opacity:0.2"></path><path d="M499.39,361.43c2.16-.33,16.14-26.36,19.39-38,.59-2.08,0-18.8-5.41-38.5-.41-.32-1.46,34.47-2,37.2s-15.36,17.62-18.19,18-13.23-1.54-14.43-2.32-4.31-30.12-4.51-32c.36,10.46,1.27,33.31,2.7,37.92C479,350.49,495.9,362,499.39,361.43Z" style="fill:#263238"></path><path d="M513.37,285s-18.32,21.46-39.16,20.88" style="fill:#263238"></path><path d="M522.5,217.49l-24.37-68.7s3.78,1.63,6.55,3l24.17,68.82A53.52,53.52,0,0,1,522.5,217.49Z" style="fill:#263238"></path><path d="M523.29,217.9h0l-.09,0L514,212.69l-.07,0c-3.22-2-5.06-3.16-5-2.79l-6.77-22.71Z" style="opacity:0.1"></path><path d="M530.24,166.6a80.34,80.34,0,0,1,26.16,16.14,255.94,255.94,0,0,0-26.16-16.14Z" style="fill:#263238"></path><path d="M530.24,166.6s50.13,10.19,57.36,45.55c0,0,11.57-20.57-1-36.46Z" style="fill:#FCF400"></path><path d="M588.32,210.72l-8.69-35-.29-1.17-4.78-19.26a32.83,32.83,0,0,0,5,5.25,158.86,158.86,0,0,1,7.07,15.18h0C597.2,189.08,590.64,205.79,588.32,210.72Z" style="opacity:0.1"></path><path d="M571,108.36a12.75,12.75,0,0,1,5.87,4.89c12.53,18.74,40.87,75.1,44,83.56,1.66,4.47-25.71,13-27,10.57s-12.3-30.53-15.84-41.57c-3.63-11.32-8.3-28.33-9.37-39.73C566.92,108,566.46,106.94,571,108.36Z" style="fill:#eb9481"></path><rect x="599.61" y="152.71" width="4.59" height="195.01" transform="translate(395.84 -368.2) rotate(49)" style="fill:#263238"></rect><rect x="537.85" y="288.26" width="4.59" height="31.32" transform="translate(415.13 -303.12) rotate(49)" style="fill:#dbdbdb"></rect><path d="M685.15,187.68a7.41,7.41,0,1,1,.73-10.46A7.41,7.41,0,0,1,685.15,187.68Z" style="fill:#263238"></path><path d="M620.85,196.81c6.17,10.29,11.36,22.21,10.28,34.7a6.23,6.23,0,0,1-1.56,3.75c-.38,5.6-3.14,7.1-3.14,7.1-2,5.12-5,6.26-5,6.26s-.52,6.58-4.54,6.92c-4.52.4-2.9-8.91-5.14-14.58-5.14-13-16.08-30-17.93-33.58Z" style="fill:#eb9481"></path><path d="M604.56,225.72c-1.33-1.43-2.09-.74-1.79,2.73s4.45,16.91-.36,18S592,228.4,592,222.59s1.86-15.21,1.86-15.21C595.65,210.87,600.89,218.91,604.56,225.72Z" style="fill:#eb9481"></path><path d="M631.14,231.51a6.45,6.45,0,0,1-1.52,3.7v0s0,0,0,0c-.38,5.6-3.14,7.1-3.14,7.1-1.8,4.7-4.5,6-4.93,6.23a.06.06,0,0,1-.06,0s-.52,6.58-4.55,6.92c-4.52.4-2.9-8.91-5.14-14.58a149.77,149.77,0,0,0-7.56-15.6c-1.1-.91-1.69,0-1.41,3.09.3,3.5,4.45,16.91-.37,18S592,228.4,592,222.59s1.86-15.21,1.86-15.21c-1.07-1.95-8-19.49-12.63-32.34a154.27,154.27,0,0,0,24.75-9.17c7.46,14.67,13.54,27.28,14.91,30.94C627,207.1,632.21,219,631.14,231.51Z" style="fill:#FCF400"></path><path d="M615.92,223.58a87.86,87.86,0,0,1,3.85,11.62,89,89,0,0,1,1.55,13.32.11.11,0,0,0,.22,0,47.41,47.41,0,0,0-5.45-25C616,223.33,615.85,223.38,615.92,223.58Z" style="fill:#263238"></path><path d="M623.3,219.34c1.19,3.82,3.24,10.56,3,23,0,0,.07.06.08,0a42.63,42.63,0,0,0-2.89-23.09C623.39,219.05,623.22,219.08,623.3,219.34Z" style="fill:#263238"></path><path d="M627.31,217.13c1.78,6.58,2.06,11,2.23,18.1,0,0,.07.05.08,0,.66-8.15,0-11.17-2.09-18.2C627.46,216.8,627.24,216.88,627.31,217.13Z" style="fill:#263238"></path><path d="M575.24,156.72c-3.31-9.14-6.14-18.71-6.45-28.48.12.6.22,1.21.31,1.81,1.71,8.75,4.28,17.94,6.14,26.67Z" style="fill:#263238"></path><path d="M567.59,130.72a11.87,11.87,0,0,0,2.34,5.6,5.58,5.58,0,0,1-2.34-5.6Z" style="fill:#263238"></path><path d="M529,141.39c-.93-4.3,1-8.88,3.87-12-2,3.74-3.74,7.72-3.87,12Z" style="opacity:0.1"></path></g><g id="freepik--Sparkles--inject-76"><polygon points="308.17 104.78 313.24 103.84 314.37 98.5 315.51 103.84 320.58 104.78 315.53 106.01 314.37 111.06 313.22 106.01 308.17 104.78" style="fill:#FCF400"></polygon><polygon points="70.64 240.24 75.71 239.3 76.84 233.96 77.98 239.3 83.05 240.24 78 241.47 76.84 246.52 75.69 241.47 70.64 240.24" style="fill:#FCF400"></polygon><polygon points="666.96 144.69 672.02 143.75 673.16 138.4 674.29 143.75 679.36 144.69 674.31 145.92 673.16 150.97 672 145.92 666.96 144.69" style="fill:#FCF400"></polygon><polygon points="566.01 359.85 571.08 358.92 572.21 353.57 573.35 358.92 578.42 359.86 573.37 361.09 572.21 366.14 571.06 361.09 566.01 359.85" style="fill:#FCF400"></polygon><polygon points="356.46 261.83 361.53 260.9 362.66 255.56 363.79 260.9 368.86 261.84 363.81 263.07 362.66 268.12 361.5 263.07 356.46 261.83" style="fill:#FCF400"></polygon><polygon points="252.13 338.64 257.2 337.71 258.33 332.36 259.47 337.71 264.54 338.65 259.49 339.88 258.33 344.93 257.18 339.88 252.13 338.64" style="fill:#FCF400"></polygon><polygon points="105.36 170.35 108.19 169.83 108.83 166.84 109.46 169.83 112.29 170.35 109.47 171.04 108.83 173.86 108.18 171.04 105.36 170.35" style="fill:#FCF400"></polygon><polygon points="145.1 73.08 147.94 72.56 148.57 69.57 149.2 72.56 152.04 73.08 149.22 73.77 148.57 76.59 147.93 73.77 145.1 73.08" style="fill:#FCF400"></polygon><polygon points="442.26 192.89 445.09 192.37 445.73 189.38 446.36 192.37 449.19 192.89 446.37 193.58 445.73 196.4 445.08 193.58 442.26 192.89" style="fill:#FCF400"></polygon><polygon points="408.09 67.53 410.92 67 411.55 64.02 412.19 67 415.02 67.53 412.2 68.22 411.55 71.04 410.91 68.22 408.09 67.53" style="fill:#FCF400"></polygon><polygon points="226.15 112.33 228.98 111.81 229.61 108.82 230.25 111.81 233.08 112.33 230.26 113.02 229.61 115.84 228.97 113.02 226.15 112.33" style="fill:#FCF400"></polygon><polygon points="535.68 317.47 538.51 316.94 539.14 313.96 539.78 316.94 542.61 317.47 539.79 318.16 539.14 320.98 538.5 318.16 535.68 317.47" style="fill:#FCF400"></polygon><polygon points="578.11 183.56 580.94 183.04 581.58 180.05 582.21 183.04 585.04 183.56 582.22 184.25 581.58 187.07 580.93 184.25 578.11 183.56" style="fill:#FCF400"></polygon><polygon points="530.16 70.08 533 69.56 533.63 66.57 534.26 69.56 537.1 70.08 534.28 70.77 533.63 73.59 532.99 70.77 530.16 70.08" style="fill:#FCF400"></polygon><polygon points="655.76 104.23 658.6 103.7 659.23 100.72 659.86 103.7 662.7 104.23 659.87 104.92 659.23 107.74 658.58 104.92 655.76 104.23" style="fill:#FCF400"></polygon><polygon points="226.15 231.24 228.98 230.71 229.61 227.72 230.25 230.71 233.08 231.24 230.26 231.93 229.61 234.75 228.97 231.93 226.15 231.24" style="fill:#FCF400"></polygon><path d="M292,150.35a.82.82,0,0,0,0-1.64A.82.82,0,0,0,292,150.35Z" style="fill:#FCF400"></path><path d="M676.3,183.56a.82.82,0,0,0,0-1.64A.82.82,0,0,0,676.3,183.56Z" style="fill:#FCF400"></path><path d="M193.62,171.17a.82.82,0,0,0,0-1.64A.82.82,0,0,0,193.62,171.17Z" style="fill:#FCF400"></path><path d="M506.78,224.22a.82.82,0,0,0,0-1.64A.82.82,0,0,0,506.78,224.22Z" style="fill:#FCF400"></path><path d="M566.69,347.7a.83.83,0,0,0,0-1.65A.83.83,0,0,0,566.69,347.7Z" style="fill:#FCF400"></path><path d="M567.41,63a.58.58,0,0,0,0-1.16A.58.58,0,0,0,567.41,63Z" style="fill:#FCF400"></path><path d="M375,59.75a.58.58,0,0,0,0-1.16A.58.58,0,0,0,375,59.75Z" style="fill:#FCF400"></path><path d="M384,114.75a.58.58,0,0,0,0-1.16A.58.58,0,0,0,384,114.75Z" style="fill:#FCF400"></path><path d="M324.79,219a1.58,1.58,0,0,0,0-3.15A1.58,1.58,0,0,0,324.79,219Z" style="fill:#FCF400"></path><path d="M474.88,112.33a1.58,1.58,0,0,0,0-3.15A1.58,1.58,0,0,0,474.88,112.33Z" style="fill:#FCF400"></path><path d="M141.07,85a1.58,1.58,0,0,0,0-3.15A1.58,1.58,0,0,0,141.07,85Z" style="fill:#FCF400"></path></g></svg>
